<svg width="520" height="207" viewBox="0 0 520 207" fill="none" xmlns="http://www.w3.org/2000/svg">
<path d="M55.1431 178.225V153.323H6.34251V133.435L62.3295 61.5714H77.538V133.268H92.245V153.323H77.538V178.225H55.1431ZM28.7373 133.268H57.65V95.4978L28.7373 133.268ZM192.903 108.032C192.903 117.837 191.009 126.583 187.221 134.271C183.544 141.847 178.419 147.808 171.845 152.153C165.383 156.499 158.029 158.671 149.784 158.671C141.54 158.671 134.13 156.499 127.557 152.153C121.095 147.808 115.969 141.847 112.181 134.271C108.504 126.583 106.666 117.837 106.666 108.032C106.666 98.2275 108.504 89.537 112.181 81.9607C115.969 74.2729 121.095 68.2564 127.557 63.9111C134.13 59.4544 141.54 57.2261 149.784 57.2261C158.029 57.2261 165.383 59.4544 171.845 63.9111C178.419 68.2564 183.544 74.2729 187.221 81.9607C191.009 89.537 192.903 98.2275 192.903 108.032ZM170.341 108.032C170.341 102.016 169.45 96.7791 167.667 92.3224C165.996 87.7543 163.6 84.189 160.48 81.6264C157.361 79.0638 153.795 77.7825 149.784 77.7825C145.662 77.7825 142.041 79.0638 138.921 81.6264C135.802 84.189 133.35 87.7543 131.568 92.3224C129.897 96.7791 129.061 102.016 129.061 108.032C129.061 114.049 129.897 119.285 131.568 123.742C133.35 128.199 135.802 131.708 138.921 134.271C142.041 136.834 145.662 138.115 149.784 138.115C153.795 138.115 157.305 136.834 160.313 134.271C163.433 131.708 165.884 128.199 167.667 123.742C169.45 119.174 170.341 113.937 170.341 108.032ZM253.278 178.225V153.323H204.478V133.435L260.465 61.5714H275.673V133.268H290.38V153.323H275.673V178.225H253.278ZM226.872 133.268H255.785V95.4978L226.872 133.268Z" fill="#231F20"/>
<path d="M3 204L295 204" stroke="#FFDB19" stroke-width="6" stroke-linecap="round"/>
<path d="M149.73 173.618C184.204 173.618 212.15 145.671 212.15 111.197C212.15 76.7225 184.204 48.7757 149.73 48.7757C115.255 48.7757 87.3086 76.7225 87.3086 111.197C87.3086 145.671 115.255 173.618 149.73 173.618Z" fill="#FFDB19"/>
<path d="M149.727 149.462C152.893 149.462 155.459 146.896 155.459 143.73C155.459 140.565 152.893 137.999 149.727 137.999C146.562 137.999 143.996 140.565 143.996 143.73C143.996 146.896 146.562 149.462 149.727 149.462Z" fill="#231F20"/>
<path d="M149.712 72.9318C149.185 76.4301 150.129 77.1621 150.134 92.2439C150.139 107.326 153.268 127.547 149.731 127.548C146.193 127.549 144.899 85.8174 132.615 82.124C118.172 77.7815 151.416 61.6071 149.712 72.9318Z" fill="#231F20"/>
<path d="M456.14 168.992L453.754 174.034C456.638 171.965 461.144 170.182 464.73 169.227C461.389 167.613 457.301 165.012 454.859 162.436L456.231 167.763C440.141 164.485 428.586 152.142 428.581 138.002L428 137.802C428.005 152.571 439.4 165.646 456.14 168.992Z" fill="#3F3D56"/>
<path d="M503.625 193.492L445.935 193.512C443.037 193.513 440.44 192.015 438.991 189.506C438.265 188.251 437.903 186.874 437.902 185.497C437.902 184.121 438.264 182.744 438.988 181.488L467.815 129.011C469.263 126.5 471.858 125.001 474.756 125C477.654 124.999 480.251 126.496 481.701 129.006L510.568 181.47C511.291 182.722 511.652 184.097 511.652 185.473C511.652 186.849 511.291 188.225 510.567 189.481C509.118 191.991 506.523 193.491 503.625 193.492ZM438.628 185.496C438.627 186.749 444.993 184.049 445.653 185.191C446.972 187.474 443.298 192.789 445.935 192.788C445.935 192.788 508.622 191.403 509.94 189.119C510.599 187.977 510.928 186.724 510.927 185.472C510.927 184.219 510.597 182.967 509.937 181.826L481.07 129.362C479.755 127.085 477.393 125.723 474.756 125.724C472.121 125.724 438.628 184.243 438.628 185.496Z" fill="#3F3D56"/>
<path d="M491.59 181.919C506.177 181.919 518.001 170.094 518.001 155.508C518.001 140.921 506.177 129.097 491.59 129.097C477.004 129.097 465.18 140.921 465.18 155.508C465.18 170.094 477.004 181.919 491.59 181.919Z" fill="#FFDB19"/>
<path d="M491.585 171.698C492.924 171.698 494.01 170.612 494.01 169.273C494.01 167.934 492.924 166.848 491.585 166.848C490.246 166.848 489.16 167.934 489.16 169.273C489.16 170.612 490.246 171.698 491.585 171.698Z" fill="#231F20"/>
<path d="M491.577 139.318C491.355 140.798 491.754 141.107 491.756 147.489C491.758 153.87 493.082 162.426 491.585 162.426C490.089 162.427 489.541 144.77 484.343 143.207C478.232 141.37 492.298 134.526 491.577 139.318Z" fill="#231F20"/>
<path d="M512.791 102.384C502.489 115.558 483.05 118.575 466.966 113.987C461.703 112.449 456.626 110.335 451.826 107.684C449.039 106.17 446.318 104.51 443.652 102.74C442.996 102.307 442.34 101.866 441.691 101.417C441.249 101.115 440.808 100.809 440.368 100.499C434.864 96.6265 429.575 92.3782 424.375 88.1543C411.395 77.6101 398.058 66.7414 382.11 61.7105C378.824 60.6745 374.574 60.1899 372.542 62.9732C370.779 65.3897 371.855 68.8111 373.346 71.4032C378.88 81.0048 388.924 87.0672 398.977 91.7291C409.029 96.3909 419.678 100.168 428.417 106.984C437.156 113.8 443.828 124.633 442.04 135.569C440.5 144.992 432.805 152.649 423.86 155.986C414.914 159.32 404.937 158.856 395.637 156.69C386.338 154.523 377.51 150.741 368.536 147.482C363.125 145.515 356.051 144.154 352.46 148.656C349.428 152.46 351.171 158.46 354.863 161.626C358.556 164.791 363.554 165.852 368.322 166.803C383.128 169.76 397.934 172.716 412.74 175.671C417.282 176.576 421.93 177.523 425.887 179.933C429.844 182.341 433.037 186.547 432.923 191.177C432.81 195.741 429.469 199.774 425.374 201.795C421.281 203.813 416.555 204.125 411.995 203.907C394.908 203.089 345.922 175.942 334.173 172.472C326.623 170.245 318.369 166.972 315.185 159.774C311.222 150.812 317.744 139.97 326.648 135.878C335.549 131.783 345.869 132.69 355.57 134.068C365.272 135.446 375.294 137.2 384.738 134.582C394.181 131.963 402.834 123.426 401.902 113.671C401.091 105.183 393.445 98.7874 385.4 95.9685C379.102 93.761 372.402 93.1607 365.786 92.167C363.949 91.8936 362.12 91.5868 360.308 91.2089C355.668 90.2367 351.142 88.7838 346.803 86.8738C342.249 84.8737 337.924 82.3911 333.9 79.4686C330.69 77.1411 327.691 74.5368 324.936 71.6856C324.516 71.2498 324.1 70.8045 323.689 70.3495C323.298 69.9137 322.911 69.4691 322.533 69.0156C317.615 63.1399 313.983 55.9037 315.072 48.4475C316.159 41.0112 321.955 34.8198 328.855 31.8453C332.844 30.1269 337.145 29.3577 341.5 29.2465C344.685 29.1829 347.868 29.4121 351.011 29.9312C365.552 32.2566 378.877 39.3216 391.462 46.9713C404.045 54.621 416.308 63.0177 429.987 68.471C443.665 73.9265 459.236 76.2363 473.113 71.3032C486.989 66.3724 498.389 52.9181 497.711 38.2079C506.915 46.1332 514.736 56.0949 518.199 67.7351C521.663 79.3753 520.271 92.8161 512.791 102.384Z" fill="#3F3D56"/>
<path d="M446.473 87.1816C447.367 87.1816 448.091 86.4573 448.091 85.5637C448.091 84.6702 447.367 83.9458 446.473 83.9458C445.58 83.9458 444.855 84.6702 444.855 85.5637C444.855 86.4573 445.58 87.1816 446.473 87.1816Z" fill="#FFDB19"/>
<path d="M503.611 66.7234C504.992 66.7234 506.112 65.6035 506.112 64.2219C506.112 62.8404 504.992 61.7205 503.611 61.7205C502.229 61.7205 501.109 62.8404 501.109 64.2219C501.109 65.6035 502.229 66.7234 503.611 66.7234Z" fill="#FF6584"/>
<path d="M339.549 143.844C340.06 143.844 340.474 143.43 340.474 142.92C340.474 142.409 340.06 141.996 339.549 141.996C339.039 141.996 338.625 142.409 338.625 142.92C338.625 143.43 339.039 143.844 339.549 143.844Z" fill="#FF6584"/>
<path d="M366.073 89.7882C366.073 90.5899 365.976 91.3887 365.784 92.1669C363.948 91.8935 362.118 91.5867 360.306 91.2088C355.666 90.2366 351.14 88.7837 346.801 86.8737C347.499 84.6208 348.981 82.6928 350.979 81.4397C352.977 80.1865 355.358 79.6913 357.69 80.044C360.022 80.3967 362.15 81.5738 363.688 83.3617C365.226 85.1496 366.072 87.4297 366.073 89.7882Z" fill="#FF6584"/>
<path d="M487.602 81.3958C488.124 81.3958 488.547 80.9726 488.547 80.4506C488.547 79.9285 488.124 79.5053 487.602 79.5053C487.079 79.5053 486.656 79.9285 486.656 80.4506C486.656 80.9726 487.079 81.3958 487.602 81.3958Z" fill="#F0F0F0"/>
<path d="M401.125 185.437C401.647 185.437 402.07 185.014 402.07 184.492C402.07 183.97 401.647 183.547 401.125 183.547C400.603 183.547 400.18 183.97 400.18 184.492C400.18 185.014 400.603 185.437 401.125 185.437Z" fill="#F0F0F0"/>
<path d="M414.684 198.553C415.206 198.553 415.629 198.13 415.629 197.608C415.629 197.086 415.206 196.663 414.684 196.663C414.161 196.663 413.738 197.086 413.738 197.608C413.738 198.13 414.161 198.553 414.684 198.553Z" fill="#F0F0F0"/>
<path d="M330.875 161.205C331.397 161.205 331.82 160.782 331.82 160.26C331.82 159.738 331.397 159.315 330.875 159.315C330.353 159.315 329.93 159.738 329.93 160.26C329.93 160.782 330.353 161.205 330.875 161.205Z" fill="#F0F0F0"/>
<path d="M377.34 143.643C377.862 143.643 378.285 143.22 378.285 142.697C378.285 142.175 377.862 141.752 377.34 141.752C376.818 141.752 376.395 142.175 376.395 142.697C376.395 143.22 376.818 143.643 377.34 143.643Z" fill="#F0F0F0"/>
<path d="M372.672 49.8278C373.194 49.8278 373.617 49.4046 373.617 48.8826C373.617 48.3605 373.194 47.9373 372.672 47.9373C372.15 47.9373 371.727 48.3605 371.727 48.8826C371.727 49.4046 372.15 49.8278 372.672 49.8278Z" fill="#F0F0F0"/>
<path d="M429.805 123.857C430.327 123.857 430.75 123.434 430.75 122.912C430.75 122.39 430.327 121.967 429.805 121.967C429.283 121.967 428.859 122.39 428.859 122.912C428.859 123.434 429.283 123.857 429.805 123.857Z" fill="#F0F0F0"/>
<path d="M436.914 140.308C437.436 140.308 437.859 139.885 437.859 139.363C437.859 138.841 437.436 138.418 436.914 138.418C436.392 138.418 435.969 138.841 435.969 139.363C435.969 139.885 436.392 140.308 436.914 140.308Z" fill="#F0F0F0"/>
<path d="M351.71 51.8998C351.717 56.6725 350.59 61.3785 348.42 65.6297C348.133 66.1899 347.83 66.7405 347.509 67.2815C344.332 72.6464 339.579 76.9018 333.897 79.4685C330.687 77.141 327.688 74.5366 324.933 71.6854C324.513 71.2497 324.097 70.8043 323.686 70.3493C323.295 69.9136 322.908 69.469 322.53 69.0155C317.612 63.1398 313.98 55.9036 315.069 48.4473C316.156 41.0111 321.952 34.8197 328.852 31.8452C332.841 30.1267 337.142 29.3576 341.497 29.2464C344.903 32.2536 347.587 35.9889 349.352 40.1752C349.574 40.7021 349.778 41.2356 349.972 41.7758C351.126 45.0263 351.714 48.4506 351.71 51.8998Z" fill="#FFDB19"/>
<path d="M365.495 53.456C365.495 58.0867 360.973 62.3818 352.761 65.5541C351.118 66.1899 349.36 66.7657 347.51 67.2815C340.587 69.2111 332.348 70.2804 323.687 70.3494C323.296 69.9136 322.909 69.469 322.531 69.0155C322.625 69.0177 322.718 69.0177 322.811 69.0177C332.217 69.0177 341.141 67.8261 348.422 65.6297C349.766 65.2229 351.056 64.7827 352.281 64.3092C359.83 61.3947 364.161 57.4376 364.161 53.456C364.161 49.4744 359.83 45.5195 352.281 42.6028C351.534 42.3138 350.765 42.0381 349.973 41.7758C349.78 41.2356 349.575 40.702 349.353 40.1752C350.536 40.5442 351.672 40.9384 352.761 41.3579C360.973 44.5302 365.495 48.8275 365.495 53.456Z" fill="#E4E4E4"/>
<path d="M324.207 36.9338C324.729 36.9338 325.152 36.5106 325.152 35.9885C325.152 35.4665 324.729 35.0433 324.207 35.0433C323.685 35.0433 323.262 35.4665 323.262 35.9885C323.262 36.5106 323.685 36.9338 324.207 36.9338Z" fill="#F0F0F0"/>
<path d="M343.988 42.9362C344.51 42.9362 344.933 42.513 344.933 41.9909C344.933 41.4689 344.51 41.0457 343.988 41.0457C343.466 41.0457 343.043 41.4689 343.043 41.9909C343.043 42.513 343.466 42.9362 343.988 42.9362Z" fill="#F0F0F0"/>
<path d="M333.77 60.7425C338.847 60.7425 342.962 56.627 342.962 51.5503C342.962 46.4736 338.847 42.3581 333.77 42.3581C328.694 42.3581 324.578 46.4736 324.578 51.5503C324.578 56.627 328.694 60.7425 333.77 60.7425Z" fill="#F0F0F0"/>
<path opacity="0.3" d="M503.523 100.201C501.459 100.81 496.911 101.259 491.909 101.535C486.909 101.809 481.425 101.929 476.009 102.044C466.53 102.249 457.052 102.454 447.574 102.66C446.271 102.689 444.964 102.716 443.652 102.74C442.996 102.307 442.341 101.866 441.691 101.417C442.854 101.424 444.017 101.417 445.171 101.395C450.099 101.297 454.272 100.913 459.025 100.73C466.339 100.448 474.235 100.67 481.858 100.784C489.481 100.899 498.167 100.857 503.523 100.201Z" fill="#F0F0F0"/>
<path opacity="0.3" d="M358.037 170.28L327.82 145.108L357.175 171.289C357.232 171.384 357.311 171.465 357.405 171.524C357.5 171.584 357.607 171.619 357.718 171.629C357.829 171.638 357.94 171.621 358.043 171.579C358.146 171.537 358.238 171.471 358.31 171.386C358.382 171.301 358.434 171.201 358.459 171.092C358.485 170.984 358.484 170.871 358.458 170.763C358.431 170.655 358.379 170.555 358.306 170.471C358.233 170.387 358.14 170.322 358.037 170.28Z" fill="#F0F0F0"/>
<path d="M335.102 74.9489C335.624 74.9489 336.047 74.5257 336.047 74.0036C336.047 73.4816 335.624 73.0583 335.102 73.0583C334.579 73.0583 334.156 73.4816 334.156 74.0036C334.156 74.5257 334.579 74.9489 335.102 74.9489Z" fill="#F0F0F0"/>
<path d="M414.489 183.532L418.399 183.531L420.259 168.45L414.488 168.451L414.489 183.532Z" fill="#FFB6B6"/>
<path d="M413.488 182.255L414.589 182.255L418.885 180.508L421.188 182.255H421.188C422.49 182.255 423.738 182.772 424.658 183.692C425.578 184.612 426.095 185.86 426.095 187.162V187.321L413.489 187.321L413.488 182.255Z" fill="#2F2E41"/>
<path d="M385.207 183.532L381.298 183.531L379.438 168.45L385.208 168.451L385.207 183.532Z" fill="#FFB6B6"/>
<path d="M386.205 187.321L373.598 187.321V187.162C373.598 185.86 374.115 184.612 375.035 183.692C375.955 182.772 377.203 182.255 378.505 182.255H378.505L380.808 180.508L385.104 182.255L386.205 182.255L386.205 187.321Z" fill="#2F2E41"/>
<path d="M399.221 67.9554L395.262 70.97L384.745 73.755C384.745 73.755 388.514 100.201 386.735 101.98C384.957 103.758 386.561 103.806 386.203 106.116C385.846 108.427 384.422 114.526 384.422 114.526H415.809C415.809 114.526 416.062 110.736 414.515 109.915C412.968 109.094 415.941 105.262 414.677 104.621C413.412 103.98 415.191 98.4227 415.191 98.4227L419.045 80.2267L408.794 72.2058L407.234 68.4493L399.221 67.9554Z" fill="#FFDB19"/>
<path d="M404.155 91.5875C404.911 91.5875 405.525 90.9742 405.525 90.2177C405.525 89.4612 404.911 88.848 404.155 88.848C403.398 88.848 402.785 89.4612 402.785 90.2177C402.785 90.9742 403.398 91.5875 404.155 91.5875Z" fill="#F2F2F2"/>
<path d="M403.333 65.9693C406.996 65.9693 409.966 62.9994 409.966 59.3359C409.966 55.6723 406.996 52.7025 403.333 52.7025C399.669 52.7025 396.699 55.6723 396.699 59.3359C396.699 62.9994 399.669 65.9693 403.333 65.9693Z" fill="#FFB6B6"/>
<path opacity="0.1" d="M414.672 89.1251L415.966 90.096L416.613 85.5657L414.672 89.1251Z" fill="black"/>
<path d="M385.365 73.7294C385.365 73.7294 383.747 73.4058 382.776 76.318C381.806 79.2303 378.246 90.2321 378.246 92.1736C378.246 94.1151 400.413 102.681 400.413 102.681L398.106 94.5903L387.954 89.2613L385.365 73.7294Z" fill="#FFDB19"/>
<path d="M401.432 101.482C403.519 101.482 405.211 99.7898 405.211 97.7026C405.211 95.6153 403.519 93.9233 401.432 93.9233C399.344 93.9233 397.652 95.6153 397.652 97.7026C397.652 99.7898 399.344 101.482 401.432 101.482Z" fill="#FFB6B6"/>
<path opacity="0.1" d="M387.656 85.2532L387.952 89.2613L397.341 94.189L388.99 88.5879L387.656 85.2532Z" fill="black"/>
<path d="M410.225 85.8246H410.103V82.4881C410.103 82.2345 410.053 81.9834 409.956 81.7491C409.859 81.5148 409.717 81.3019 409.537 81.1226C409.358 80.9433 409.145 80.801 408.911 80.704C408.676 80.607 408.425 80.557 408.172 80.557H401.103C400.849 80.557 400.598 80.607 400.364 80.704C400.13 80.801 399.917 80.9433 399.737 81.1226C399.558 81.3019 399.416 81.5148 399.319 81.7491C399.222 81.9834 399.172 82.2345 399.172 82.4881V100.792C399.172 101.046 399.222 101.297 399.319 101.531C399.416 101.766 399.558 101.979 399.737 102.158C399.917 102.337 400.13 102.479 400.364 102.576C400.598 102.673 400.849 102.723 401.103 102.723H408.172C408.425 102.723 408.676 102.673 408.911 102.576C409.145 102.479 409.358 102.337 409.537 102.158C409.717 101.979 409.859 101.766 409.956 101.531C410.053 101.297 410.103 101.046 410.103 100.792V88.1996H410.225V85.8246Z" fill="#F0F0F0"/>
<path d="M419.042 80.2267C419.042 80.2267 420.013 80.8739 420.66 83.7862C421.307 86.6984 425.514 97.7002 423.896 100.289C422.278 102.878 421.8 105.64 416.299 101.757L408.688 94.788L414.188 89.6106L416.453 91.2285L419.042 80.2267Z" fill="#FFDB19"/>
<path d="M404.719 88.7153C405.613 88.7153 406.337 87.9909 406.337 87.0974C406.337 86.2039 405.613 85.4795 404.719 85.4795C403.826 85.4795 403.102 86.2039 403.102 87.0974C403.102 87.9909 403.826 88.7153 404.719 88.7153Z" fill="#FFDB19"/>
<path d="M409.408 94.4212C411.495 94.4212 413.187 92.7291 413.187 90.6419C413.187 88.5546 411.495 86.8626 409.408 86.8626C407.321 86.8626 405.629 88.5546 405.629 90.6419C405.629 92.7291 407.321 94.4212 409.408 94.4212Z" fill="#FFB6B6"/>
<path opacity="0.1" d="M387.477 97.3497L398.326 102.149L387.176 99.9694L387.477 97.3497Z" fill="black"/>
<path d="M396.631 60.6579L395.72 57.1916C395.483 56.2872 395.243 55.3645 395.297 54.4309C395.35 53.4973 395.746 52.5339 396.533 52.0282C397.319 51.5224 398.52 51.6419 399.026 52.4282C399.122 51.1726 400.264 50.2069 401.476 49.8647C402.688 49.5226 403.975 49.6579 405.232 49.7156C406.49 49.7734 407.818 49.7331 408.904 49.0951C408.987 49.3433 408.981 49.6125 408.888 49.8572C408.796 50.1019 408.621 50.3071 408.395 50.4381C408.665 50.5118 408.953 50.4801 409.2 50.3496C409.447 50.2191 409.636 49.9995 409.728 49.7352C409.736 50.4623 409.467 51.1654 408.976 51.7016C409.445 51.4692 409.983 51.4194 410.486 51.5618C410.989 51.7043 411.421 52.0289 411.698 52.4725C412.253 53.433 411.942 54.6393 411.618 55.6998L409.954 61.1425C409.702 60.3151 409.654 59.4416 409.519 58.5872C409.384 57.7328 409.144 56.8603 408.58 56.2044C408.016 55.5486 407.058 55.1688 406.257 55.4944C405.807 55.6771 405.464 56.0478 405.059 56.3138C404.226 56.8596 403.166 56.9379 402.177 56.8268C401.187 56.7158 400.223 56.434 399.233 56.3214C398.614 56.2509 397.923 56.2696 397.455 56.6822C397.134 57.0163 396.921 57.4401 396.846 57.8976C396.626 58.8095 396.539 59.7487 396.589 60.6856" fill="#2F2E41"/>
<path d="M384.412 114.526L383.118 147.855C383.118 147.855 377.529 172.472 378.5 173.119C379.471 173.766 379.882 177.625 379.882 177.625L385.383 178.272C385.383 178.272 385.383 175.684 386.677 174.713C387.972 173.742 399.944 128.117 399.944 128.117L411.624 172.23C411.624 172.23 411.917 174.713 412.887 174.713C413.858 174.713 414.182 178.272 414.182 178.272H419.683V174.713C419.683 174.713 422.154 173.929 421.184 171.341C420.213 168.752 415.8 114.526 415.8 114.526H384.412Z" fill="#2F2E41"/>
<path d="M418.296 52.9169C419.432 53.5456 420.863 53.1343 421.491 51.9982C422.12 50.8622 421.709 49.4316 420.573 48.8029C419.437 48.1742 418.006 48.5854 417.377 49.7215C416.749 50.8575 417.16 52.2882 418.296 52.9169Z" fill="#FFDB19"/>
<path d="M431.092 29.2736C427.865 27.5172 423.787 28.673 421.962 31.8623C421.946 31.8917 421.83 32.1003 421.679 32.3733C421.457 32.7735 421.404 33.2452 421.53 33.6848C421.657 34.1244 421.952 34.4958 422.353 34.7174C422.551 34.8271 422.769 34.8967 422.994 34.9221C423.22 34.9475 423.448 34.9283 423.666 34.8655C423.884 34.8028 424.087 34.6977 424.264 34.5563C424.442 34.4149 424.589 34.24 424.699 34.0415C424.801 33.8557 424.872 33.7272 424.877 33.7193C425.152 33.2224 425.551 32.8057 426.036 32.51C426.521 32.2143 427.074 32.05 427.641 32.033C428.209 32.0161 428.771 32.1472 429.273 32.4135C429.774 32.6797 430.198 33.0719 430.502 33.5515C430.806 34.0311 430.98 34.5816 431.006 35.1488C431.033 35.716 430.912 36.2803 430.654 36.7863C430.396 37.2924 430.012 37.7226 429.537 38.0348C429.063 38.347 428.516 38.5303 427.949 38.5667L427.949 38.5677C427.949 38.5677 425.036 38.7617 423.332 40.2961L423.332 40.2965C423.002 40.6214 422.721 40.9923 422.497 41.3977C422.404 41.5643 421.608 43.0273 420.972 44.2208C420.753 44.6327 420.704 45.1143 420.837 45.5616C420.969 46.009 421.272 46.3863 421.681 46.6121C421.886 46.7256 422.111 46.7975 422.344 46.8235C422.577 46.8495 422.813 46.8292 423.038 46.7637C423.263 46.6982 423.473 46.5889 423.656 46.442C423.839 46.295 423.991 46.1134 424.103 45.9076C424.696 44.8205 425.391 43.5569 425.441 43.4654C426.086 42.3007 427.852 41.7621 429.193 41.5161C430.738 41.2328 432.16 40.4685 433.209 39.299C433.429 39.0608 433.623 38.7991 433.786 38.5186C434.22 37.7355 434.494 36.8743 434.593 35.9847C434.692 35.0951 434.614 34.1947 434.364 33.3353C434.114 32.476 433.696 31.6747 433.134 30.9776C432.573 30.2805 431.879 29.7014 431.092 29.2736Z" fill="#FFDB19"/>
<path d="M423.172 34.2395C422.772 34.018 422.476 33.6466 422.35 33.207C422.223 32.7674 422.277 32.2956 422.498 31.8954C422.649 31.6224 422.765 31.4139 422.782 31.3844C423.312 30.4566 424.055 29.6685 424.951 29.0855C423.684 29.6733 422.632 30.6402 421.938 31.8524C421.922 31.8819 421.806 32.0904 421.655 32.3634C421.433 32.7636 421.38 33.2354 421.506 33.675C421.633 34.1146 421.929 34.486 422.329 34.7075C422.658 34.8894 423.037 34.9589 423.409 34.9055C423.781 34.8522 424.126 34.6788 424.39 34.4118C423.977 34.5067 423.543 34.4453 423.172 34.2395Z" fill="#3F3D56"/>
<path d="M429.437 32.51C429.887 32.7881 430.263 33.1714 430.533 33.627C430.803 34.0825 430.958 34.5967 430.985 35.1254C431.012 35.6541 430.91 36.1814 430.689 36.6622C430.467 37.143 430.132 37.5629 429.713 37.8857C430.153 37.7201 430.552 37.4615 430.883 37.1275C431.214 36.7936 431.47 36.3922 431.631 35.9508C431.793 35.5093 431.858 35.0381 431.821 34.5693C431.785 34.1005 431.647 33.6451 431.419 33.2342C431.19 32.8233 430.876 32.4665 430.497 32.1882C430.117 31.9099 429.683 31.7165 429.222 31.6214C428.762 31.5263 428.286 31.5316 427.828 31.6369C427.37 31.7422 426.939 31.9451 426.567 32.2318C427.034 32.0553 427.536 31.9886 428.034 32.0369C428.532 32.0851 429.011 32.247 429.437 32.51Z" fill="#3F3D56"/>
<path d="M422.498 46.1341C422.09 45.9083 421.787 45.531 421.654 45.0836C421.521 44.6362 421.57 44.1547 421.789 43.7428C422.425 42.5493 423.222 41.0862 423.314 40.9197C423.538 40.5142 423.82 40.1434 424.15 39.8185L424.149 39.8181C424.325 39.6607 424.512 39.5163 424.709 39.3861C424.199 39.6147 423.727 39.9181 423.306 40.2861L423.307 40.2865C422.976 40.6114 422.695 40.9823 422.471 41.3877C422.379 41.5542 421.582 43.0173 420.946 44.2108C420.727 44.6227 420.678 45.1042 420.811 45.5516C420.944 45.999 421.247 46.3763 421.655 46.6021C421.992 46.7883 422.38 46.8604 422.761 46.8075C423.142 46.7545 423.495 46.5795 423.768 46.3086C423.338 46.4111 422.885 46.3489 422.498 46.1341Z" fill="#3F3D56"/>
<path d="M418.119 52.1642C417.898 51.8752 417.746 51.5386 417.677 51.181C417.607 50.8234 417.622 50.4546 417.719 50.1036C417.817 49.7527 417.995 49.4292 418.239 49.1587C418.483 48.8882 418.786 48.6781 419.125 48.5449C418.794 48.5866 418.476 48.6981 418.192 48.8721C417.908 49.046 417.663 49.2785 417.476 49.554C417.288 49.8296 417.161 50.1419 417.103 50.4702C417.046 50.7986 417.058 51.1354 417.141 51.4584C417.223 51.7815 417.373 52.0833 417.581 52.3438C417.789 52.6044 418.05 52.8178 418.347 52.9697C418.644 53.1217 418.969 53.2088 419.302 53.2253C419.635 53.2418 419.968 53.1873 420.278 53.0654C419.871 53.1169 419.458 53.0608 419.079 52.9026C418.7 52.7445 418.369 52.4899 418.119 52.1642Z" fill="#3F3D56"/>
</svg>
