<svg width="111" height="122" viewBox="0 0 111 122" fill="none" xmlns="http://www.w3.org/2000/svg">
<g clip-path="url(#clip0_852_4346)">
<path d="M57.8341 122C56.5106 121.257 55.0239 120.705 53.8992 119.732C52.19 118.249 51.7627 116.119 51.7686 113.89C51.7864 107.895 51.7923 101.903 51.7508 95.9077C51.7449 95.2393 51.4273 94.5649 51.2226 93.9024C50.8161 92.5924 50.1365 91.3093 50.0237 89.9754C49.8279 87.6926 49.8665 85.374 50.0119 83.0852C50.2374 79.5491 53.2375 76.6188 56.7836 76.4935C60.2941 76.3681 63.8105 76.4368 67.3239 76.4219C67.7898 76.4219 68.2557 76.4219 68.9056 76.4219C68.9056 75.2163 68.8967 74.1211 68.9056 73.026C68.9412 69.1139 71.1133 66.8968 74.9888 66.8669C78.4637 66.8401 81.9386 66.8341 85.4134 66.8669C89.185 66.9057 91.4195 69.1885 91.4581 72.9812C91.47 74.0824 91.4581 75.1835 91.4581 76.4219C92.7193 76.4219 93.8528 76.4219 94.9894 76.4219C97.7135 76.4278 100.441 76.3592 103.162 76.4606C107.23 76.6099 110.192 79.5521 110.408 83.6492C110.515 85.6665 110.554 87.7075 110.37 89.7158C110.248 91.0228 109.827 92.3686 109.242 93.5473C108.764 94.5142 108.53 95.4153 108.536 96.4717C108.565 101.989 108.551 107.507 108.551 113.024C108.551 118.306 107.278 120.162 102.396 122.003H57.8341V122ZM99.1467 97.7638C100.868 96.6119 102.473 95.675 103.915 94.535C106.025 92.8699 107.12 90.6677 106.901 87.8866C106.824 86.8989 106.889 85.9022 106.889 84.9085C106.889 81.3754 105.53 79.9967 102.037 79.9967C89.5975 79.9967 77.158 79.9967 64.7215 79.9967C62.2733 79.9967 59.8252 79.9639 57.3771 80.0147C55.1545 80.0594 53.6678 81.4649 53.4957 83.694C53.3948 84.998 53.4393 86.311 53.4393 87.621C53.4333 92.1926 56.7213 96.3195 61.2021 97.3729C61.7362 95.7675 62.0597 95.5258 63.7571 95.5228C65.9678 95.5168 68.1815 95.5049 70.3923 95.5287C71.7246 95.5437 72.3389 96.1435 72.4487 97.4684C72.4873 97.9428 72.4635 98.4203 72.4635 98.8977C72.4635 100.655 72.4635 100.664 74.1372 100.855C75.0393 100.96 75.9443 101.052 76.8494 101.088C78.5854 101.16 80.3302 101.1 82.0513 101.285C82.63 101.348 83.357 101.885 83.627 102.41C83.8437 102.834 83.6656 103.744 83.3214 104.108C82.9208 104.529 82.1403 104.782 81.532 104.767C78.8495 104.708 76.1699 104.556 73.4932 104.376C72.7009 104.323 72.2677 104.424 71.9086 105.287C70.8611 107.814 68.1993 109.07 65.582 108.444C62.9469 107.811 61.3979 105.689 61.2881 102.637C61.2733 102.201 61.208 101.53 60.938 101.377C59.1457 100.366 57.291 99.4647 55.4067 98.5009C55.4067 104.081 55.3325 109.593 55.4453 115.101C55.4868 117.184 57.1782 118.419 59.4721 118.422C73.2529 118.428 87.0366 118.428 100.817 118.422C103.497 118.422 104.99 116.912 104.996 114.209C105.007 109.246 105.001 104.284 104.996 99.3215C104.996 99.035 104.936 98.7515 104.904 98.4471C103.491 99.214 102.218 100.026 100.85 100.611C99.6156 101.139 99.0132 101.742 98.9806 103.254C98.9123 106.406 96.3039 108.727 93.3276 108.626C90.283 108.521 87.9951 106.149 87.9209 102.968C87.8794 101.222 87.8972 99.4737 87.915 97.728C87.9298 96.1285 88.5352 95.5377 90.1643 95.5258C92.1792 95.5108 94.1941 95.5705 96.206 95.5049C97.6986 95.4571 98.9182 95.6839 99.1556 97.7638H99.1467ZM72.514 76.3473H87.8556C87.8556 74.9418 87.9387 73.5989 87.8289 72.274C87.7369 71.152 86.9891 70.5194 85.8437 70.4597C85.2146 70.4269 84.5826 70.4358 83.9535 70.4358C80.9178 70.4358 77.8821 70.4179 74.8493 70.4448C73.4398 70.4567 72.6238 71.0147 72.5377 72.1427C72.4368 73.5124 72.514 74.894 72.514 76.3473ZM91.47 99.1633C91.47 100.509 91.4314 101.771 91.4818 103.028C91.5293 104.191 92.3691 105.009 93.4196 105.036C94.4018 105.063 95.3395 104.32 95.4256 103.231C95.5294 101.903 95.4493 100.563 95.4493 99.1603H91.47V99.1633ZM64.8966 99.1514C64.8966 100.581 64.8372 101.888 64.9144 103.186C64.9796 104.284 65.8521 105.084 66.8551 105.027C67.9055 104.967 68.7097 104.43 68.7898 103.314C68.8848 101.95 68.8136 100.575 68.8136 99.1514H64.8995H64.8966Z" fill="#595959"/>
<path d="M40.9282 77.4603H36.9815C36.9192 78.266 36.8331 79.0807 36.7975 79.8953C36.3702 89.8919 35.9518 99.8914 35.5274 109.888C35.5126 110.243 35.4918 110.604 35.4176 110.95C35.198 111.941 34.5452 112.502 33.557 112.404C32.5867 112.308 31.9695 111.681 31.9784 110.643C31.9932 109.214 32.0525 107.784 32.1119 106.358C32.5481 96.1226 32.9903 85.8873 33.4294 75.652C33.4413 75.3804 33.4294 75.1089 33.4294 74.7478C32.7825 74.9388 32.2395 75.1656 31.6727 75.2521C29.2602 75.6281 27.4501 74.6583 26.1236 72.656C24.0227 69.4839 21.895 66.3328 19.8415 63.1309C19.3252 62.3282 18.9068 62.0924 17.9691 62.4834C15.3874 63.5666 12.7227 64.4558 10.1558 65.5718C8.74332 66.1866 7.45842 67.0997 6.11714 67.8815C6.09043 68.0635 6.06669 68.2456 6.03998 68.4306C6.50587 68.7857 7.01924 69.09 7.43171 69.4989C16.5655 78.5376 16.3696 77.8632 16.2865 90.8915C16.248 97.1252 16.2865 103.362 16.2717 109.596C16.2717 110.148 16.3607 110.843 16.0759 111.213C15.6693 111.741 14.9393 112.365 14.3815 112.332C13.8265 112.299 13.2182 111.574 12.8265 111.016C12.5951 110.688 12.7227 110.091 12.7227 109.616C12.7197 101.357 12.6663 93.0938 12.7464 84.8339C12.779 81.45 11.7701 78.648 9.25965 76.3443C7.63646 74.8552 6.15868 73.2051 4.61264 71.6295C4.49395 71.6623 4.37822 71.6951 4.25952 71.7279C4.1883 72.7604 4.02212 73.7989 4.0607 74.8254C4.47614 85.5769 4.92422 96.3315 5.36044 107.083C5.40495 108.193 5.45243 109.306 5.45243 110.416C5.45243 111.61 4.73431 112.413 3.72835 112.43C2.78767 112.445 2.00723 111.705 1.92711 110.583C1.81435 108.999 1.77874 107.411 1.71642 105.824C1.31879 95.5526 0.882574 85.2785 0.511644 75.0015C0.289086 68.8543 3.26246 64.411 8.95401 62.1849C9.83534 61.8388 10.7018 61.4419 11.6099 61.1763C16.2539 59.8156 20.3163 57.5567 23.3283 53.6386C25.2067 52.9433 24.9337 51.3648 24.9426 49.8429C24.9485 48.8761 24.723 48.1181 24.082 47.3691C22.2541 45.2325 21.0196 42.7588 20.3875 40.0075C20.1917 39.154 19.9187 38.6706 18.889 38.59C16.6041 38.408 14.7286 36.3281 14.5061 33.8245C14.2687 31.1896 14.5921 28.7337 17.0907 27.1164C17.3133 26.9731 17.3756 26.3644 17.3044 26.0152C16.5299 22.1897 16.0284 18.3343 16.3073 14.4282C16.6575 9.54029 19.2837 6.5622 24.0167 5.45213C24.4233 5.35664 24.8268 5.14179 25.1651 4.89113C30.3967 1.01186 36.3435 -0.295152 42.7175 0.0539817C47.2844 0.304642 51.605 1.39084 55.3321 4.24956C59.2907 7.28434 61.3263 11.4232 62.0949 16.2574C62.6528 19.7756 62.5103 23.2938 61.9495 26.809C61.8634 27.3521 62.0682 28.0414 62.356 28.5338C63.8308 31.0374 63.8872 33.5918 62.5934 36.1282C61.8338 37.6143 60.5133 38.5154 58.801 38.6288C58.1067 38.6766 57.7535 38.9213 57.6022 39.6285C56.9375 42.714 55.5161 45.4235 53.4804 47.8227C53.0353 48.3479 52.5902 52.0392 53.0116 52.5136C53.4418 52.997 54.1214 53.2447 54.5932 53.6983C55.9938 55.0411 57.3233 56.4585 58.7239 57.7984C59.166 58.2221 59.715 58.5862 60.2818 58.816C62.6943 59.7977 65.1306 60.7198 67.558 61.6627C67.8161 61.7642 68.0832 61.8448 68.3295 61.9641C69.3533 62.4565 69.7628 63.3398 69.4245 64.2977C69.104 65.2048 68.1425 65.6673 67.0743 65.2734C64.6291 64.3752 62.2017 63.4323 59.7922 62.4505C59.0414 62.1432 58.6378 62.2237 58.1719 62.9519C56.252 65.9568 54.2549 68.911 52.2816 71.8831C50.0204 75.2909 48.4981 75.8788 44.5366 74.8045C44.5039 74.9865 44.4357 75.1626 44.4446 75.3357C44.9283 86.5229 45.4179 97.7101 45.9046 108.897C45.9224 109.333 45.955 109.769 45.958 110.207C45.9669 111.568 45.2784 112.439 44.1953 112.448C43.1626 112.457 42.4772 111.658 42.4119 110.342C42.2724 107.486 42.13 104.63 42.0053 101.774C41.667 93.9591 41.3377 86.1439 41.0053 78.3287C40.9934 78.0601 40.9578 77.7945 40.9282 77.4693V77.4603ZM23.4143 27.5699C23.9366 26.9343 24.536 26.2062 25.1354 25.4811C25.9337 24.5172 26.8684 24.3263 27.7171 24.947C28.5539 25.5617 28.7261 26.5703 27.9723 27.5729C27.1681 28.6412 26.2898 29.6856 25.2927 30.5659C23.5716 32.0878 22.714 32.0192 20.9751 30.5212C19.8326 29.5364 18.3638 29.987 18.0967 31.4701C17.9661 32.1952 17.883 33.0516 18.1501 33.6962C18.3934 34.287 19.1056 35.045 19.6576 35.0838C22.2036 35.2658 23.2393 36.7101 23.7764 39.0436C25.3224 45.7428 31.6045 50.7799 38.4414 50.9679C45.9431 51.1708 52.4863 46.0711 54.2431 38.6527C54.8187 36.2237 55.6318 35.4657 58.0562 35.1763C59.0533 35.0569 59.6171 34.5377 59.8189 33.553C60.353 30.9479 59.4361 29.8706 56.8425 30.0915C55.2728 30.2257 54.2905 29.6916 53.5991 28.2563C53.2223 27.4715 52.881 26.6658 52.6021 25.8422C52.3647 25.1439 52.0204 24.9977 51.2875 25.129C46.4328 25.9884 41.5602 26.2003 36.6966 25.2304C32.3226 24.3591 28.4708 22.4941 25.539 18.9997C24.7378 18.0448 24.7645 17.0631 25.5539 16.3499C26.2749 15.6994 27.2631 15.768 28.0999 16.5528C28.7646 17.1735 29.3522 17.8837 30.0614 18.4447C34.0704 21.6167 38.7946 22.3926 43.6849 22.2225C46.6286 22.1211 49.5575 21.5988 52.4893 21.2258C53.9315 21.0408 54.5161 21.3094 55.1006 22.6462C55.4656 23.4818 55.8959 24.2994 56.1363 25.1708C56.4746 26.3942 57.1482 26.7642 58.3945 26.2928C58.9168 23.5743 59.0533 20.7723 58.7536 17.9673C58.3589 14.2939 57.1927 10.9309 54.5131 8.25416C51.973 5.71771 48.8245 4.45844 45.3526 3.9422C38.5631 2.92762 32.2276 3.9243 26.637 8.24521C26.1652 8.60926 25.5153 8.80919 24.9159 8.92855C21.8594 9.5373 20.0136 11.4232 19.9335 14.5147C19.8682 17.081 19.9484 19.6801 20.3015 22.2165C20.5864 24.2636 20.2036 26.8746 23.4203 27.5699H23.4143ZM38.845 64.3424C39.0023 64.2887 39.0913 64.2827 39.1447 64.238C42.4178 61.3703 45.6939 58.5056 48.9551 55.623C49.145 55.4559 49.3438 55.1754 49.3527 54.9426C49.3943 53.8565 49.3705 52.7673 49.3705 51.4931C42.3199 55.5544 35.4265 55.4828 28.4768 51.4931C28.4768 52.7106 28.453 53.7013 28.4916 54.689C28.5035 54.9725 28.6281 55.3336 28.8299 55.5126C32.1683 58.4788 35.5245 61.424 38.845 64.3424ZM22.0523 60.0573C24.4707 63.7008 26.8536 67.3324 29.2839 70.9312C29.9486 71.913 31.0288 72.1129 31.8359 71.346C33.3464 69.9107 34.744 68.3589 36.2366 66.8043C32.5303 63.5457 28.8032 60.2722 25.174 57.0822C24.085 58.1207 23.0909 59.0666 22.0493 60.0603L22.0523 60.0573ZM41.581 66.8729C43.1122 68.4276 44.5158 69.9226 46.0054 71.3311C46.8334 72.1159 47.9402 71.9219 48.6465 70.8745C50.9522 67.4667 53.2163 64.0291 55.4656 60.5825C55.611 60.3617 55.6378 59.8574 55.4894 59.6843C54.6733 58.7324 53.7861 57.8461 52.9018 56.9151C49.0471 60.305 45.3704 63.5397 41.581 66.8759V66.8729ZM38.9548 69.475C37.2693 70.409 36.8746 71.91 37.2278 73.7601H40.6492C41.1181 71.8772 40.5988 70.4448 38.9548 69.475Z" fill="#595959"/>
</g>
<defs>
<clipPath id="clip0_852_4346">
<rect width="110" height="122" fill="white" transform="translate(0.5)"/>
</clipPath>
</defs>
</svg>
