<svg width="159" height="109" viewBox="0 0 159 109" fill="none" xmlns="http://www.w3.org/2000/svg">
<g clip-path="url(#clip0_852_4353)">
<path d="M4.43786 109.001C1.09695 107.673 -0.234193 105.188 0.0333412 101.636C0.183421 99.674 0.0463917 97.6923 0.0659673 95.7236C0.118169 90.8248 2.43462 87.4107 6.91092 85.5009C10.5259 83.9574 14.1604 82.4727 17.808 81.0142C18.702 80.661 18.9891 80.177 19.0544 79.209C19.3219 75.4679 19.1196 72.0081 15.857 69.3526C14.7673 68.4632 14.1604 66.9589 13.3578 65.7227C12.0071 63.6363 11.1915 61.3276 9.50796 59.3C7.79183 57.2398 7.26328 54.0415 6.64339 51.2488C5.84079 47.6385 6.03002 43.9562 7.02838 40.359C7.50472 38.6323 8.69883 37.7755 10.0757 38.1287C11.5699 38.5146 12.1964 39.7965 11.7396 41.654C10.8065 45.4605 10.9696 49.2409 12.0136 53.1128C12.2616 52.9689 12.4574 52.9035 12.5879 52.7727C15.7069 49.6856 19.3676 47.4815 23.4524 45.9183C26.7998 44.6364 29.3446 42.3865 30.8585 39.0967C32.816 34.8323 31.1586 31.778 26.4866 31.6668C24.1244 31.6079 21.7297 32.5563 19.361 33.1057C18.8455 33.2234 18.3823 33.5831 17.8798 33.7924C16.5552 34.3418 15.5112 33.9232 14.7869 32.759C14.1017 31.6668 14.4671 30.1559 15.6678 29.4823C19.994 27.0688 24.5682 25.9047 29.5143 27.1473C31.9351 27.7556 33.8731 29.0637 35.3021 31.1566C35.5632 31.536 36.2418 31.8761 36.6855 31.8303C46.0361 30.895 50.519 38.3642 50.9627 44.3486C51.3477 49.4829 49.9904 54.205 47.5369 58.6591C47.3803 58.9468 47.2433 59.3458 46.9888 59.4635C45.0704 60.353 44.9921 62.4198 44.0264 63.9176C42.2254 66.7038 40.2222 69.3526 38.3494 72.0996C37.9514 72.6817 37.5664 73.4077 37.5403 74.0814C37.4555 76.1547 36.8225 78.7054 37.7752 80.1836C38.7148 81.6355 41.3837 81.8972 43.1977 82.8652C45.6511 84.1798 47.6674 84.6899 50.0296 82.2896C51.4586 80.8311 53.8468 80.2817 55.8501 79.4249C59.6608 77.7963 63.4976 76.2135 67.3475 74.6831C68.3132 74.3037 68.6721 73.8132 68.633 72.7667C68.5481 70.5234 68.6721 68.2735 68.5677 66.0366C68.5351 65.3695 68.1305 64.6435 67.6999 64.0942C66.819 62.9823 65.7553 62.0208 64.8679 60.9155C63.6869 59.4505 63.7782 57.9265 64.9854 57.0174C66.186 56.1083 67.478 56.383 68.6721 57.8153C69.0963 58.319 69.5008 58.8357 69.9445 59.3196C75.5367 65.3892 83.6932 65.3957 89.1939 59.2281C93.9965 53.8388 95.8692 47.2787 96.1433 40.2151C96.1759 39.3714 95.4059 38.3642 94.7665 37.6447C93.3374 36.0292 91.7583 34.538 90.2249 33.0141C89.9835 32.7721 89.6638 32.5301 89.3375 32.4516C87.2429 31.9742 85.1353 31.536 82.8123 31.0389C80.5872 34.0475 77.3963 36.2974 73.305 36.7879C71.1974 37.043 69.416 37.4681 67.8565 39.0378C66.969 39.9273 65.6183 40.3655 64.4568 40.9672C63.3997 41.5166 62.943 42.2819 63.2366 43.5049C63.5694 44.8849 63.8043 46.2911 64.0523 47.6842C64.3524 49.3782 63.6934 50.5686 62.31 50.8956C60.8875 51.2357 59.6673 50.3593 59.2236 48.6849C59.1975 48.5803 59.1779 48.4691 59.1714 48.3644C58.9039 45.9183 57.9708 44.0085 55.9218 42.3473C53.0181 39.9927 52.3656 36.4282 52.3134 32.831C52.2873 31.1108 51.9676 29.6131 51.1128 28.0434C47.4913 21.3656 50.9105 13.0658 58.1274 10.7243C59.1062 10.4039 59.7391 9.98528 60.2285 8.97806C62.5841 4.11853 68.4959 2.4311 73.2398 5.09959C73.7683 5.39391 74.5905 5.6032 75.106 5.41353C80.5154 3.39908 85.331 4.83144 88.6393 9.54054C88.7959 9.75637 88.9525 9.9722 88.9133 9.91988C90.9688 9.78253 92.8415 9.35086 94.6099 9.60594C99.3341 10.2861 102.525 14.2627 102.401 19.0699C102.375 20.0641 102.616 20.6069 103.465 21.1694C106.845 23.4128 108.248 27.2847 107.145 31.2351C106.062 35.1136 104.58 38.7762 101.527 41.6278C101.031 42.0922 100.952 43.1059 100.848 43.8843C99.9932 50.2285 97.9704 56.1083 94.0226 61.2229C93.7877 61.5238 93.5919 61.89 93.2853 62.0993C90.7404 63.8652 90.2249 66.3506 90.5708 69.2415C90.76 70.8504 90.1727 72.8452 90.9296 74.016C91.6474 75.1213 93.6507 75.4091 95.1123 76.0173C98.016 77.2208 100.933 78.398 104.052 79.6734C104.052 77.7767 104.052 76.1481 104.052 74.513C104.052 67.7764 104.065 61.0398 104.052 54.3097C104.039 48.8484 105.514 43.8385 108.528 39.2864C109.592 37.6839 110.962 37.2784 112.248 38.1614C113.468 38.9986 113.67 40.3917 112.665 41.9221C110.029 45.938 108.913 50.3396 108.959 55.1338C109.037 63.6232 108.978 72.1062 108.985 80.5956C108.985 82.924 111.465 84.6311 113.546 83.7612C115.817 82.8194 118.081 81.871 120.365 80.9815C121.174 80.6676 121.494 80.249 121.552 79.3202C121.69 77.0573 121.174 75.2456 119.621 73.4012C115.804 68.8687 113.592 63.5448 113.246 57.5472C113.096 54.9899 113.709 54.2704 116.221 53.708C117.924 53.3286 119.641 53.0016 121.324 52.5438C127.791 50.7779 132.025 46.6639 134.009 40.2478C134.988 37.0757 136.267 36.5067 139.164 38.1679C144.508 41.2419 147.099 46.1342 148.019 52.0336C149.363 60.6343 146.551 68.0184 141.03 74.4542C139.438 76.3116 140.195 78.2542 140.104 80.1967C140.097 80.3667 140.423 80.6283 140.652 80.7199C144.567 82.3485 148.482 83.9639 152.528 85.6317C152.56 84.9842 152.593 84.5591 152.593 84.134C152.593 74.2253 152.619 64.31 152.593 54.4013C152.56 43.4003 145.135 34.4857 134.335 32.5759C130.048 31.8172 125.846 32.3731 121.846 34.1717C121.5 34.3287 121.168 34.5249 120.809 34.6623C119.367 35.2117 118.081 34.7473 117.487 33.485C116.9 32.2292 117.357 30.9146 118.766 30.2017C122.844 28.1415 127.177 27.1931 131.745 27.3893C146.264 28.0107 157.441 39.6265 157.506 54.2312C157.559 65.6181 157.506 77.0115 157.546 88.3983C157.546 89.3401 157.918 90.282 158.107 91.2303C158.4 92.7215 158.825 94.2062 158.929 95.7171C159.073 97.6792 158.844 99.6675 158.994 101.63C159.262 105.175 157.95 107.673 154.59 108.994H4.43786V109.001ZM100.3 35.8134C101.044 33.6551 101.97 31.5556 102.473 29.3645C102.982 27.1408 101.585 25.2768 99.3798 24.6685C96.711 23.936 96.2738 23.0792 97.2069 20.3976C97.9051 18.3897 97.2787 16.3556 95.5887 15.1784C93.8529 13.9684 91.7061 14.1515 90.0292 15.6427C87.7127 17.7095 86.0357 17.1863 85.2788 14.1711C84.1956 9.85447 79.7258 8.14088 76.026 10.6197C74.1142 11.9016 73.3964 11.8362 71.7651 10.2404C69.1028 7.63727 65.0311 8.69682 64.2415 12.3071C63.8304 14.1777 62.9169 14.8971 61.0507 15.1195C55.7391 15.7605 52.7897 21.6599 55.6739 26.1009C56.868 27.9322 57.2726 29.6785 57.2138 31.7518C57.1747 33.0533 57.2791 34.3941 57.5988 35.6499C57.8859 36.7879 58.5515 37.8278 58.9495 38.6912C60.8484 37.5597 62.4797 36.6898 63.987 35.6433C64.8353 35.0547 65.6509 34.2829 66.173 33.4065C66.9299 32.1442 67.863 31.6602 69.279 31.8564C74.473 32.5693 77.7226 30.7249 79.9542 25.8327C80.9526 23.6417 82.9036 23.3212 84.4566 25.1656C86.0879 27.1081 88.0324 27.8929 90.5512 27.2912C92.3782 26.853 93.1547 27.4809 93.9834 29.201C94.5838 30.4437 95.4059 31.6341 96.3652 32.6217C97.4483 33.7401 98.7991 34.61 100.306 35.8069L100.3 35.8134ZM138.185 43.4788C134.388 52.3999 127.497 57.0043 118.133 58.2797C119.223 64.4277 121.748 69.5162 126.349 73.4142C129.559 76.1351 132.143 76.1743 135.223 73.3031C141.252 67.6914 144.391 60.8632 143.06 52.4522C142.512 48.9858 141.141 45.8922 138.179 43.4722L138.185 43.4788ZM11.446 88.9477C15.1588 93.925 18.6563 98.6668 22.2321 103.35C22.5519 103.768 23.3153 104.023 23.8765 104.036C26.7672 104.102 29.6578 104.135 32.5485 104.023C33.2989 103.997 34.232 103.585 34.7279 103.036C37.6447 99.7852 40.5158 96.4888 43.276 93.1074C44.1764 92.0021 44.705 90.5828 45.4945 89.1309C42.0884 87.7247 39.139 86.482 36.157 85.3178C35.8111 85.1805 35.2238 85.3701 34.8715 85.599C30.467 88.4245 26.082 88.4245 21.6644 85.6252C21.3056 85.3963 20.7248 85.1739 20.3855 85.3047C17.4557 86.4427 14.5585 87.6658 11.446 88.9477ZM30.0754 48.129C27.8177 49.1885 25.2729 50.1892 22.9369 51.5431C20.5486 52.9297 18.317 54.6105 16.1245 56.298C15.6939 56.6315 15.4394 57.6584 15.596 58.2274C16.901 62.9365 19.3937 66.9327 23.2501 69.974C26.8781 72.8387 29.6839 72.8256 33.3054 69.9609C36.9269 67.0962 39.2173 63.3093 40.7833 58.9992C41.2597 57.6911 40.966 56.8735 39.9416 56.0625C36.6202 53.4267 33.3315 50.7452 30.082 48.129H30.0754ZM83.778 104.01C84.822 95.4162 87.8432 87.6069 92.9916 80.5302C92.1499 80.1639 91.3799 79.8958 90.6817 79.5034C89.4223 78.8036 88.4566 78.9147 87.1711 79.7781C82.61 82.8324 77.6573 83.1595 72.9788 80.3275C70.7993 79.0063 69.1354 78.8624 67.1191 80.0855C66.8451 80.2555 66.5319 80.3667 66.1142 80.5695C71.1843 87.6004 74.2055 95.4031 75.23 104.004H83.778V104.01ZM97.755 82.4269C92.7893 88.8692 89.7812 95.9591 88.8024 103.938H109.546C109.546 99.8244 109.637 95.8348 109.513 91.8517C109.435 89.2159 108.15 87.0706 105.781 85.8868C103.21 84.5984 100.496 83.5911 97.755 82.4269ZM70.2382 104.004C69.2529 96.3515 66.558 89.5821 62.1273 83.493C61.6836 82.8782 61.3182 82.4204 60.4177 82.8259C58.284 83.7939 56.085 84.618 53.9447 85.5663C51.6283 86.5866 49.9578 88.4114 49.8012 90.8772C49.5337 95.2134 49.7294 99.5824 49.7294 103.997H70.2382V104.004ZM135.869 104.069C141.683 104.069 147.19 104.056 152.697 104.082C153.709 104.082 154.035 103.605 154.029 102.676C154.009 100.322 154.029 97.9735 154.015 95.619C153.996 92.9112 152.671 91.0734 150.218 90.04C147.203 88.7777 144.175 87.5415 141.148 86.3054C140.821 86.1746 140.463 86.1092 139.967 85.9784C139.817 92.2703 139.242 98.3332 135.875 104.069H135.869ZM126.368 79.2745C126.629 87.535 125.709 95.6255 130.766 102.84C135.784 95.5339 134.877 87.4631 135.079 79.2745C132.097 80.6937 129.344 80.6152 126.368 79.2745ZM125.611 104.01C122.185 98.3071 121.774 92.1656 121.474 85.841C118.858 86.9268 116.509 87.8947 114.44 88.7515V104.01H125.611ZM44.6006 53.3809C45.7947 50.5489 46.3428 47.6319 46.0557 44.5841C45.5989 39.7573 42.1602 36.5001 37.8796 36.716C36.8813 36.7683 36.5028 37.1476 36.2548 38.1156C35.8764 39.5807 35.4914 41.1438 34.6627 42.3669C33.6447 43.8712 34.0624 44.8457 35.126 45.9052C35.5893 46.3631 36.0264 46.8667 36.5419 47.2657C39.1716 49.2866 41.8208 51.2815 44.5941 53.3875L44.6006 53.3809ZM73.5465 67.7175C73.5465 70.0721 73.5073 72.1454 73.5791 74.2122C73.5921 74.6242 73.9184 75.1213 74.2512 75.4025C77.0831 77.7963 82.0032 77.8094 84.8938 75.4352C85.2397 75.154 85.6312 74.6765 85.6442 74.2776C85.716 72.165 85.6768 70.0394 85.6768 67.7241C81.5986 69.0322 77.6834 69.1106 73.5399 67.7175H73.5465ZM16.5617 104.056C13.2469 99.6086 10.1344 95.4293 6.66296 90.766C6.01697 92.3553 5.21437 93.5391 5.10344 94.7883C4.87505 97.4503 4.95988 100.145 5.03166 102.826C5.04471 103.245 5.6385 103.997 5.97782 104.004C9.3905 104.095 12.8097 104.056 16.5682 104.056H16.5617ZM32.5942 76.1089C29.6252 77.3516 26.8716 77.2927 23.9417 76.1416C23.9417 77.2404 23.9417 78.0449 23.9417 78.8559C23.9417 81.4655 24.777 82.4858 27.3936 82.6689C28.4963 82.7474 29.6644 82.525 30.7475 82.2373C32.0852 81.8841 32.8226 81.0077 32.6203 79.4576C32.4898 78.4438 32.5942 77.3974 32.5942 76.1023V76.1089ZM44.6528 99.1115C43.1128 100.91 41.8665 102.362 40.5223 103.932H44.6528V99.1115Z" fill="#595959"/>
</g>
<defs>
<clipPath id="clip0_852_4353">
<rect width="159" height="109" fill="white"/>
</clipPath>
</defs>
</svg>
