<svg width="95" height="95" viewBox="0 0 95 95" fill="none" xmlns="http://www.w3.org/2000/svg">
<g clip-path="url(#clip0_852_4359)">
<path d="M50.3189 -0.000652313C52.2178 0.247948 54.1306 0.419876 56.0132 0.754441C74.585 4.04432 89.9275 18.6885 93.9605 37.0105C94.4428 39.2061 94.6851 41.4574 94.9647 43.6925C95.1255 44.982 94.6735 45.6395 93.7765 45.7162C92.8422 45.7952 92.2946 45.1655 92.1921 43.8505C91.9242 40.4166 91.2392 37.0709 90.1861 33.7903C90.023 33.2838 89.8156 33.1096 89.2611 32.9934C86.0528 32.3243 82.8096 31.7411 79.6781 30.7955C76.1833 29.7407 73.1427 25.712 74.2658 21.4347C74.6246 20.0709 74.4661 18.7442 74.0164 17.4269C73.3338 15.4358 72.6744 13.4447 73.0099 11.277C73.0449 11.0516 72.756 10.6822 72.5183 10.5219C66.9405 6.76033 60.8221 4.34171 54.1609 3.38449C44.1749 1.94633 34.7364 3.64703 25.8827 8.49821C25.7755 8.55862 25.6637 8.61438 25.5635 8.68408C25.5146 8.71661 25.482 8.77469 25.4214 8.84439C27.2504 9.6808 29.0025 10.5265 31.146 10.4196C34.3007 10.2616 37.4694 10.3778 40.6311 10.3825C40.9386 10.3825 41.2672 10.3662 41.5514 10.4568C42.255 10.6822 42.6115 11.191 42.5183 11.9438C42.4251 12.7081 41.9102 13.1287 41.1973 13.1333C37.0127 13.1589 32.8259 13.1542 28.6413 13.1194C28.1987 13.1147 27.749 12.8777 27.3226 12.7058C26.2905 12.2876 25.207 11.9484 24.2564 11.3862C22.8678 10.5637 21.7914 10.7937 20.6451 11.8508C19.1702 13.21 17.5859 14.4507 16.0062 15.775C16.6795 16.479 17.2713 17.0644 17.8259 17.6825C19.9717 20.0639 20.5123 22.7822 19.0631 25.64C18.3058 27.1339 18.3408 28.3304 19.0957 29.757C20.0323 31.5274 20.7942 33.393 21.577 35.2401C21.81 35.7884 22.1083 35.9604 22.6861 35.9487C24.359 35.9116 26.0342 35.9278 27.7094 35.9395C29.6246 35.9534 30.5542 36.7131 30.9643 38.5602C31.6376 41.6038 32.3343 44.6451 32.9727 47.6957C33.0915 48.2602 33.3454 48.5251 33.8627 48.7226C37.3063 50.0237 40.7872 51.2411 44.1586 52.7095C47.6138 54.215 49.4428 57.8186 49.0724 61.5824C48.9372 62.9602 48.9582 64.3658 49.0328 65.7505C49.1213 67.4048 50.0999 68.4642 51.619 69.0427C52.9214 69.5376 54.2285 70.0093 55.5356 70.4925C57.3692 71.1686 57.7746 71.9725 57.968 73.8777C58.3571 77.7182 57.2108 81.2148 55.7639 84.6371C54.8273 86.8536 55.0719 89.105 55.0346 91.5236C56.5957 91.1449 58.1148 91.2889 59.2844 89.8345C63.0845 85.1088 66.9894 80.4644 70.9177 75.8432C72.0523 74.5073 72.6767 73.0552 72.4787 71.3521C72.1735 68.7175 73.1241 67.0168 75.7522 66.2617C76.6912 65.9922 77.5812 65.4996 78.4456 65.0256C79.3426 64.5331 79.8459 63.7245 79.8972 62.6907C79.9461 61.7357 79.4731 61.1084 78.5435 61.2176C75.9712 61.5243 74.5943 60.2627 73.66 58.0393C72.9563 56.3641 71.9778 54.8075 71.1646 53.1765C70.2397 51.3271 68.7858 50.421 66.7028 50.4489C64.2541 50.4814 61.8054 50.4698 59.3543 50.4489C58.3757 50.4419 57.5556 50.7486 56.8007 51.3712C54.2984 53.4413 52.0966 53.5784 49.3124 51.8731C47.1991 50.5813 45.1045 49.2616 42.975 48C41.8193 47.3146 41.2741 46.3551 41.2905 45.0261C41.3114 43.5415 41.2718 42.0569 41.3021 40.5746C41.3417 38.6346 42.3599 37.6309 44.317 37.5867C45.4936 37.5612 46.6726 37.5983 47.8492 37.5728C49.1096 37.5472 50.0486 38.07 50.7383 39.1085C51.0272 39.5453 51.372 39.9449 51.7564 40.4491C51.9615 40.1192 52.1479 39.8543 52.2993 39.5732C53.9908 36.4483 55.6987 33.3326 57.3529 30.1891C58.0309 28.8997 59.0071 28.2514 60.475 28.3049C61.3976 28.3397 62.3249 28.3119 63.385 28.3119C63.385 27.0642 63.385 25.9025 63.385 24.7408C63.385 22.5244 63.7671 21.911 65.7872 20.9909C63.2685 19.3274 60.8082 17.6708 58.3128 16.07C57.1176 15.3033 55.8874 14.5715 54.6106 13.9535C52.8608 13.1078 50.9456 13.1473 49.0491 13.1635C48.5528 13.1682 48.0495 13.2007 47.5626 13.131C46.7914 13.0218 46.3091 12.5316 46.3231 11.7509C46.3347 10.9772 46.803 10.4498 47.5929 10.408C51.2275 10.2198 54.7713 10.4382 57.9424 12.5687C60.9992 14.6226 64.1096 16.5951 67.2038 18.5955C68.2266 19.2577 68.9652 20.0848 68.8068 21.3929C68.6483 22.6963 67.933 23.5118 66.6096 23.8161C66.4186 23.8603 66.2066 24.3087 66.1973 24.5759C66.153 25.7794 66.1973 26.9875 66.1716 28.1934C66.1343 29.9731 65.1371 30.993 63.3431 31.0836C62.5393 31.1231 61.7285 31.1347 60.927 31.0836C60.2863 31.0418 59.9298 31.2625 59.6246 31.841C57.9354 35.038 56.2089 38.214 54.4871 41.3924C53.1497 43.8598 50.8874 44.0805 49.3124 41.7874C48.5318 40.6512 47.6791 40.161 46.3301 40.3469C45.6381 40.4421 44.9205 40.3631 44.0933 40.3631C44.0933 41.9988 44.07 43.5322 44.1166 45.0656C44.1236 45.298 44.4102 45.5907 44.6432 45.7371C46.7681 47.0684 48.9 48.3857 51.0505 49.6775C52.4577 50.5232 53.5575 50.4883 54.8063 49.4103C56.3021 48.1162 57.9913 47.6143 59.9391 47.6631C62.262 47.7189 64.5896 47.6748 66.9149 47.6771C69.8855 47.6794 72.0803 48.9898 73.4736 51.6012C74.564 53.6458 75.6357 55.6997 76.6795 57.7674C76.9219 58.2484 77.2108 58.4412 77.7513 58.4203C78.3664 58.3971 79.0048 58.3924 79.5989 58.5295C81.8217 59.0499 83.1124 61.2176 82.6185 63.534C82.2131 65.4345 81.153 66.8518 79.3916 67.7021C78.4177 68.1738 77.4391 68.6501 76.4233 69.0172C75.5472 69.3331 75.0905 69.7862 75.2676 70.7713C75.3445 71.1895 75.2536 71.6356 75.2653 72.0678C75.3165 74.1193 74.5593 75.8362 73.2429 77.3906C70.1628 81.0266 67.1339 84.7068 64.084 88.3685C63.893 88.5985 63.7136 88.8355 63.5295 89.0701C63.5738 89.1398 63.6157 89.2072 63.66 89.2769C65.4843 88.401 67.3645 87.6273 69.1236 86.6329C79.6152 80.7083 86.8007 72.0352 90.3841 60.5439C91.2881 57.6466 91.5957 54.5659 92.1712 51.5687C92.2178 51.3271 92.2061 51.0738 92.2527 50.8322C92.4391 49.875 93.0029 49.4103 93.8371 49.5102C94.6129 49.6008 95.0812 50.1677 94.9904 51.118C94.8296 52.8071 94.6991 54.5124 94.3589 56.1713C91.1507 71.8191 82.3739 83.2617 68.0262 90.341C60.5402 94.0351 52.5346 95.5779 44.2098 94.8042C25.0882 93.0268 11.591 83.2106 3.71822 65.8388C0.234998 58.1601 -0.615421 49.9795 0.400422 41.6154C1.6912 30.993 6.13901 21.8668 13.674 14.2904C20.3608 7.56654 28.406 3.18003 37.6931 1.15174C39.8343 0.68474 42.036 0.494224 44.2075 0.1736C44.5104 0.129456 44.8086 0.0574318 45.1092 -0.000652313C46.845 -0.000652313 48.5808 -0.000652313 50.3189 -0.000652313ZM14.1702 17.945C2.23407 30.9791 -1.50545 51.9219 8.73453 69.7026C19.0095 87.5437 38.1055 93.7726 52.1945 91.8558C52.2084 91.5933 52.2574 91.3168 52.2294 91.0473C51.8986 87.7342 52.6022 84.6093 53.9 81.5842C54.0211 81.3008 54.084 80.9918 54.2238 80.7176C55.4097 78.371 55.1651 75.8595 55.1185 73.3177C53.5808 72.7462 52.0384 72.2002 50.5169 71.6007C48.0612 70.6366 46.5514 68.8476 46.2695 66.2245C46.1087 64.7282 46.153 63.1925 46.2695 61.687C46.5398 58.2019 45.1791 55.9575 41.9055 54.7169C38.8114 53.5436 35.7243 52.3494 32.6138 51.2202C31.3207 50.7509 30.5658 49.9307 30.3142 48.5809C30.0766 47.3077 29.7644 46.0484 29.4824 44.7822C29.0351 42.7748 28.5877 40.7674 28.1334 38.7228C26.2462 38.7228 24.4498 38.6787 22.6558 38.7368C20.892 38.7949 19.7294 38.1048 19.0514 36.439C18.1893 34.3247 17.3179 32.1988 16.2345 30.1938C15.2397 28.3537 15.3235 26.7134 16.3277 24.9546C16.6982 24.3087 16.9219 23.5188 16.9918 22.773C17.1991 20.5216 15.5356 19.3204 14.1702 17.9473V17.945ZM75.9526 13.045C75.8548 13.0752 75.7592 13.1078 75.6614 13.138C75.9689 14.1928 76.2485 15.2569 76.591 16.3001C77.2201 18.2099 77.4647 20.1081 76.9708 22.1131C76.3021 24.8291 77.9028 27.2617 80.6171 28.1771C83.1777 29.0391 85.8944 29.441 88.5435 30.0381C88.5761 30.0451 88.6274 29.9731 88.7112 29.908C85.8105 23.2678 81.5467 17.6569 75.9503 13.0474L75.9526 13.045Z" fill="#595959"/>
</g>
<defs>
<clipPath id="clip0_852_4359">
<rect width="95" height="95" fill="white"/>
</clipPath>
</defs>
</svg>
