<svg width="101" height="101" viewBox="0 0 101 101" fill="none" xmlns="http://www.w3.org/2000/svg">
<g clip-path="url(#clip0_852_4330)">
<path d="M44.2627 66.1938C45.3513 61.5947 46.3055 57.5374 47.2788 53.4801C48.6748 47.6296 50.0901 41.7791 51.4989 35.9351C51.5949 35.548 51.7358 35.1675 51.8191 34.774C52.1969 33.0582 53.2535 32.2003 54.9376 32.7099C56.513 33.1872 56.7947 34.445 56.4169 36.006C54.3357 44.5786 52.3057 53.164 50.2501 61.7495C49.8595 63.3879 49.6802 65.1488 48.931 66.6001C48.5147 67.4064 47.0867 68.1676 46.1774 68.0966C45.4218 68.0386 44.7622 66.7356 44.2691 66.2002L44.2627 66.1938Z" fill="#595959"/>
<path d="M34.1513 50.3452C36.6296 52.8286 38.9349 55.1443 41.2594 57.4471C42.4825 58.6597 43.5648 60.0272 42.0535 61.5753C40.4526 63.2201 39.0566 62.1171 37.7822 60.8077C35.1567 58.1114 32.4672 55.4732 29.8353 52.777C27.9526 50.8483 27.927 49.9775 29.7456 48.1134C32.4864 45.301 35.2784 42.5402 38.0256 39.7408C39.2103 38.5346 40.5102 37.7541 41.9574 39.1473C43.4111 40.5471 42.7195 41.8952 41.4964 43.095C39.1014 45.4494 36.7192 47.8102 34.1513 50.3387V50.3452Z" fill="#595959"/>
<path d="M66.4964 50.429C63.7557 47.7392 61.4183 45.4365 59.0617 43.1466C57.8515 41.9726 57.0574 40.6696 58.479 39.2054C59.8814 37.767 61.2134 38.4636 62.4109 39.6763C65.2285 42.5209 68.0397 45.372 70.883 48.1972C72.3558 49.6615 72.4198 51.0612 70.915 52.5577C68.0141 55.4345 65.1389 58.3372 62.27 61.2463C61.1045 62.4267 59.7918 62.8976 58.5046 61.6334C57.1855 60.3497 57.6786 59.0145 58.8568 57.8599C61.3158 55.4668 63.7749 53.0737 66.4964 50.4226V50.429Z" fill="#595959"/>
<path d="M85.8804 45.1849C83.3765 27.3045 67.6683 13.9973 49.7059 14.3779C32.1726 14.752 16.9575 28.7364 14.9723 45.7977C12.7503 64.9166 25.6921 83.9452 47.5095 86.5125C48.2331 86.5899 49.04 86.635 49.9109 86.6286C50.8202 86.6286 51.6591 86.5641 52.4019 86.4738C64.3256 85.3449 73.7966 80.075 80.4052 70.064C85.3937 62.5106 87.1291 54.1187 85.874 45.1849H85.8804ZM50.4872 81.5521C33.3957 81.5457 19.5189 67.5741 19.5254 50.3968C19.5318 33.2452 33.4854 19.2028 50.5064 19.2028C67.521 19.2028 81.4746 33.2646 81.4746 50.4161C81.4746 67.5742 67.5594 81.565 50.4872 81.5521Z" fill="#595959"/>
<path d="M27.3699 9.59171C28.1383 10.3658 29.3166 10.5528 30.2836 10.0561C36.1429 7.02446 42.6811 5.23771 49.501 5.08935C72.0868 4.61202 91.8294 21.3378 94.98 43.8174C96.3184 53.3833 94.9288 62.4526 90.6127 70.7993C90.1068 71.7798 90.2861 72.9731 91.061 73.7536C92.2649 74.9663 94.2884 74.6502 95.0697 73.1279C99.8852 63.8329 101.435 53.7252 99.9429 43.0692C96.4529 18.0804 74.501 -0.522481 49.3922 0.0129006C41.7974 0.17416 34.5164 2.16733 28.0039 5.54732C26.4862 6.33427 26.1724 8.37904 27.3763 9.59171H27.3699Z" fill="#595959"/>
<path d="M73.8671 91.1632C73.105 90.3956 71.9396 90.2021 70.979 90.6923C65.5871 93.4402 59.5484 95.0979 52.9014 95.73C51.9601 95.8462 50.9163 95.9171 49.77 95.9236C48.6686 95.9236 47.6568 95.8719 46.7475 95.7752C19.3205 92.5436 3.04229 68.6256 5.8407 44.585C6.44905 39.3537 8.05638 34.3547 10.445 29.7685C10.9508 28.7945 10.7651 27.6012 9.99029 26.8207H9.98389C8.7864 25.6015 6.76924 25.9176 5.97518 27.4334C3.31124 32.5357 1.52461 38.1024 0.845824 43.9271C-2.25997 70.651 15.8305 97.2459 46.3248 100.839C47.3366 100.948 48.4572 101.013 49.6804 101.006C50.9547 101 52.1202 100.916 53.164 100.794C60.5346 100.097 67.2265 98.265 73.2075 95.2269C74.738 94.4464 75.071 92.3952 73.8607 91.1696L73.8671 91.1632Z" fill="#595959"/>
<path d="M91.5221 80.8555C94.935 80.8555 97.7016 78.0686 97.7016 74.6309C97.7016 71.1931 94.935 68.4062 91.5221 68.4062C88.1092 68.4062 85.3425 71.1931 85.3425 74.6309C85.3425 78.0686 88.1092 80.8555 91.5221 80.8555Z" fill="#595959"/>
<path d="M10.5475 31.1747C13.9604 31.1747 16.727 28.3878 16.727 24.9501C16.727 21.5123 13.9604 18.7254 10.5475 18.7254C7.1346 18.7254 4.36792 21.5123 4.36792 24.9501C4.36792 28.3878 7.1346 31.1747 10.5475 31.1747Z" fill="#595959"/>
</g>
<defs>
<clipPath id="clip0_852_4330">
<rect width="100" height="101" fill="white" transform="translate(0.5)"/>
</clipPath>
</defs>
</svg>
