<svg width="24" height="24" viewBox="0 0 24 24" fill="none" xmlns="http://www.w3.org/2000/svg">
<path d="M12.0007 8.75005C10.2057 8.75005 8.75067 10.2051 8.75067 12C8.75067 13.795 10.2057 15.25 12.0007 15.25C13.7956 15.25 15.2507 13.795 15.2507 12C15.2507 10.2051 13.7956 8.75005 12.0007 8.75005Z" fill="#595959"/>
<path fill-rule="evenodd" clip-rule="evenodd" d="M6.77021 3.08151C10.2183 2.69614 13.783 2.69614 17.2312 3.08151C19.1296 3.29369 20.6607 4.78947 20.8836 6.69452C21.2958 10.2195 21.2958 13.7806 20.8836 17.3056C20.6607 19.2106 19.1296 20.7064 17.2312 20.9186C13.783 21.304 10.2183 21.304 6.77021 20.9186C4.87181 20.7064 3.34062 19.2106 3.1178 17.3056C2.70552 13.7806 2.70552 10.2195 3.1178 6.69452C3.34062 4.78947 4.87181 3.29369 6.77021 3.08151ZM17.0007 6.00005C16.4484 6.00005 16.0007 6.44776 16.0007 7.00005C16.0007 7.55233 16.4484 8.00005 17.0007 8.00005C17.553 8.00005 18.0007 7.55233 18.0007 7.00005C18.0007 6.44776 17.553 6.00005 17.0007 6.00005ZM7.25067 12C7.25067 9.37669 9.37732 7.25005 12.0007 7.25005C14.624 7.25005 16.7507 9.37669 16.7507 12C16.7507 14.6234 14.624 16.75 12.0007 16.75C9.37732 16.75 7.25067 14.6234 7.25067 12Z" fill="#595959"/>
</svg>
