<svg width="25" height="24" viewBox="0 0 25 24" fill="none" xmlns="http://www.w3.org/2000/svg">
<path d="M22.717 6.22724C22.775 6.14647 22.6894 6.04218 22.5967 6.07811C21.9379 6.33344 21.2495 6.50571 20.5473 6.5906C21.3292 6.12348 21.9325 5.4124 22.2671 4.57053C22.3012 4.48477 22.2076 4.40819 22.1268 4.4528C21.4001 4.85414 20.6163 5.14313 19.8021 5.30957C19.7681 5.31654 19.7329 5.30494 19.709 5.27969C19.098 4.63502 18.2938 4.20578 17.4171 4.05745C16.5219 3.90601 15.6018 4.05596 14.801 4.48379C14.0003 4.91162 13.3642 5.59313 12.9925 6.42144C12.6391 7.209 12.5437 8.08691 12.718 8.93003C12.7316 8.99545 12.6804 9.05721 12.6137 9.05307C11.0296 8.95469 9.48192 8.53336 8.06591 7.81446C6.6535 7.09739 5.40277 6.09983 4.38989 4.8833C4.34494 4.82931 4.25974 4.83629 4.22699 4.89845C3.91182 5.49651 3.74681 6.16311 3.74725 6.8406C3.74597 7.51498 3.91147 8.17922 4.22901 8.77416C4.54655 9.36911 5.00627 9.87631 5.56725 10.2506C4.97233 10.2344 4.389 10.0873 3.8585 9.82067C3.79014 9.78631 3.70813 9.83524 3.71168 9.91167C3.75305 10.8009 4.07951 11.6936 4.64457 12.3786C5.24589 13.1074 6.08051 13.6062 7.00725 13.7906C6.65051 13.8992 6.28013 13.9564 5.90725 13.9606C5.70431 13.9582 5.50177 13.9433 5.30079 13.9158C5.22627 13.9056 5.16542 13.9764 5.19151 14.0469C5.46793 14.7944 5.95625 15.4467 6.59833 15.9228C7.28478 16.4318 8.11283 16.7142 8.96726 16.7306C7.52446 17.8659 5.74314 18.4855 3.90725 18.4906C3.71861 18.4912 3.53005 18.4851 3.34194 18.4723C3.23593 18.4651 3.18717 18.6063 3.27855 18.6605C5.06732 19.7221 7.11184 20.2831 9.19725 20.2806C10.7369 20.2966 12.2644 20.0056 13.6904 19.4247C15.1163 18.8437 16.4123 17.9845 17.5025 16.8971C18.5926 15.8097 19.4552 14.516 20.0398 13.0915C20.6244 11.667 20.9193 10.1403 20.9073 8.6006V8.12077C20.9073 8.0892 20.9222 8.05951 20.9474 8.04048C21.6257 7.52834 22.2222 6.91691 22.717 6.22724Z" fill="#595959"/>
</svg>
