<svg width="27" height="18" viewBox="0 0 27 18" fill="none" xmlns="http://www.w3.org/2000/svg">
<path d="M25.716 2.83C25.5666 2.28713 25.2746 1.79204 24.8692 1.39402C24.4637 0.996005 23.9589 0.708934 23.405 0.561383C21.351 0.00900173 13.1341 9.7585e-06 13.1341 9.7585e-06C13.1341 9.7585e-06 4.91839 -0.00898272 2.86316 0.518991C2.30958 0.673332 1.8058 0.964463 1.40019 1.36444C0.994578 1.76441 0.700755 2.25979 0.546927 2.80302C0.00524843 4.81472 1.92164e-06 8.98712 1.92164e-06 8.98712C1.92164e-06 8.98712 -0.00524437 13.1801 0.532499 15.1712C0.83416 16.2721 1.71947 17.1418 2.8448 17.4386C4.9197 17.9909 13.1144 17.9999 13.1144 17.9999C13.1144 17.9999 21.3314 18.0089 23.3853 17.4822C23.9394 17.3349 24.4447 17.0485 24.8512 16.6513C25.2576 16.2541 25.5512 15.7599 25.7028 15.2175C26.2458 13.2071 26.2498 9.03594 26.2498 9.03594C26.2498 9.03594 26.276 4.84169 25.716 2.83ZM10.5057 12.8525L10.5122 5.14486L17.3416 9.00511L10.5057 12.8525Z" fill="#595959"/>
</svg>
