<svg width="36" height="32" viewBox="0 0 36 32" fill="none" xmlns="http://www.w3.org/2000/svg">
<g clip-path="url(#clip0_360_2423)">
<path d="M9.92736 3.85082L10.6633 1.95114C10.7874 1.62951 11.0057 1.35285 11.2897 1.15741C11.5737 0.961967 11.9101 0.856853 12.2549 0.855835H13.6583C14.003 0.856853 14.3394 0.961967 14.6234 1.15741C14.9074 1.35285 15.1258 1.62951 15.2499 1.95114L15.9858 3.85082L18.4845 5.28842L20.5039 4.98036C20.8402 4.93472 21.1825 4.99007 21.4872 5.13939C21.7919 5.28871 22.0454 5.52525 22.2154 5.81896L22.8999 7.01695C23.0754 7.31534 23.1562 7.6599 23.1317 8.00516C23.1073 8.35043 22.9787 8.68017 22.763 8.95086L21.5137 10.5425V13.4177L22.7973 15.0093C23.013 15.28 23.1415 15.6097 23.166 15.955C23.1904 16.3003 23.1096 16.6448 22.9342 16.9432L22.2496 18.1412C22.0796 18.4349 21.8262 18.6714 21.5214 18.8208C21.2167 18.9701 20.8744 19.0254 20.5382 18.9798L18.5187 18.6717L16.02 20.1093L15.2841 22.009C15.16 22.3306 14.9416 22.6073 14.6576 22.8027C14.3736 22.9982 14.0372 23.1033 13.6925 23.1043H12.2549C11.9101 23.1033 11.5737 22.9982 11.2897 22.8027C11.0057 22.6073 10.7874 22.3306 10.6633 22.009L9.92736 20.1093L7.42869 18.6717L5.40921 18.9798C5.07294 19.0254 4.7307 18.9701 4.42597 18.8208C4.12123 18.6714 3.86777 18.4349 3.69779 18.1412L3.01322 16.9432C2.8378 16.6448 2.75698 16.3003 2.78142 15.955C2.80587 15.6097 2.93442 15.28 3.15013 15.0093L4.39947 13.4177V10.5425L3.1159 8.95086C2.9002 8.68017 2.77164 8.35043 2.74719 8.00516C2.72275 7.6599 2.80357 7.31534 2.97899 7.01695L3.66356 5.81896C3.83354 5.52525 4.087 5.28871 4.39174 5.13939C4.69647 4.99007 5.03871 4.93472 5.37498 4.98036L7.39446 5.28842L9.92736 3.85082ZM9.53373 11.9801C9.53373 12.6571 9.73448 13.3188 10.1106 13.8817C10.4867 14.4446 11.0213 14.8833 11.6467 15.1424C12.2722 15.4014 12.9604 15.4692 13.6243 15.3372C14.2883 15.2051 14.8982 14.8791 15.3769 14.4004C15.8556 13.9217 16.1816 13.3118 16.3137 12.6478C16.4457 11.9839 16.3779 11.2957 16.1189 10.6702C15.8598 10.0448 15.4211 9.51019 14.8582 9.13409C14.2953 8.75798 13.6336 8.55723 12.9566 8.55723C12.0488 8.55723 11.1782 8.91785 10.5363 9.55976C9.89435 10.2017 9.53373 11.0723 9.53373 11.9801V11.9801Z" stroke="#F6F6F6" stroke-width="1.71142" stroke-linecap="round" stroke-linejoin="round"/>
</g>
<g clip-path="url(#clip1_360_2423)">
<path d="M27.7881 21.0543L28.1867 20.0253C28.2539 19.8511 28.3722 19.7012 28.526 19.5954C28.6798 19.4895 28.8621 19.4326 29.0488 19.432H29.809C29.9957 19.4326 30.1779 19.4895 30.3318 19.5954C30.4856 19.7012 30.6039 19.8511 30.6711 20.0253L31.0697 21.0543L32.4232 21.833L33.517 21.6661C33.6992 21.6414 33.8846 21.6714 34.0496 21.7523C34.2147 21.8331 34.352 21.9613 34.4441 22.1204L34.8149 22.7693C34.9099 22.9309 34.9537 23.1175 34.9404 23.3046C34.9272 23.4916 34.8575 23.6702 34.7407 23.8168L34.064 24.6789V26.2363L34.7592 27.0985C34.8761 27.2451 34.9457 27.4237 34.959 27.6107C34.9722 27.7977 34.9284 27.9844 34.8334 28.146L34.4626 28.7949C34.3705 28.954 34.2332 29.0821 34.0682 29.163C33.9031 29.2439 33.7177 29.2739 33.5356 29.2492L32.4417 29.0823L31.0882 29.861L30.6896 30.89C30.6224 31.0642 30.5041 31.2141 30.3503 31.3199C30.1965 31.4258 30.0142 31.4827 29.8275 31.4833H29.0488C28.8621 31.4827 28.6798 31.4258 28.526 31.3199C28.3722 31.2141 28.2539 31.0642 28.1867 30.89L27.7881 29.861L26.4346 29.0823L25.3407 29.2492C25.1586 29.2739 24.9732 29.2439 24.8081 29.163C24.6431 29.0821 24.5058 28.954 24.4137 28.7949L24.0429 28.146C23.9479 27.9844 23.9041 27.7977 23.9173 27.6107C23.9306 27.4237 24.0002 27.2451 24.1171 27.0985L24.7938 26.2363V24.6789L24.0985 23.8168C23.9817 23.6702 23.912 23.4916 23.8988 23.3046C23.8856 23.1175 23.9293 22.9309 24.0244 22.7693L24.3952 22.1204C24.4872 21.9613 24.6245 21.8331 24.7896 21.7523C24.9547 21.6714 25.14 21.6414 25.3222 21.6661L26.4161 21.833L27.7881 21.0543ZM27.5748 25.4576C27.5748 25.8243 27.6836 26.1828 27.8873 26.4877C28.091 26.7926 28.3806 27.0302 28.7194 27.1705C29.0582 27.3109 29.4309 27.3476 29.7906 27.2761C30.1502 27.2045 30.4806 27.0279 30.7399 26.7686C30.9992 26.5094 31.1758 26.179 31.2473 25.8193C31.3188 25.4597 31.2821 25.0869 31.1418 24.7481C31.0015 24.4093 30.7638 24.1198 30.4589 23.9161C30.154 23.7123 29.7956 23.6036 29.4289 23.6036C28.9372 23.6036 28.4656 23.7989 28.1179 24.1466C27.7702 24.4943 27.5748 24.9659 27.5748 25.4576V25.4576Z" stroke="#FFD700" stroke-width="0.92702" stroke-linecap="round" stroke-linejoin="round"/>
</g>
<defs>
<clipPath id="clip0_360_2423">
<rect width="23.9599" height="23.9599" fill="white" transform="translate(0.976562)"/>
</clipPath>
<clipPath id="clip1_360_2423">
<rect width="12.9783" height="12.9783" fill="white" transform="translate(22.9397 18.9685)"/>
</clipPath>
</defs>
</svg>
