<svg width="39" height="35" viewBox="0 0 39 35" fill="none" xmlns="http://www.w3.org/2000/svg">
<g clip-path="url(#clip0_258_2619)">
<path d="M10.4965 4.98113L11.2828 2.95141C11.4154 2.60776 11.6487 2.31216 11.9522 2.10334C12.2556 1.89452 12.615 1.78222 12.9834 1.78113H14.4828C14.8512 1.78222 15.2106 1.89452 15.5141 2.10334C15.8175 2.31216 16.0508 2.60776 16.1834 2.95141L16.9697 4.98113L19.6394 6.51713L21.7971 6.18799C22.1564 6.13922 22.5221 6.19836 22.8477 6.3579C23.1733 6.51744 23.4441 6.77017 23.6257 7.08399L24.3571 8.36398C24.5445 8.68279 24.6309 9.05094 24.6048 9.41984C24.5787 9.78874 24.4413 10.141 24.2108 10.4303L22.876 12.1308V15.2028L24.2474 16.9034C24.4779 17.1926 24.6152 17.5449 24.6413 17.9138C24.6675 18.2827 24.5811 18.6509 24.3937 18.9697L23.6623 20.2497C23.4806 20.5635 23.2098 20.8162 22.8842 20.9758C22.5586 21.1353 22.193 21.1945 21.8337 21.1457L19.676 20.8166L17.0063 22.3526L16.22 24.3823C16.0874 24.7259 15.8541 25.0215 15.5506 25.2303C15.2472 25.4392 14.8877 25.5515 14.5194 25.5526H12.9834C12.615 25.5515 12.2556 25.4392 11.9522 25.2303C11.6487 25.0215 11.4154 24.7259 11.2828 24.3823L10.4965 22.3526L7.82683 20.8166L5.66911 21.1457C5.30983 21.1945 4.94416 21.1353 4.61857 20.9758C4.29297 20.8162 4.02216 20.5635 3.84054 20.2497L3.10911 18.9697C2.92169 18.6509 2.83533 18.2827 2.86145 17.9138C2.88757 17.5449 3.02493 17.1926 3.2554 16.9034L4.59026 15.2028V12.1308L3.21883 10.4303C2.98835 10.141 2.851 9.78874 2.82488 9.41984C2.79876 9.05094 2.88512 8.68279 3.07254 8.36398L3.80397 7.08399C3.98559 6.77017 4.2564 6.51744 4.58199 6.3579C4.90759 6.19836 5.27326 6.13922 5.63254 6.18799L7.79026 6.51713L10.4965 4.98113ZM10.076 13.6668C10.076 14.3902 10.2905 15.0972 10.6923 15.6986C11.0942 16.3001 11.6653 16.7688 12.3336 17.0456C13.0018 17.3224 13.7372 17.3948 14.4466 17.2537C15.156 17.1126 15.8076 16.7643 16.3191 16.2528C16.8306 15.7414 17.1789 15.0897 17.32 14.3803C17.4611 13.6709 17.3887 12.9356 17.1119 12.2673C16.8351 11.5991 16.3663 11.0279 15.7649 10.626C15.1635 10.2242 14.4564 10.0097 13.7331 10.0097C12.7632 10.0097 11.833 10.395 11.1471 11.0809C10.4613 11.7667 10.076 12.6969 10.076 13.6668V13.6668Z" stroke="#595959" stroke-width="1.82857" stroke-linecap="round" stroke-linejoin="round"/>
</g>
<g clip-path="url(#clip1_258_2619)">
<path d="M29.5802 23.362L30.0061 22.2626C30.0779 22.0764 30.2043 21.9163 30.3687 21.8032C30.533 21.6901 30.7277 21.6293 30.9272 21.6287H31.7394C31.939 21.6293 32.1337 21.6901 32.298 21.8032C32.4624 21.9163 32.5888 22.0764 32.6606 22.2626L33.0865 23.362L34.5326 24.194L35.7013 24.0157C35.896 23.9893 36.094 24.0213 36.2704 24.1077C36.4468 24.1942 36.5934 24.3311 36.6918 24.501L37.088 25.1944C37.1895 25.3671 37.2363 25.5665 37.2222 25.7663C37.208 25.9661 37.1336 26.157 37.0088 26.3136L36.2857 27.2348V28.8988L37.0286 29.8199C37.1534 29.9766 37.2278 30.1674 37.242 30.3672C37.2561 30.567 37.2093 30.7665 37.1078 30.9391L36.7116 31.6325C36.6133 31.8025 36.4666 31.9394 36.2902 32.0258C36.1138 32.1122 35.9158 32.1442 35.7212 32.1178L34.5524 31.9395L33.1063 32.7715L32.6804 33.8709C32.6086 34.0571 32.4822 34.2172 32.3178 34.3303C32.1535 34.4434 31.9588 34.5043 31.7592 34.5049H30.9272C30.7277 34.5043 30.533 34.4434 30.3687 34.3303C30.2043 34.2172 30.0779 34.0571 30.0061 33.8709L29.5802 32.7715L28.1341 31.9395L26.9653 32.1178C26.7707 32.1442 26.5727 32.1122 26.3963 32.0258C26.2199 31.9394 26.0732 31.8025 25.9749 31.6325L25.5787 30.9391C25.4772 30.7665 25.4304 30.567 25.4445 30.3672C25.4587 30.1674 25.5331 29.9766 25.6579 29.8199L26.381 28.8988V27.2348L25.6381 26.3136C25.5133 26.157 25.4389 25.9661 25.4247 25.7663C25.4106 25.5665 25.4573 25.3671 25.5589 25.1944L25.9551 24.501C26.0534 24.3311 26.2001 24.1942 26.3765 24.1077C26.5528 24.0213 26.7509 23.9893 26.9455 24.0157L28.1143 24.194L29.5802 23.362ZM29.3524 28.0668C29.3524 28.4586 29.4686 28.8415 29.6862 29.1673C29.9039 29.4931 30.2133 29.747 30.5753 29.8969C30.9372 30.0469 31.3355 30.0861 31.7198 30.0096C32.1041 29.9332 32.457 29.7445 32.7341 29.4675C33.0111 29.1905 33.1998 28.8375 33.2762 28.4532C33.3527 28.069 33.3134 27.6707 33.1635 27.3087C33.0136 26.9467 32.7597 26.6373 32.4339 26.4197C32.1081 26.202 31.7251 26.0858 31.3333 26.0858C30.808 26.0858 30.3041 26.2945 29.9326 26.666C29.5611 27.0375 29.3524 27.5414 29.3524 28.0668V28.0668Z" stroke="#595959" stroke-width="0.990476" stroke-linecap="round" stroke-linejoin="round"/>
</g>
<defs>
<clipPath id="clip0_258_2619">
<rect width="25.6" height="25.6" fill="white" transform="translate(0.93335 0.866699)"/>
</clipPath>
<clipPath id="clip1_258_2619">
<rect width="13.8667" height="13.8667" fill="white" transform="translate(24.4 21.1334)"/>
</clipPath>
</defs>
</svg>
