<svg width="34" height="36" viewBox="0 0 34 36" fill="none" xmlns="http://www.w3.org/2000/svg">
<path d="M27.0227 32.176C27.4765 32.0814 27.7468 31.6065 27.5213 31.2014C27.0241 30.3084 26.2409 29.5238 25.2389 28.9258C23.9484 28.1556 22.3673 27.7382 20.7408 27.7382C19.1142 27.7382 17.5331 28.1556 16.2426 28.9258C15.2406 29.5238 14.4574 30.3084 13.9602 31.2014C13.7347 31.6065 14.005 32.0814 14.4588 32.176C18.6023 33.0395 22.8792 33.0395 27.0227 32.176Z" fill="#F9F9F9"/>
<circle cx="20.7417" cy="21.9908" r="4.10501" fill="#F9F9F9"/>
<path d="M17.8747 29.8488C17.4733 28.7251 16.5887 27.7323 15.3583 27.0241C14.1278 26.316 12.6201 25.9322 11.0691 25.9322C9.51813 25.9322 8.01047 26.316 6.77998 27.0241C5.54949 27.7323 4.66494 28.7251 4.26351 29.8488" stroke="#F9F9F9" stroke-width="1.27332" stroke-linecap="round"/>
<circle cx="11.0678" cy="18.8866" r="3.52284" stroke="#F9F9F9" stroke-width="1.27332" stroke-linecap="round"/>
<path d="M23.6924 10.1987L25.8915 11.1276C27.5108 11.8115 28.2691 13.6787 27.5851 15.2981V15.2981C26.9011 16.9174 25.0339 17.6757 23.4146 16.9918L21.2155 16.0629" stroke="#F9F9F9" stroke-width="1.3021" stroke-linecap="round" stroke-linejoin="round"/>
<path d="M18.0567 11.2729L23.9209 13.7497" stroke="#F9F9F9" stroke-width="1.3021" stroke-linecap="round" stroke-linejoin="round"/>
<path d="M20.7604 8.95997L18.5613 8.03114C16.942 7.34718 15.0747 8.10545 14.3908 9.72481V9.72481C13.7068 11.3442 14.4651 13.2114 16.0844 13.8953L18.2835 14.8242" stroke="#F9F9F9" stroke-width="1.3021" stroke-linecap="round" stroke-linejoin="round"/>
</svg>
