<svg width="23" height="23" viewBox="0 0 23 23" fill="none" xmlns="http://www.w3.org/2000/svg">
<path fill-rule="evenodd" clip-rule="evenodd" d="M11.9812 16.6085C13.7459 15.5992 17.6051 12.9128 17.6051 8.72017C17.6051 5.13798 14.7011 2.23404 11.1189 2.23404C7.53675 2.23404 4.63281 5.13798 4.63281 8.72017C4.63281 12.9128 8.49197 15.5992 10.2567 16.6085C10.7958 16.9168 11.4421 16.9168 11.9812 16.6085ZM11.1216 11.5002C12.6568 11.5002 13.9013 10.2556 13.9013 8.72038C13.9013 7.18516 12.6568 5.94061 11.1216 5.94061C9.58634 5.94061 8.3418 7.18516 8.3418 8.72038C8.3418 10.2556 9.58634 11.5002 11.1216 11.5002Z" fill="#231F20"/>
<path d="M16.7361 15.6702C17.3054 16.0928 17.6051 16.5722 17.6051 17.0601C17.6051 17.5481 17.3054 18.0274 16.7361 18.45C16.1668 18.8726 15.348 19.2235 14.362 19.4675C13.376 19.7114 12.2575 19.8399 11.1189 19.8399C9.98039 19.8399 8.8619 19.7114 7.87588 19.4675C6.88986 19.2235 6.07107 18.8726 5.50179 18.45C4.93251 18.0274 4.63281 17.5481 4.63281 17.0601C4.63281 16.5722 4.93251 16.0928 5.50179 15.6702" stroke="#231F20" stroke-width="1.30813" stroke-linecap="round"/>
</svg>
