<svg width="27" height="27" viewBox="0 0 27 27" fill="none" xmlns="http://www.w3.org/2000/svg">
<path d="M7.30438 4.01014L7.9749 3.33962C8.40188 2.91263 9.09416 2.91264 9.52114 3.33962L12.3483 6.1668C12.7753 6.59378 12.7753 7.28605 12.3483 7.71303L10.3886 9.67277C10.0618 9.99956 9.98078 10.4988 10.1875 10.9121C11.3822 13.3017 13.3198 15.2392 15.7093 16.434C16.1227 16.6407 16.6219 16.5597 16.9487 16.2329L18.9084 14.2732C19.3354 13.8462 20.0277 13.8462 20.4547 14.2732L23.2819 17.1003C23.7088 17.5273 23.7088 18.2196 23.2819 18.6466L22.6113 19.3171C20.3029 21.6255 16.6483 21.8853 14.0365 19.9265L12.7153 18.9356C10.809 17.5058 9.11562 15.8124 7.6859 13.9061L6.69499 12.5849C4.7362 9.9732 4.99592 6.31859 7.30438 4.01014Z" fill="#231F20"/>
</svg>
