<svg width="23" height="23" viewBox="0 0 23 23" fill="none" xmlns="http://www.w3.org/2000/svg">
<path fill-rule="evenodd" clip-rule="evenodd" d="M2.77779 9.25557C2.76563 9.75224 2.76562 10.3161 2.76562 10.9593V12.8025C2.76562 15.4091 2.76562 16.7125 3.57541 17.5223C4.38519 18.332 5.68852 18.332 8.29517 18.332H13.8247C16.4314 18.332 17.7347 18.332 18.5445 17.5223C19.3542 16.7125 19.3542 15.4091 19.3542 12.8025V10.9593C19.3542 10.3161 19.3542 9.75224 19.3421 9.25557L11.9551 13.3595C11.3984 13.6687 10.7215 13.6687 10.1648 13.3595L2.77779 9.25557ZM2.98954 7.30034C3.06592 7.31952 3.14108 7.34887 3.21319 7.38893L11.0599 11.7482L18.9067 7.38893C18.9788 7.34887 19.054 7.31952 19.1303 7.30034C19.0105 6.86395 18.8267 6.52178 18.5445 6.23956C17.7347 5.42978 16.4314 5.42978 13.8247 5.42978H8.29517C5.68852 5.42978 4.38519 5.42978 3.57541 6.23956C3.29319 6.52178 3.10933 6.86395 2.98954 7.30034Z" fill="#231F20"/>
</svg>
