<svg width="27" height="27" viewBox="0 0 27 27" fill="none" xmlns="http://www.w3.org/2000/svg">
<path d="M2.87109 9.80701C2.87109 7.76921 2.87109 6.75032 3.50416 6.11725C3.50416 6.11725 3.50416 6.11725 3.50416 6.11725C4.13722 5.48419 5.15612 5.48419 7.19391 5.48419H20.1624C22.2002 5.48419 23.2191 5.48419 23.8521 6.11725C23.8521 6.11725 23.8521 6.11725 23.8521 6.11725C24.4852 6.75032 24.4852 7.76921 24.4852 9.80701C24.4852 10.3165 24.4852 10.5712 24.3269 10.7294C24.1686 10.8877 23.9139 10.8877 23.4045 10.8877H3.9518C3.44235 10.8877 3.18762 10.8877 3.02936 10.7294C3.02936 10.7294 3.02936 10.7294 3.02936 10.7294C2.87109 10.5712 2.87109 10.3165 2.87109 9.80701Z" fill="#231F20"/>
<path fill-rule="evenodd" clip-rule="evenodd" d="M2.86719 19.5334C2.86719 21.5712 2.86719 22.5901 3.50025 23.2231C4.13331 23.8562 5.15221 23.8562 7.19 23.8562H20.1585C22.1962 23.8562 23.2151 23.8562 23.8482 23.2231C24.4813 22.5901 24.4813 21.5712 24.4813 19.5334V14.1298C24.4813 13.6204 24.4813 13.3657 24.323 13.2074C24.1647 13.0491 23.91 13.0491 23.4006 13.0491H3.94789C3.43844 13.0491 3.18372 13.0491 3.02545 13.2074C2.86719 13.3657 2.86719 13.6204 2.86719 14.1298V19.5334ZM8.26953 16.2912C8.26953 15.7818 8.26953 15.5271 8.4278 15.3688C8.58606 15.2105 8.84079 15.2105 9.35023 15.2105H11.5116C12.0211 15.2105 12.2758 15.2105 12.4341 15.3688C12.5923 15.5271 12.5923 15.7818 12.5923 16.2912C12.5923 16.8007 12.5923 17.0554 12.4341 17.2137C12.2758 17.3719 12.0211 17.3719 11.5116 17.3719H9.35024C8.84079 17.3719 8.58606 17.3719 8.4278 17.2137C8.26953 17.0554 8.26953 16.8007 8.26953 16.2912ZM8.4278 19.6917C8.26953 19.8499 8.26953 20.1046 8.26953 20.6141C8.26953 21.1235 8.26953 21.3783 8.4278 21.5365C8.58606 21.6948 8.84079 21.6948 9.35024 21.6948H11.5116C12.0211 21.6948 12.2758 21.6948 12.4341 21.5365C12.5923 21.3783 12.5923 21.1235 12.5923 20.6141C12.5923 20.1046 12.5923 19.8499 12.4341 19.6917C12.2758 19.5334 12.0211 19.5334 11.5116 19.5334H9.35023C8.84079 19.5334 8.58606 19.5334 8.4278 19.6917ZM14.7539 16.2912C14.7539 15.7818 14.7539 15.5271 14.9122 15.3688C15.0704 15.2105 15.3252 15.2105 15.8346 15.2105H17.996C18.5055 15.2105 18.7602 15.2105 18.9185 15.3688C19.0767 15.5271 19.0767 15.7818 19.0767 16.2912C19.0767 16.8007 19.0767 17.0554 18.9185 17.2137C18.7602 17.3719 18.5055 17.3719 17.996 17.3719H15.8346C15.3252 17.3719 15.0704 17.3719 14.9122 17.2137C14.7539 17.0554 14.7539 16.8007 14.7539 16.2912ZM14.9122 19.6917C14.7539 19.8499 14.7539 20.1046 14.7539 20.6141C14.7539 21.1235 14.7539 21.3783 14.9122 21.5365C15.0704 21.6948 15.3252 21.6948 15.8346 21.6948H17.996C18.5055 21.6948 18.7602 21.6948 18.9185 21.5365C19.0767 21.3783 19.0767 21.1235 19.0767 20.6141C19.0767 20.1046 19.0767 19.8499 18.9185 19.6917C18.7602 19.5334 18.5055 19.5334 17.996 19.5334H15.8346C15.3252 19.5334 15.0704 19.5334 14.9122 19.6917Z" fill="#231F20"/>
<path d="M8.27344 3.32281L8.27344 6.56493" stroke="#231F20" stroke-width="2.16141" stroke-linecap="round"/>
<path d="M19.082 3.32281L19.082 6.56493" stroke="#231F20" stroke-width="2.16141" stroke-linecap="round"/>
</svg>
