<svg width="257" height="328" viewBox="0 0 257 328" fill="none" xmlns="http://www.w3.org/2000/svg">
<g opacity="0.2">
<path d="M69.4441 297.792C82.2851 303.704 97.4875 298.087 103.4 285.246C109.312 272.405 103.695 257.203 90.8537 251.291C78.0127 245.379 62.8103 250.996 56.8982 263.837C50.9861 276.678 56.6031 291.88 69.4441 297.792Z" fill="#FFD700"/>
<path d="M189.361 30.7812C152.905 14.3077 109.557 30.1386 92.3117 66.2359C92.1525 66.5692 91.0643 68.927 89.6441 72.0123C87.5617 76.5359 87.3613 81.7014 89.0871 86.3728C90.8129 91.0441 94.3235 94.8386 98.8468 96.9218L98.8468 96.9218C101.089 97.9538 103.513 98.5337 105.98 98.6284C108.447 98.7232 110.908 98.331 113.223 97.4741C115.539 96.6173 117.662 95.3127 119.473 93.6348C121.284 91.957 122.746 89.9387 123.777 87.6955C124.741 85.596 125.409 84.143 125.45 84.0538C128.034 78.4377 132.036 73.5911 137.061 69.9907C142.087 66.3903 147.963 64.1602 154.112 63.5196C160.261 62.879 166.47 63.8501 172.13 66.3374C177.79 68.8247 182.705 72.7424 186.391 77.7052C190.077 82.668 192.408 88.505 193.154 94.6419C193.901 100.779 193.037 107.004 190.647 112.706C188.258 118.408 184.425 123.389 179.526 127.16C174.628 130.931 168.832 133.362 162.708 134.214L162.711 134.224C162.711 134.224 131.24 138.675 113.968 156.707L113.974 156.711C110.65 160.504 107.892 164.758 105.786 169.34C104.919 171.223 97.4447 187.75 91.502 201.22C89.4525 205.869 89.3126 211.137 91.1124 215.887C92.9122 220.638 96.5075 224.491 101.123 226.614L101.123 226.614C103.441 227.682 105.948 228.28 108.499 228.375C111.05 228.47 113.595 228.06 115.986 227.167C118.378 226.275 120.57 224.919 122.435 223.177C124.301 221.434 125.803 219.34 126.857 217.015C132.421 204.734 138.946 190.456 139.422 189.421C145.483 176.256 164.222 168.987 178.592 165.236C195.139 160.917 209.963 151.474 220.406 137.932C222.61 135.168 224.503 132.171 226.053 128.994C230.128 120.142 232.412 110.57 232.772 100.831C233.132 91.0927 231.562 81.3788 228.151 72.2497C224.741 63.1205 219.557 54.7564 212.9 47.6393C206.243 40.5222 198.243 34.7928 189.361 30.7812Z" fill="#FFD700"/>
<path d="M107.377 91.0713C102.854 88.9882 99.3431 85.1936 97.6173 80.5223C95.8915 75.8509 96.0918 70.6854 98.1742 66.1617C99.5944 63.0765 100.683 60.7187 100.842 60.3854C105.851 49.8843 113.291 40.7289 122.546 33.6787C109.266 41.0799 98.614 52.4253 92.0639 66.1454C91.9047 66.4787 90.8165 68.8365 89.3963 71.9218C87.3139 76.4454 87.1136 81.611 88.8394 86.2823C90.5652 90.9537 94.0758 94.7482 98.5991 96.8314C102.317 98.5414 106.491 98.9911 110.488 98.1123C114.484 97.2335 118.085 95.0742 120.743 91.9625C116.33 93.3252 111.57 93.0078 107.377 91.0713Z" fill="#3F3D56"/>
<path d="M173.97 67.254C179.085 69.9115 183.478 73.7705 186.772 78.4998C190.067 83.2291 192.165 88.6873 192.885 94.4058C193.605 100.124 192.927 105.932 190.909 111.331C188.89 116.729 185.591 121.557 181.296 125.4C185.941 123.248 190.067 120.119 193.393 116.227C196.72 112.335 199.168 107.771 200.57 102.847C201.973 97.9232 202.298 92.7548 201.522 87.6941C200.746 82.6334 198.888 77.7996 196.075 73.522C193.262 69.2445 189.559 65.6238 185.22 62.9069C180.88 60.1901 176.006 58.4408 170.929 57.7784C165.852 57.1161 160.692 57.5562 155.801 59.0688C150.91 60.5813 146.402 63.1308 142.586 66.5433C147.522 64.2507 152.919 63.1225 158.361 63.2457C163.802 63.3689 169.143 64.7403 173.97 67.254Z" fill="#3F3D56"/>
<path d="M109.653 220.764C105.038 218.64 101.443 214.787 99.6427 210.037C97.8429 205.286 97.9828 200.018 100.032 195.37C105.975 181.899 113.45 165.372 114.317 163.489C116.423 158.907 119.18 154.654 122.504 150.861L122.498 150.857C124.282 149.006 126.198 147.288 128.231 145.715C122.879 148.608 117.989 152.282 113.72 156.617L113.726 156.621C110.402 160.414 107.645 164.667 105.539 169.249C104.672 171.132 97.1971 187.659 91.2543 201.13C89.2049 205.778 89.065 211.046 90.8648 215.797C92.6646 220.547 96.2599 224.4 100.875 226.524C104.68 228.275 108.95 228.745 113.045 227.864C117.14 226.982 120.839 224.797 123.587 221.636C118.996 223.096 114.026 222.784 109.653 220.764Z" fill="#3F3D56"/>
<path d="M66.9322 289.763C64.2916 286.803 62.3749 283.271 61.3334 279.444C60.2918 275.617 60.1539 271.601 60.9304 267.711C61.707 263.822 63.3769 260.167 65.8083 257.033C68.2396 253.9 71.3659 251.374 74.9405 249.656C71.3826 250.374 68.0181 251.841 65.0704 253.959C62.1227 256.077 59.6592 258.797 57.8434 261.94C56.0275 265.083 54.9008 268.576 54.5381 272.187C54.1754 275.799 54.585 279.446 55.7396 282.887C56.8943 286.328 58.7676 289.485 61.2353 292.146C63.703 294.808 66.7086 296.915 70.0526 298.326C73.3966 299.737 77.0025 300.421 80.6311 300.333C84.2597 300.244 87.8279 299.384 91.0988 297.811C86.7186 298.697 82.1826 298.421 77.9425 297.009C73.7025 295.597 69.9063 293.098 66.9322 289.763Z" fill="#3F3D56"/>
</g>
</svg>
