<svg width="164" height="116" viewBox="0 0 164 116" fill="none" xmlns="http://www.w3.org/2000/svg">
<path d="M83.7575 115.33C88.6901 115.33 92.6887 111.331 92.6887 106.399C92.6887 101.466 88.6901 97.4674 83.7575 97.4674C78.8248 97.4674 74.8262 101.466 74.8262 106.399C74.8262 111.331 78.8248 115.33 83.7575 115.33Z" fill="#FFD700"/>
<path d="M137.114 114.828C142.11 113.328 147.422 111.763 151.385 108.196C154.926 105.008 157.317 100.14 155.85 95.3595C154.386 90.5886 150.001 87.4075 145.473 85.8253C142.906 84.9279 140.219 84.43 137.534 84.0389C134.615 83.6138 131.683 83.2655 128.752 82.9303C116.886 81.573 104.974 80.7439 93.0186 80.4429C87.1192 80.2943 81.2209 80.2979 75.3206 80.3836C70.0513 80.46 64.5017 80.4581 59.6134 78.2186C55.8121 76.477 52.362 73.3085 51.3028 69.1449C50.0801 64.3386 52.3353 59.444 55.5704 55.9631C57.2756 54.1283 59.2686 52.584 61.3245 51.164C63.5549 49.6235 65.863 48.1921 68.2212 46.856C72.8656 44.2257 77.7213 41.9872 82.7377 40.1637C85.2124 39.2638 87.7238 38.4875 90.257 37.7713C92.396 37.1666 94.5417 36.561 96.6091 35.7371C100.606 34.1442 104.407 31.4462 105.423 27.023C106.386 22.8308 104.762 18.2799 101.915 15.1656C98.6219 11.5626 93.6559 9.98317 88.8951 9.72762C83.5502 9.44072 78.3285 10.7784 73.3048 12.4761C67.9467 14.2868 62.704 16.3688 57.2327 17.8355C51.8071 19.2885 46.2766 20.3165 40.6912 20.9103C37.9571 21.2014 35.1402 21.5302 32.3898 21.3073C30.0846 21.1205 27.7913 20.4426 26.0924 18.8066C24.6357 17.4039 23.768 15.476 24.0663 13.4415C24.1205 13.072 24.6819 13.2291 24.628 13.5964C24.2648 16.0729 25.9483 18.3549 28.0227 19.5239C30.4202 20.8749 33.3376 20.8768 36.0068 20.7223C41.7945 20.3727 47.5429 19.5417 53.1926 18.2379C58.7441 16.9699 64.0973 15.1573 69.4445 13.221C74.5228 11.382 79.7148 9.58719 85.1402 9.18887C89.8478 8.84326 94.7999 9.52908 98.901 11.9892C102.505 14.1514 105.156 17.7571 106 21.8948C106.826 25.9381 105.683 30.0077 102.622 32.8293C99.453 35.7506 95.1079 36.9996 91.0586 38.1499C85.9227 39.6089 80.8969 41.3143 76.0322 43.5287C71.1013 45.7669 66.3722 48.4256 61.8975 51.4752C57.5782 54.4269 53.3155 58.1408 51.9495 63.4065C51.3131 65.8593 51.4306 68.4608 52.4954 70.7776C53.4421 72.8376 55.0013 74.5704 56.8176 75.907C61.1514 79.0959 66.6134 79.7507 71.8483 79.8158C77.7276 79.889 83.6072 79.6905 89.4885 79.7871C101.474 79.9838 113.436 80.7134 125.373 81.9758C128.364 82.2924 131.351 82.6423 134.334 83.0256C137.018 83.3704 139.711 83.713 142.349 84.3254C147.04 85.4143 151.605 87.508 154.521 91.4856C155.815 93.2097 156.617 95.2528 156.841 97.3969C157.045 99.6344 156.497 101.876 155.486 103.866C153.246 108.272 149.052 111.074 144.598 112.915C142.213 113.901 139.738 114.648 137.269 115.39C136.909 115.498 136.755 114.936 137.114 114.828L137.114 114.828Z" fill="#AD974F"/>
<path d="M24.442 18.1538C27.0156 18.1538 29.1018 16.0675 29.1018 13.494C29.1018 10.9204 27.0156 8.83417 24.442 8.83417C21.8685 8.83417 19.7822 10.9204 19.7822 13.494C19.7822 16.0675 21.8685 18.1538 24.442 18.1538Z" fill="#AD974F"/>
<path d="M56.7697 26.988C59.3432 26.988 61.4295 24.9017 61.4295 22.3282C61.4295 19.7547 59.3432 17.6684 56.7697 17.6684C54.1961 17.6684 52.1099 19.7547 52.1099 22.3282C52.1099 24.9017 54.1961 26.988 56.7697 26.988Z" fill="#AD974F"/>
<path d="M84.1456 9.31959C86.7192 9.31959 88.8054 7.23333 88.8054 4.6598C88.8054 2.08626 86.7192 0 84.1456 0C81.5721 0 79.4858 2.08626 79.4858 4.6598C79.4858 7.23333 81.5721 9.31959 84.1456 9.31959Z" fill="#AD974F"/>
<path d="M101.232 29.1237C103.806 29.1237 105.892 27.0375 105.892 24.4639C105.892 21.8904 103.806 19.8041 101.232 19.8041C98.6585 19.8041 96.5723 21.8904 96.5723 24.4639C96.5723 27.0375 98.6585 29.1237 101.232 29.1237Z" fill="#AD974F"/>
<path d="M78.1271 52.0344C80.7006 52.0344 82.7869 49.9481 82.7869 47.3746C82.7869 44.801 80.7006 42.7148 78.1271 42.7148C75.5535 42.7148 73.4673 44.801 73.4673 47.3746C73.4673 49.9481 75.5535 52.0344 78.1271 52.0344Z" fill="#AD974F"/>
<path d="M48.8092 63.1015C51.3827 63.1015 53.469 61.0152 53.469 58.4417C53.469 55.8681 51.3827 53.7819 48.8092 53.7819C46.2357 53.7819 44.1494 55.8681 44.1494 58.4417C44.1494 61.0152 46.2357 63.1015 48.8092 63.1015Z" fill="#AD974F"/>
<path d="M79.8746 80.3815C82.4482 80.3815 84.5344 78.2952 84.5344 75.7217C84.5344 73.1482 82.4482 71.0619 79.8746 71.0619C77.3011 71.0619 75.2148 73.1482 75.2148 75.7217C75.2148 78.2952 77.3011 80.3815 79.8746 80.3815Z" fill="#AD974F"/>
<path d="M113.27 90.0894C115.843 90.0894 117.929 88.0031 117.929 85.4296C117.929 82.856 115.843 80.7698 113.27 80.7698C110.696 80.7698 108.61 82.856 108.61 85.4296C108.61 88.0031 110.696 90.0894 113.27 90.0894Z" fill="#AD974F"/>
<path d="M152.296 87.9537C154.869 87.9537 156.955 85.8674 156.955 83.2939C156.955 80.7204 154.869 78.6341 152.296 78.6341C149.722 78.6341 147.636 80.7204 147.636 83.2939C147.636 85.8674 149.722 87.9537 152.296 87.9537Z" fill="#AD974F"/>
<path d="M82.8011 13.2034C68.8427 13.302 57.4138 24.6452 57.2155 38.6025C57.2136 38.7314 57.2128 39.6375 57.2129 40.8225C57.213 42.5602 57.9033 44.2266 59.1319 45.4553C60.3606 46.684 62.0269 47.3744 63.7645 47.3746H63.7646C64.6259 47.3744 65.4788 47.2045 66.2745 46.8746C67.0701 46.5447 67.793 46.0612 68.4017 45.4518C69.0105 44.8424 69.4932 44.119 69.8223 43.323C70.1513 42.5269 70.3203 41.6739 70.3196 40.8125C70.3189 40.0063 70.3185 39.4484 70.3185 39.4141C70.318 37.257 70.8791 35.137 71.9466 33.2625C73.014 31.388 74.551 29.8237 76.4063 28.7234C78.2617 27.6231 80.3716 27.0248 82.5283 26.9872C84.6851 26.9497 86.8145 27.4742 88.707 28.5092C90.5996 29.5442 92.1901 31.0541 93.3222 32.8902C94.4542 34.7264 95.0888 36.8256 95.1634 38.9814C95.2381 41.1372 94.7503 43.2753 93.748 45.1854C92.7457 47.0955 91.2634 48.7118 89.447 49.8753L89.4493 49.878C89.4493 49.878 80.1242 55.8813 77.2812 64.1167L77.2836 64.1173C76.7837 65.8044 76.5304 67.5549 76.5316 69.3145C76.5316 70.0378 76.5741 76.3666 76.6563 81.5033C76.6851 83.2757 77.4094 84.9657 78.6731 86.2087C79.9368 87.4518 81.6385 88.1483 83.4111 88.1478H83.4111C84.3018 88.1478 85.1837 87.9716 86.006 87.6295C86.8284 87.2874 87.575 86.786 88.2028 86.1542C88.8307 85.5225 89.3274 84.7728 89.6644 83.9483C90.0015 83.1239 90.1721 82.2409 90.1666 81.3502C90.1381 76.646 90.1226 71.1683 90.1226 70.7707C90.1226 65.7139 95.0009 60.6755 99.008 57.3898C103.622 53.6062 106.943 48.4502 108.277 42.6339C108.572 41.4365 108.734 40.2103 108.762 38.9773C108.762 35.5768 108.089 32.21 106.782 29.0708C105.475 25.9316 103.56 23.082 101.147 20.6862C98.7336 18.2905 95.8702 16.3959 92.7216 15.1116C89.573 13.8274 86.2015 13.1789 82.8011 13.2034Z" fill="#FFD700"/>
<path d="M163.769 115.575H0.230513C0.169316 115.575 0.110687 115.55 0.0674766 115.507C0.0242664 115.464 0 115.405 0 115.344C0 115.283 0.0242664 115.224 0.0674766 115.18C0.110687 115.137 0.169316 115.113 0.230513 115.113H163.769C163.83 115.113 163.889 115.137 163.932 115.18C163.976 115.224 164 115.282 164 115.344C164 115.405 163.976 115.464 163.932 115.507C163.889 115.551 163.83 115.575 163.769 115.575Z" fill="#3F3D56"/>
<path d="M122.018 53.0044C125.235 53.0044 127.842 50.3966 127.842 47.1797C127.842 43.9627 125.235 41.3549 122.018 41.3549C118.801 41.3549 116.193 43.9627 116.193 47.1797C116.193 50.3966 118.801 53.0044 122.018 53.0044Z" fill="#2F2E41"/>
<path d="M111.254 113.025H108.874L107.742 103.844H111.255L111.254 113.025Z" fill="#A0616A"/>
<path d="M107.174 112.345H111.764V115.235H104.283C104.283 114.856 104.358 114.48 104.503 114.129C104.648 113.779 104.861 113.46 105.13 113.191C105.398 112.923 105.717 112.71 106.067 112.565C106.418 112.42 106.794 112.345 107.174 112.345Z" fill="#2F2E41"/>
<path d="M129.699 113.025H127.319L126.187 103.844H129.7L129.699 113.025Z" fill="#A0616A"/>
<path d="M125.618 112.345H130.209V115.235H122.728C122.728 114.856 122.803 114.48 122.948 114.129C123.093 113.779 123.306 113.46 123.575 113.191C123.843 112.923 124.162 112.71 124.512 112.565C124.863 112.42 125.239 112.345 125.618 112.345Z" fill="#2F2E41"/>
<path d="M121.132 53.0384C123.766 53.0384 125.901 50.9034 125.901 48.2697C125.901 45.636 123.766 43.501 121.132 43.501C118.499 43.501 116.364 45.636 116.364 48.2697C116.364 50.9034 118.499 53.0384 121.132 53.0384Z" fill="#A0616A"/>
<path d="M123.975 68.4225L126.109 63.52C126.627 62.3699 126.775 61.0874 126.534 59.8493C126.292 58.6113 125.672 57.4787 124.759 56.608C124.572 56.4227 124.373 56.2495 124.163 56.0896C123.11 55.266 121.813 54.8171 120.476 54.814C119.577 54.8175 118.69 55.0148 117.874 55.3926C117.804 55.4236 117.737 55.4566 117.667 55.4896C117.533 55.5537 117.401 55.6236 117.273 55.6954C116.437 56.1754 115.725 56.845 115.196 57.6504C114.666 58.4558 114.333 59.3743 114.224 60.3319L113.283 68.2225C113.046 68.8419 104.596 91.2089 107.551 108.285C107.582 108.467 107.671 108.635 107.805 108.763C107.938 108.891 108.109 108.974 108.293 108.998L111.289 109.405C111.507 109.435 111.729 109.381 111.91 109.254C112.09 109.127 112.216 108.936 112.261 108.72L117.288 84.759C117.319 84.6101 117.4 84.476 117.516 84.3782C117.633 84.2803 117.779 84.2244 117.931 84.2192C118.083 84.2141 118.232 84.2601 118.355 84.3498C118.478 84.4396 118.567 84.5679 118.608 84.7143L125.711 109.912C125.761 110.095 125.87 110.257 126.022 110.372C126.173 110.487 126.358 110.549 126.547 110.549C126.604 110.549 126.661 110.543 126.716 110.533L130.376 109.829C130.589 109.789 130.779 109.671 130.91 109.498C131.04 109.326 131.101 109.11 131.081 108.895C130.543 102.897 127.685 72.8551 123.975 68.4225Z" fill="#2F2E41"/>
<path d="M102.6 52.2383C102.567 52.5218 102.596 52.8091 102.686 53.08C102.776 53.3508 102.925 53.5987 103.121 53.8061C103.317 54.0135 103.556 54.1754 103.821 54.2803C104.087 54.3852 104.372 54.4307 104.657 54.4135L107.323 60.8192L109.339 57.8303L106.499 52.2055C106.438 51.7288 106.205 51.2909 105.843 50.9748C105.481 50.6586 105.015 50.4863 104.535 50.4903C104.054 50.4943 103.592 50.6745 103.235 50.9967C102.879 51.3188 102.653 51.7606 102.6 52.2382L102.6 52.2383Z" fill="#A0616A"/>
<path d="M120.868 74.8725C121.152 74.8386 121.424 74.743 121.667 74.5924C121.909 74.4418 122.116 74.2399 122.272 74.0009C122.428 73.7618 122.529 73.4915 122.569 73.2089C122.61 72.9263 122.587 72.6384 122.504 72.3653L128.113 68.2805L124.736 67.0161L119.928 71.0889C119.479 71.259 119.107 71.588 118.884 72.0136C118.661 72.4393 118.602 72.932 118.718 73.3983C118.833 73.8647 119.116 74.2724 119.513 74.5441C119.909 74.8158 120.391 74.9326 120.868 74.8725Z" fill="#A0616A"/>
<path d="M111.726 65.0898C111.511 65.0896 111.296 65.0684 111.085 65.0266C110.575 64.9295 110.097 64.7085 109.692 64.3829C109.288 64.0573 108.97 63.6372 108.766 63.1596L105.031 58.606C104.952 58.5097 104.895 58.3976 104.863 58.2774C104.83 58.1571 104.824 58.0313 104.845 57.9085C104.865 57.7857 104.912 57.6686 104.981 57.5652C105.05 57.4618 105.141 57.3744 105.247 57.3089L107.904 55.6642C108.002 55.6035 108.111 55.5627 108.225 55.5444C108.339 55.5261 108.455 55.5305 108.567 55.5574C108.68 55.5843 108.785 55.6332 108.879 55.7012C108.972 55.7691 109.051 55.8549 109.111 55.9535L111.743 60.2899L116.783 56.5646C117.185 56.3542 117.648 56.2952 118.09 56.3984C118.531 56.5016 118.92 56.76 119.187 57.1266C119.453 57.4932 119.579 57.9434 119.541 58.3949C119.502 58.8465 119.303 59.2693 118.979 59.586L113.948 64.1753C113.357 64.7613 112.558 65.09 111.726 65.0898Z" fill="#2F2E41"/>
<path d="M125.346 71.9383C125.339 71.9383 125.332 71.9383 125.325 71.9381C125.203 71.9351 125.082 71.9064 124.971 71.8539C124.861 71.8014 124.762 71.7262 124.682 71.6332L122.32 68.8774C122.24 68.7836 122.18 68.6737 122.145 68.5551C122.11 68.4365 122.101 68.3119 122.118 68.1894C122.135 68.067 122.178 67.9495 122.243 67.8448C122.309 67.74 122.396 67.6504 122.499 67.5818L126.922 64.6331L122.915 59.8155C122.682 59.4269 122.596 58.9674 122.674 58.521C122.752 58.0745 122.988 57.6709 123.338 57.384C123.689 57.097 124.131 56.9457 124.584 56.9579C125.037 56.97 125.471 57.1448 125.806 57.4502L130.676 62.2095C131.059 62.5597 131.352 62.9976 131.528 63.4857C131.705 63.9739 131.761 64.4976 131.691 65.012C131.621 65.5264 131.427 66.0161 131.125 66.439C130.824 66.862 130.425 67.2055 129.962 67.4402L125.982 71.6639C125.9 71.7505 125.801 71.8195 125.692 71.8667C125.583 71.9138 125.465 71.9382 125.346 71.9383Z" fill="#2F2E41"/>
<path d="M119.92 61.7839C119.882 61.7839 119.844 61.7815 119.807 61.7767C119.642 61.7567 119.487 61.69 119.359 61.5844C119.232 61.4787 119.137 61.3387 119.086 61.1809L117.311 55.7388C117.267 55.6012 117.274 55.4521 117.33 55.3192C117.387 55.1863 117.49 55.0784 117.621 55.0156L117.678 54.9884C117.731 54.9636 117.782 54.939 117.835 54.9155C118.663 54.5316 119.564 54.3314 120.476 54.3286C121.661 54.3307 122.819 54.6787 123.808 55.3298C123.941 55.4181 124.034 55.5549 124.066 55.7109C124.099 55.8668 124.069 56.0294 123.983 56.1636L120.653 61.3802C120.575 61.504 120.467 61.606 120.339 61.6767C120.211 61.7473 120.067 61.7842 119.92 61.7839Z" fill="#E6E6E6"/>
<path d="M126.61 44.5793C127.663 44.5793 128.516 43.726 128.516 42.6733C128.516 41.6207 127.663 40.7673 126.61 40.7673C125.557 40.7673 124.704 41.6207 124.704 42.6733C124.704 43.726 125.557 44.5793 126.61 44.5793Z" fill="#2F2E41"/>
<path d="M120.076 40.5782C118.738 40.5782 117.454 41.1101 116.507 42.0568C115.56 43.0035 115.028 44.2875 115.028 45.6263V47.7621H117.655L118.911 45.6264L119.288 47.7621H127.26L125.125 45.6263C125.125 44.2875 124.593 43.0035 123.646 42.0568C122.699 41.1101 121.415 40.5782 120.076 40.5782Z" fill="#2F2E41"/>
<path d="M127.589 41.3677C127.8 40.7087 128.237 40.145 128.822 39.7759C129.407 39.4067 130.104 39.2557 130.789 39.3493C132.004 39.5524 132.964 40.5288 133.536 41.6193C134.109 42.7098 134.373 43.9302 134.758 45.1001C135.142 46.27 135.688 47.4463 136.659 48.2035C137.63 48.9608 139.12 49.1663 140.074 48.3872C139.965 49.1991 139.604 49.9562 139.041 50.5514C138.478 51.1466 137.742 51.5498 136.938 51.704C136.133 51.8581 135.301 51.7554 134.558 51.4105C133.815 51.0655 133.199 50.4956 132.798 49.7815C132.294 48.8861 132.165 47.8367 132.015 46.8204C131.866 45.8042 131.672 44.7527 131.071 43.9196C130.47 43.0866 129.346 42.5425 128.391 42.9219L127.589 41.3677Z" fill="#2F2E41"/>
<path d="M65.6144 44.2755C63.8768 44.2753 62.2104 43.5849 60.9817 42.3562C59.7531 41.1275 59.0628 39.4611 59.0627 37.7235C59.0626 36.5384 59.0634 35.6323 59.0652 35.5034C59.1205 31.4442 60.1427 27.4567 62.0473 23.8716C58.9182 28.1553 57.1976 33.3056 57.1237 38.61C57.1219 38.7388 57.121 39.6449 57.1211 40.83C57.1212 42.5676 57.8115 44.234 59.0401 45.4628C60.2688 46.6915 61.9352 47.3819 63.6728 47.3821C65.1006 47.3815 66.4893 46.9149 67.6278 46.0532C68.7663 45.1915 69.5924 43.9817 69.9806 42.6076C68.7809 43.6834 67.2258 44.2775 65.6144 44.2755Z" fill="#3F3D56"/>
<path d="M83.2452 27.0092C85.254 27.1052 87.2096 27.6872 88.9439 28.7054C90.6782 29.7236 92.1394 31.1474 93.2022 32.8548C94.265 34.5621 94.8976 36.5018 95.0456 38.5075C95.1936 40.5131 94.8526 42.5247 94.0519 44.3695C95.2101 43.0094 96.0613 41.4155 96.5476 39.6965C97.0339 37.9776 97.1438 36.174 96.8699 34.4087C96.596 32.6434 95.9446 30.9579 94.9603 29.4672C93.9759 27.9764 92.6817 26.7155 91.1658 25.7703C89.65 24.8251 87.9481 24.2178 86.1763 23.9899C84.4045 23.7621 82.6043 23.9189 80.8986 24.4498C79.1929 24.9807 77.6217 25.8731 76.2922 27.0663C74.9627 28.2594 73.906 29.7253 73.1943 31.3638C74.4244 29.9168 75.9703 28.7716 77.713 28.0166C79.4556 27.2617 81.3483 26.917 83.2452 27.0092Z" fill="#3F3D56"/>
<path d="M85.261 85.0488C83.4885 85.0492 81.7868 84.3527 80.5231 83.1096C79.2594 81.8666 78.5351 80.1766 78.5063 78.4042C78.4241 73.2675 78.3815 66.9387 78.3815 66.2154C78.3804 64.4558 78.6337 62.7053 79.1336 61.0182L79.1312 61.0176C79.4264 60.1708 79.783 59.3466 80.198 58.5516C78.924 60.2494 77.9101 62.1275 77.1897 64.1241L77.192 64.1247C76.6921 65.8118 76.4388 67.5623 76.4399 69.3219C76.4399 70.0453 76.4825 76.374 76.5647 81.5107C76.5935 83.2831 77.3178 84.9731 78.5815 86.2162C79.8452 87.4592 81.5469 88.1557 83.3195 88.1553C84.781 88.155 86.2031 87.6809 87.3723 86.8041C88.5416 85.9272 89.3951 84.6949 89.8047 83.2919C88.5627 84.4244 86.9419 85.0511 85.261 85.0488Z" fill="#3F3D56"/>
<path d="M24.5685 113.114L26.9486 113.113L28.0812 103.932L24.5679 103.932L24.5685 113.114Z" fill="#FFB8B8"/>
<path d="M31.5386 115.324L24.0575 115.324L24.0574 112.434L28.648 112.433C29.4146 112.433 30.1498 112.738 30.6919 113.28C31.234 113.822 31.5385 114.557 31.5386 115.324L31.5386 115.324Z" fill="#2F2E41"/>
<path d="M16.0255 113.114L18.4057 113.113L19.5382 103.932L16.0249 103.932L16.0255 113.114Z" fill="#FFB8B8"/>
<path d="M22.9961 115.324L15.515 115.324L15.5149 112.434L20.1056 112.433C20.8721 112.433 21.6073 112.738 22.1494 113.28C22.6915 113.822 22.9961 114.557 22.9961 115.324L22.9961 115.324Z" fill="#2F2E41"/>
<path d="M18.1052 110.29L15.7802 110.168C15.6603 110.161 15.5428 110.131 15.4346 110.079C15.3264 110.027 15.2296 109.954 15.1498 109.865C15.07 109.775 15.0088 109.67 14.9698 109.557C14.9307 109.443 14.9146 109.323 14.9223 109.203L17.7012 78.4357L30.4984 81.889L31.7313 81.5526L27.8757 108.79C27.8428 108.995 27.7411 109.182 27.5872 109.322C27.4334 109.461 27.2366 109.544 27.0295 109.556L24.5231 109.673C24.3978 109.68 24.2724 109.661 24.1548 109.617C24.0373 109.573 23.9301 109.505 23.8401 109.417C23.7501 109.33 23.6793 109.224 23.632 109.108C23.5848 108.992 23.5622 108.867 23.5656 108.742L24.0198 92.3942C24.0219 92.3186 23.9956 92.2449 23.9461 92.1877C23.8967 92.1305 23.8276 92.094 23.7525 92.0852C23.6773 92.0764 23.6017 92.0961 23.5403 92.1403C23.479 92.1846 23.4365 92.2502 23.4211 92.3243L19.0415 109.568C19.0002 109.773 18.8892 109.956 18.7274 110.088C18.5656 110.22 18.3631 110.292 18.1544 110.291C18.1381 110.291 18.1217 110.291 18.1052 110.29Z" fill="#2F2E41"/>
<path d="M24.9953 53.2615C27.629 53.2615 29.764 51.1264 29.764 48.4927C29.764 45.859 27.629 43.724 24.9953 43.724C22.3616 43.724 20.2266 45.859 20.2266 48.4927C20.2266 51.1264 22.3616 53.2615 24.9953 53.2615Z" fill="#FFB8B8"/>
<path d="M17.0562 62.503L17.5805 73.8161L17.7701 77.932C17.7776 78.1111 17.8385 78.284 17.9448 78.4284C18.0511 78.5728 18.1981 78.6822 18.367 78.7426L30.6642 83.1973C30.7635 83.2342 30.8688 83.2527 30.9748 83.2517C31.0959 83.2523 31.2159 83.2285 31.3276 83.1817C31.4393 83.1348 31.5405 83.066 31.625 82.9792C31.7095 82.8925 31.7756 82.7896 31.8195 82.6766C31.8634 82.5637 31.884 82.4431 31.8803 82.3221L31.3761 61.9807C31.343 60.3118 30.7287 58.7067 29.639 57.4422C28.5494 56.1777 27.0527 55.333 25.407 55.0537C25.288 55.0355 25.167 55.0174 25.046 55.0012C24.0255 54.8746 22.9897 54.973 22.0114 55.2897C21.0331 55.6064 20.136 56.1337 19.3834 56.8343C18.604 57.5511 17.9916 58.4304 17.5895 59.4099C17.1874 60.3894 17.0053 61.4453 17.0562 62.503L17.0562 62.503Z" fill="#CCCCCC"/>
<path d="M36.5387 80.9399C36.2478 80.8496 35.9821 80.6926 35.7627 80.4814C35.5433 80.2702 35.3763 80.0107 35.2751 79.7235C35.1738 79.4363 35.1411 79.1294 35.1795 78.8273C35.2179 78.5252 35.3264 78.2362 35.4963 77.9835L31.3262 72.4384L34.9247 72.2156L38.3331 77.5156C38.698 77.7977 38.9519 78.1992 39.0503 78.6498C39.1486 79.1004 39.0852 79.5713 38.8712 79.9798C38.6571 80.3883 38.306 80.7085 37.8795 80.884C37.453 81.0596 36.9783 81.0793 36.5387 80.9399H36.5387Z" fill="#FFB8B8"/>
<path d="M33.6064 76.98C33.4959 76.9352 33.3954 76.8689 33.3107 76.785C33.2261 76.701 33.1589 76.6011 33.113 76.4911L26.8304 61.5226C26.7071 61.2295 26.6428 60.915 26.6411 60.5971C26.6395 60.2791 26.7005 59.964 26.8206 59.6696C26.9408 59.3753 27.1178 59.1075 27.3415 58.8816C27.5653 58.6557 27.8313 58.476 28.1245 58.353C28.4176 58.23 28.7322 58.1659 29.0501 58.1645C29.368 58.163 29.6832 58.2243 29.9774 58.3447C30.2717 58.4651 30.5393 58.6423 30.7651 58.8662C30.9908 59.0901 31.1702 59.3563 31.293 59.6495L37.5756 74.6182C37.6685 74.8401 37.6695 75.0899 37.5785 75.3126C37.4875 75.5353 37.3119 75.7127 37.0901 75.8061L34.301 76.9767C34.1912 77.0232 34.0732 77.0474 33.954 77.048C33.8348 77.0485 33.7166 77.0255 33.6064 76.98L33.6064 76.98Z" fill="#CCCCCC"/>
<path d="M23.4626 76.4521L29.4969 64.8979C29.6132 64.6757 29.813 64.5088 30.0523 64.4337C30.2916 64.3585 30.551 64.3814 30.7734 64.4973L39.5322 69.0717C39.7544 69.1881 39.9214 69.3878 39.9965 69.6271C40.0716 69.8665 40.0487 70.1258 39.9329 70.3483L33.8986 81.9024C33.7822 82.1246 33.5824 82.2916 33.3431 82.3667C33.1038 82.4418 32.8444 82.4189 32.622 82.303L23.8632 77.7286C23.641 77.6123 23.474 77.4125 23.3989 77.1732C23.3238 76.9339 23.3467 76.6745 23.4626 76.4521Z" fill="#3F3D56"/>
<path d="M27.5094 71.1732C27.4021 70.8882 27.2297 70.6322 27.0059 70.4257C26.7821 70.2191 26.5132 70.0677 26.2205 69.9836C25.9278 69.8995 25.6195 69.8849 25.3202 69.9411C25.0209 69.9973 24.7389 70.1227 24.4966 70.3072L18.7149 66.4718L18.7051 70.0773L24.197 73.1667C24.5002 73.5143 24.916 73.744 25.3717 73.8156C25.8273 73.8872 26.2936 73.7962 26.6888 73.5583C27.0839 73.3205 27.3828 72.9511 27.5328 72.515C27.6829 72.0789 27.6746 71.6038 27.5094 71.1732Z" fill="#FFB8B8"/>
<path d="M20.199 71.9841L15.4738 68.2412C14.9626 68.0695 14.5007 67.7764 14.1278 67.387C13.7548 66.9975 13.482 66.5234 13.3326 66.0053C13.1832 65.4871 13.1618 64.9405 13.2702 64.4123C13.3785 63.8841 13.6135 63.3901 13.9548 62.9726L18.2452 57.3499C18.5433 56.9856 18.9626 56.7407 19.4264 56.6601C19.8902 56.5794 20.3676 56.6684 20.7712 56.9107C21.1748 57.1531 21.4777 57.5325 21.6246 57.9798C21.7714 58.4271 21.7524 58.9123 21.571 59.3467L18.1764 64.8996L23.1651 67.2658C23.2811 67.3208 23.3841 67.3998 23.4673 67.4976C23.5505 67.5954 23.612 67.7097 23.6478 67.833C23.6835 67.9563 23.6927 68.0858 23.6747 68.213C23.6567 68.3401 23.6119 68.4619 23.5433 68.5705L21.5296 71.7574C21.4615 71.865 21.3716 71.957 21.2657 72.0276C21.1598 72.0982 21.0402 72.1458 20.9147 72.1673C20.9097 72.1681 20.9047 72.1689 20.8997 72.1697C20.7764 72.1883 20.6506 72.1814 20.5301 72.1495C20.4096 72.1176 20.2969 72.0613 20.199 71.9841Z" fill="#CCCCCC"/>
<path d="M21.3919 51.6859C21.3714 51.6261 21.3649 51.5623 21.3729 51.4996C21.3809 51.4368 21.4031 51.3767 21.4379 51.3239C21.4727 51.2711 21.5191 51.2269 21.5736 51.1948C21.6281 51.1627 21.6892 51.1434 21.7523 51.1386C21.8814 51.1456 22.0078 51.1787 22.1238 51.236C22.2398 51.2932 22.343 51.3733 22.4272 51.4716C22.5998 51.6705 22.8007 51.8431 23.0235 51.9836C23.2542 52.0998 23.567 52.0833 23.6986 51.8616C23.822 51.6534 23.7374 51.3746 23.6627 51.1328C23.4724 50.5176 23.366 49.8796 23.3462 49.2359C23.3247 48.5175 23.426 47.7677 23.8238 47.2073C24.3371 46.4841 25.255 46.2096 26.1237 46.2295C26.9923 46.2494 27.8469 46.5175 28.7074 46.687C29.0044 46.7456 29.3536 46.7755 29.5522 46.5453C29.7635 46.3005 29.6859 45.9043 29.5961 45.5737C29.3629 44.7161 29.1155 43.8293 28.5738 43.1366C27.988 42.4169 27.1513 41.9458 26.2321 41.8183C25.3496 41.7089 24.4537 41.8106 23.6182 42.115C22.257 42.5441 21.0591 43.3785 20.185 44.5068C19.2838 45.7066 18.8944 47.2145 19.1019 48.7006C19.3046 49.995 19.9905 51.1644 21.0213 51.9731L21.3919 51.6859Z" fill="#2F2E41"/>
<path d="M81.7898 113.152C80.5211 112.599 79.3981 111.759 78.5096 110.698C77.621 109.637 76.9912 108.384 76.6698 107.038C76.3484 105.692 76.3442 104.29 76.6576 102.942C76.9709 101.594 77.5933 100.338 78.4755 99.2714C77.4526 100.018 76.6003 100.974 75.9751 102.075C75.3499 103.177 74.9661 104.399 74.8492 105.66C74.7323 106.921 74.8849 108.192 75.2969 109.39C75.709 110.587 76.371 111.684 77.2391 112.606C78.1072 113.528 79.1615 114.255 80.3321 114.738C81.5026 115.222 82.7626 115.451 84.0284 115.41C85.2942 115.37 86.5369 115.06 87.674 114.503C88.8111 113.945 89.8166 113.152 90.6237 112.176C89.3648 113.096 87.8868 113.67 86.3369 113.841C84.7869 114.013 83.2192 113.775 81.7898 113.152Z" fill="#3F3D56"/>
</svg>
