<svg width="35" height="36" viewBox="0 0 35 36" fill="none" xmlns="http://www.w3.org/2000/svg">
<path d="M6.2211 30.1646C7.35685 31.2445 9.15305 31.1993 10.233 30.0636C11.313 28.9278 11.2678 27.1316 10.132 26.0516C8.99627 24.9717 7.20007 25.0169 6.1201 26.1526C5.04012 27.2884 5.08534 29.0846 6.2211 30.1646Z" fill="#FFD700"/>
<path d="M28.3613 6.44024C25.1257 3.40681 20.0106 3.51628 16.909 6.68661C16.8804 6.71588 16.6818 6.92433 16.4224 7.19722C16.0419 7.59734 15.836 8.13217 15.8499 8.6841C15.8638 9.23602 16.0963 9.75983 16.4964 10.1403L16.4964 10.1403C16.6947 10.3289 16.9283 10.4765 17.1838 10.5747C17.4392 10.673 17.7115 10.7199 17.9851 10.7129C18.2587 10.7058 18.5282 10.645 18.7783 10.5337C19.0283 10.4225 19.254 10.2631 19.4424 10.0646C19.6188 9.87879 19.7409 9.75023 19.7484 9.74234C20.2205 9.24557 20.8139 8.88026 21.4701 8.68236C22.1263 8.48446 22.8227 8.46079 23.4908 8.61367C24.1589 8.76655 24.7757 9.09072 25.2805 9.55428C25.7854 10.0178 26.1608 10.6048 26.37 11.2575C26.5791 11.9102 26.6148 12.6061 26.4734 13.2767C26.3321 13.9474 26.0186 14.5697 25.5638 15.0824C25.1089 15.5951 24.5285 15.9806 23.8795 16.201C23.2305 16.4214 22.5353 16.469 21.8624 16.3392L21.8623 16.3403C21.8623 16.3403 18.4007 15.6809 15.943 16.9547L15.9435 16.9553C15.459 17.2343 15.0174 17.5819 14.6324 17.9874C14.474 18.1539 13.0982 19.6204 11.9924 20.8212C11.611 21.2356 11.4078 21.7833 11.4266 22.3462C11.4454 22.9091 11.6847 23.4421 12.093 23.8301L12.093 23.8301C12.298 24.0251 12.5397 24.1776 12.8039 24.2789C13.0682 24.3801 13.3499 24.4281 13.6328 24.4201C13.9156 24.4121 14.1942 24.3483 14.4523 24.2322C14.7104 24.1162 14.943 23.9503 15.1367 23.744C16.1602 22.6545 17.3559 21.3899 17.443 21.2984C18.5501 20.134 20.7765 20.042 22.4186 20.1628C24.3094 20.3019 26.2029 19.8417 27.7834 18.7945C28.1135 18.5834 28.4195 18.3367 28.6957 18.0588C29.4403 17.2758 30.0225 16.3532 30.4089 15.3443C30.7953 14.3353 30.9782 13.2598 30.9471 12.1799C30.916 11.0999 30.6715 10.0367 30.2277 9.05166C29.7839 8.06659 29.1496 7.17907 28.3613 6.44024Z" fill="#FFD700"/>
<path d="M17.6007 9.83173C17.2006 9.45124 16.9681 8.92743 16.9542 8.3755C16.9404 7.82358 17.1463 7.28874 17.5267 6.88862C17.7861 6.61573 17.9847 6.40728 18.0133 6.37801C18.9148 5.45545 20.0232 4.76113 21.2467 4.35265C19.5883 4.65388 18.0645 5.46304 16.8861 6.6682C16.8575 6.69748 16.6589 6.90592 16.3995 7.17881C16.019 7.57893 15.8131 8.11377 15.827 8.66569C15.8409 9.21762 16.0734 9.74143 16.4735 10.1219C16.8024 10.4344 17.2243 10.631 17.6751 10.6819C18.1259 10.7327 18.581 10.635 18.9712 10.4036C18.4595 10.3887 17.9713 10.185 17.6007 9.83173Z" fill="#3F3D56"/>
<path d="M25.4407 9.71626C25.8822 10.1782 26.205 10.7403 26.3814 11.3545C26.5578 11.9686 26.5826 12.6164 26.4535 13.2423C26.3244 13.8681 26.0453 14.4532 25.6403 14.9474C25.2352 15.4416 24.7163 15.8301 24.128 16.0796C24.6925 16.02 25.2374 15.8394 25.7258 15.5501C26.2141 15.2607 26.6343 14.8695 26.9577 14.4031C27.2812 13.9366 27.5002 13.4059 27.5999 12.8472C27.6997 12.2884 27.6778 11.7147 27.5357 11.1652C27.3936 10.6156 27.1347 10.1032 26.7766 9.66279C26.4185 9.22239 25.9697 8.86437 25.4607 8.61316C24.9517 8.36194 24.3946 8.22342 23.8272 8.20706C23.2598 8.19069 22.6956 8.29685 22.173 8.51831C22.773 8.45444 23.3797 8.52925 23.9463 8.73695C24.5128 8.94465 25.0241 9.2797 25.4407 9.71626Z" fill="#3F3D56"/>
<path d="M13.1974 23.5216C12.7892 23.1335 12.5499 22.6006 12.5311 22.0377C12.5123 21.4748 12.7155 20.9271 13.0969 20.5127C14.2027 19.3119 15.5785 17.8454 15.7369 17.6789C16.1219 17.2734 16.5635 16.9258 17.048 16.6468L17.0475 16.6462C17.3009 16.5158 17.5635 16.4041 17.8331 16.3119C17.168 16.4239 16.5234 16.6344 15.9203 16.9364L15.9207 16.937C15.4363 17.216 14.9947 17.5636 14.6097 17.969C14.4513 18.1356 13.0754 19.6021 11.9697 20.8029C11.5883 21.2173 11.385 21.765 11.4038 22.3279C11.4227 22.8908 11.662 23.4237 12.0702 23.8117C12.4068 24.1317 12.838 24.3339 13.2993 24.388C13.7605 24.4421 14.2268 24.3452 14.6283 24.1119C14.0944 24.1007 13.5839 23.8901 13.1974 23.5216Z" fill="#3F3D56"/>
<path d="M6.24502 29.2322C6.07387 28.8272 5.9992 28.388 6.02689 27.9491C6.05457 27.5103 6.18387 27.0839 6.40457 26.7036C6.62527 26.3233 6.93133 25.9995 7.2986 25.7578C7.66588 25.516 8.08431 25.363 8.52088 25.3106C8.12185 25.2586 7.71633 25.2921 7.33122 25.4088C6.94612 25.5255 6.59025 25.7228 6.28722 25.9876C5.9842 26.2523 5.74095 26.5785 5.57362 26.9445C5.4063 27.3104 5.31872 27.7078 5.3167 28.1102C5.31469 28.5126 5.39828 28.9108 5.56193 29.2784C5.72559 29.6461 5.96556 29.9747 6.26592 30.2425C6.56628 30.5102 6.92015 30.7111 7.30407 30.8316C7.68798 30.9522 8.09315 30.9897 8.49268 30.9417C8.00134 30.878 7.53529 30.6866 7.14093 30.3867C6.74658 30.0867 6.43768 29.6887 6.24502 29.2322Z" fill="#3F3D56"/>
</svg>
