<svg width="25" height="25" viewBox="0 0 25 25" fill="none" xmlns="http://www.w3.org/2000/svg">
<path d="M3.03906 7.45175C3.03906 5.54132 3.03906 4.5861 3.63256 3.9926C4.22605 3.39911 5.18127 3.39911 7.0917 3.39911H17.2233C19.1337 3.39911 20.089 3.39911 20.6825 3.9926C21.2759 4.5861 21.2759 5.54132 21.2759 7.45175V17.5834C21.2759 19.4938 21.2759 20.449 20.6825 21.0425C20.089 21.636 19.1337 21.636 17.2233 21.636H7.09171C5.18127 21.636 4.22605 21.636 3.63256 21.0425C3.03906 20.449 3.03906 19.4938 3.03906 17.5834V7.45175Z" stroke="#231F20" stroke-width="2.02632"/>
<path fill-rule="evenodd" clip-rule="evenodd" d="M18.2365 10.4913H12.823C11.9947 10.4913 11.5806 10.4913 11.2082 10.337C10.8359 10.1828 10.543 9.88997 9.95735 9.3043L9.29185 8.6388C8.70619 8.05314 8.41335 7.7603 8.04097 7.60606C7.66859 7.45181 7.25446 7.45181 6.42621 7.45181H3.03906V17.5834C3.03906 19.4938 3.03906 20.4491 3.63256 21.0426C4.22605 21.6361 5.18127 21.6361 7.0917 21.6361H17.2233C19.1337 21.6361 20.089 21.6361 20.6825 21.0426C21.2759 20.4491 21.2759 19.4938 21.2759 17.5834V7.45181C21.2759 8.39596 21.2759 8.86803 21.1217 9.24041C20.916 9.73692 20.5216 10.1314 20.0251 10.337C19.6527 10.4913 19.1806 10.4913 18.2365 10.4913ZM7.08984 15.5571C6.53029 15.5571 6.07668 16.0107 6.07668 16.5702C6.07668 17.1298 6.53029 17.5834 7.08984 17.5834H15.1951C15.7547 17.5834 16.2083 17.1298 16.2083 16.5702C16.2083 16.0107 15.7547 15.5571 15.1951 15.5571H7.08984Z" fill="#231F20"/>
</svg>
