<svg width="39" height="34" viewBox="0 0 39 34" fill="none" xmlns="http://www.w3.org/2000/svg">
<path d="M20.2915 6.36139C20.2915 8.3133 16.4939 9.89563 11.8093 9.89563C7.12475 9.89563 3.32715 8.3133 3.32715 6.36139M20.2915 6.36139C20.2915 4.40948 16.4939 2.82715 11.8093 2.82715C7.12475 2.82715 3.32715 4.40948 3.32715 6.36139M20.2915 6.36139V12.0162M3.32715 6.36139V12.0162M20.2915 12.0162C20.2915 13.9681 16.4939 15.5504 11.8093 15.5504C7.12475 15.5504 3.32715 13.9681 3.32715 12.0162M20.2915 12.0162V18.5789M3.32715 12.0162V17.671M3.32715 17.671C3.32715 19.6229 7.12475 21.2052 11.8093 21.2052C12.9195 21.2052 13.9798 21.1164 14.9516 20.9548M3.32715 17.671V23.3258C3.32715 25.2777 7.12475 26.86 11.8093 26.86C12.8007 26.86 13.7524 26.7891 14.6367 26.6589M31.6011 21.9121C31.6011 23.864 27.8035 25.4463 23.1189 25.4463C18.4343 25.4463 14.6367 23.864 14.6367 21.9121M31.6011 21.9121C31.6011 19.9601 27.8035 18.3778 23.1189 18.3778C22.1275 18.3778 21.1759 18.4487 20.2915 18.5789M31.6011 21.9121V27.5668C31.6011 29.5188 27.8035 31.1011 23.1189 31.1011C18.4343 31.1011 14.6367 29.5188 14.6367 27.5668V26.6589M14.6367 21.9121V26.6589M14.6367 21.9121C14.6367 21.5803 14.7464 21.2592 14.9516 20.9548M14.9516 20.9548C15.6979 19.8471 17.7073 18.9595 20.2915 18.5789" stroke="#1F1F1F" stroke-width="1.69644" stroke-linecap="round"/>
<g clip-path="url(#clip0_260_2573)">
<path d="M22.722 11.7343C22.457 11.4693 22.0274 11.4693 21.7624 11.7343C21.4974 11.9993 21.4974 12.429 21.7624 12.694L22.722 11.7343ZM26.4833 16.4553L26.0035 16.9351C26.2685 17.2001 26.6981 17.2001 26.9631 16.9351L26.4833 16.4553ZM34.7384 9.15975C35.0034 8.89475 35.0034 8.4651 34.7384 8.2001C34.4734 7.9351 34.0438 7.9351 33.7788 8.2001L34.7384 9.15975ZM26.2563 11.7343C25.9913 11.4693 25.5616 11.4693 25.2966 11.7343C25.0316 11.9993 25.0316 12.429 25.2966 12.694L26.2563 11.7343ZM29.5377 15.9754C29.2727 16.2404 29.2727 16.6701 29.5377 16.9351C29.8027 17.2001 30.2323 17.2001 30.4973 16.9351L29.5377 15.9754ZM38.2727 9.15975C38.5377 8.89475 38.5377 8.4651 38.2727 8.2001C38.0077 7.9351 37.578 7.9351 37.313 8.2001L38.2727 9.15975ZM21.7624 12.694L26.0035 16.9351L26.9631 15.9754L22.722 11.7343L21.7624 12.694ZM30.4973 16.9351L38.2727 9.15975L37.313 8.2001L29.5377 15.9754L30.4973 16.9351ZM26.9631 16.9351L28.7302 15.168L27.7706 14.2083L26.0035 15.9754L26.9631 16.9351ZM28.7302 15.168L34.7384 9.15975L33.7788 8.2001L27.7706 14.2083L28.7302 15.168ZM25.2966 12.694L27.7706 15.168L28.7302 14.2083L26.2563 11.7343L25.2966 12.694Z" fill="#1F1F1F"/>
</g>
<defs>
<clipPath id="clip0_260_2573">
<rect width="16.9644" height="16.9644" fill="white" transform="translate(21.5352 3.73266)"/>
</clipPath>
</defs>
</svg>
