<svg width="33" height="38" viewBox="0 0 33 38" fill="none" xmlns="http://www.w3.org/2000/svg">
<path d="M25.8024 33.2227C25.2062 31.554 23.8925 30.0795 22.0651 29.0278C20.2377 27.9761 17.9986 27.4061 15.6952 27.4061C13.3918 27.4061 11.1527 27.9761 9.32526 29.0278C7.49783 30.0795 6.18416 31.554 5.58799 33.2227" stroke="#1F1F1F" stroke-width="1.89104" stroke-linecap="round"/>
<circle cx="15.6957" cy="16.9426" r="5.23186" stroke="#1F1F1F" stroke-width="1.89104" stroke-linecap="round"/>
<path fill-rule="evenodd" clip-rule="evenodd" d="M26.4318 8.09872C26.3831 8.1186 26.3445 8.14826 26.2674 8.20757C26.2394 8.2291 26.2117 8.25095 26.1842 8.27312C25.4622 8.12637 24.8065 7.74795 24.3182 7.1963C24.3236 7.16136 24.3286 7.12634 24.3333 7.09125C24.346 6.99483 24.3523 6.94662 24.3451 6.89458C24.338 6.84253 24.3104 6.77799 24.2553 6.64889L24.2553 6.64888C23.9755 5.9942 23.9963 5.22056 24.379 4.55623L24.379 4.55612L24.379 4.55586L24.3791 4.55578L24.3792 4.55575L24.3797 4.55492C25.0266 3.43355 26.46 3.04886 27.5813 3.6957C28.7027 4.34254 29.0874 5.77596 28.4406 6.89734C28.0571 7.56213 27.3972 7.96801 26.6897 8.05354C26.5502 8.0704 26.4805 8.07883 26.4318 8.09872ZM24.0882 8.06972C24.0146 8.26529 23.927 8.45595 23.8258 8.64019C23.7986 8.68973 23.8003 8.75034 23.8314 8.7975C24.1026 9.20786 24.5512 9.46659 25.0421 9.49587C25.0986 9.49924 25.1519 9.47032 25.1811 9.42196C25.2899 9.24217 25.411 9.07093 25.5434 8.90937C25.0067 8.73092 24.5113 8.44509 24.0882 8.06972Z" fill="#333333"/>
<path d="M28.9355 7.25L30.512 7.80827" stroke="#1F1F1F" stroke-width="0.293678" stroke-linecap="round"/>
<path d="M27.6172 8.45801L28.0848 9.41262" stroke="#1F1F1F" stroke-width="0.293678" stroke-linecap="round"/>
<path d="M23.4219 6.01562L22.3462 6.33065" stroke="#1F1F1F" stroke-width="0.293678" stroke-linecap="round"/>
<path d="M23.8037 4.29102L22.4164 3.0706" stroke="#1F1F1F" stroke-width="0.293678" stroke-linecap="round"/>
<path d="M27.9227 3.27029L28.9099 1.55876" stroke="#1F1F1F" stroke-width="0.293678" stroke-linecap="round"/>
<path d="M25.6696 2.76918L25.3883 1.64287" stroke="#1F1F1F" stroke-width="0.293678" stroke-linecap="round"/>
<path d="M29.4833 5.1222L30.5577 5.10854" stroke="#1F1F1F" stroke-width="0.293678" stroke-linecap="round"/>
</svg>
