<svg width="21" height="20" viewBox="0 0 21 20" fill="none" xmlns="http://www.w3.org/2000/svg">
<g clip-path="url(#clip0_456_1768)">
<path d="M13.6359 8.31088C14.4135 8.86645 15.3661 9.19334 16.3949 9.19334V7.21459C16.2002 7.21463 16.006 7.19432 15.8155 7.15398V8.71154C14.7867 8.71154 13.8342 8.38469 13.0565 7.82916V11.8673C13.0565 13.8873 11.418 15.5248 9.39706 15.5248C8.64299 15.5248 7.94208 15.297 7.35986 14.9062C8.02439 15.5853 8.95111 16.0066 9.97633 16.0066C11.9975 16.0066 13.636 14.3691 13.636 12.3489V8.31088H13.6359ZM14.3507 6.31456C13.9533 5.88063 13.6923 5.31985 13.6359 4.69988V4.44538H13.0868C13.225 5.23334 13.6964 5.90653 14.3506 6.31456H14.3507ZM8.63812 13.356C8.41609 13.0651 8.29608 12.7091 8.29662 12.3431C8.29662 11.4193 9.04603 10.6701 9.97062 10.6701C10.1429 10.6701 10.3142 10.6965 10.4784 10.7485V8.72553C10.2865 8.69926 10.0928 8.68806 9.89923 8.69218V10.2668C9.73492 10.2147 9.56356 10.1883 9.39119 10.1884C8.46664 10.1884 7.71727 10.9375 7.71727 11.8615C7.71727 12.5148 8.09183 13.0805 8.63812 13.356Z" fill="#F6F6F6"/>
<path d="M13.0571 7.82912C13.8349 8.38465 14.7873 8.7115 15.8161 8.7115V7.15393C15.2418 7.03166 14.7335 6.73175 14.3512 6.31456C13.697 5.90648 13.2256 5.2333 13.0874 4.44538H11.6451V12.3489C11.6419 13.2702 10.8937 14.0163 9.97114 14.0163C9.42751 14.0163 8.9445 13.7573 8.63863 13.356C8.09243 13.0805 7.71783 12.5148 7.71783 11.8615C7.71783 10.9376 8.4672 10.1885 9.39175 10.1885C9.56889 10.1885 9.73962 10.216 9.89978 10.2668V8.69222C7.91429 8.73323 6.3175 10.3547 6.3175 12.3489C6.3175 13.3444 6.71513 14.2468 7.3605 14.9062C7.94272 15.297 8.64359 15.5249 9.3977 15.5249C11.4187 15.5249 13.0571 13.8873 13.0571 11.8673V7.82916H13.0571V7.82912Z" fill="#F6F6F6"/>
<path d="M15.8158 7.15365V6.73259C15.2979 6.73337 14.7903 6.58842 14.3509 6.31431C14.7398 6.73988 15.252 7.03335 15.8158 7.15373V7.15365ZM13.087 4.44509C13.0738 4.36981 13.0637 4.29402 13.0567 4.21791V3.96342H11.0653V11.867C11.0621 12.7883 10.314 13.5343 9.39138 13.5343C9.12982 13.5347 8.87184 13.4736 8.63827 13.3558C8.94414 13.757 9.42715 14.016 9.97077 14.016C10.8933 14.016 11.6415 13.27 11.6448 12.3486V4.44514H13.087V4.44509ZM9.89954 8.69194V8.24361C9.73313 8.22086 9.56537 8.20948 9.39742 8.20955C7.37621 8.20955 5.73779 9.84709 5.73779 11.867C5.73779 13.1334 6.38171 14.2494 7.36022 14.9059C6.71485 14.2466 6.31722 13.3441 6.31722 12.3486C6.31722 10.3545 7.91396 8.73299 9.89954 8.69198V8.69194Z" fill="#F6F6F6"/>
</g>
<circle cx="10.5671" cy="10" r="9.41707" stroke="#F6F6F6" stroke-width="0.72439"/>
<defs>
<clipPath id="clip0_456_1768">
<rect width="10.6577" height="12.0732" fill="white" transform="translate(5.73779 3.96342)"/>
</clipPath>
</defs>
</svg>
