<svg width="25" height="24" viewBox="0 0 25 24" fill="none" xmlns="http://www.w3.org/2000/svg">
<g clip-path="url(#clip0_478_4697)">
<path d="M17.5083 11.0041C18.5823 11.7714 19.8979 12.2229 21.3189 12.2229V9.49007C21.0499 9.49013 20.7817 9.46207 20.5186 9.40636V11.5575C19.0978 11.5575 17.7823 11.1061 16.7082 10.3388V15.9158C16.7082 18.7058 14.4453 20.9673 11.6541 20.9673C10.6127 20.9673 9.64468 20.6526 8.84058 20.1129C9.75835 21.0508 11.0382 21.6326 12.4542 21.6326C15.2455 21.6326 17.5085 19.3711 17.5085 16.5811V11.0041H17.5083V11.0041ZM18.4956 8.24704C17.9467 7.64774 17.5863 6.87326 17.5083 6.01701V5.66553H16.75C16.9409 6.75378 17.592 7.68351 18.4955 8.24704H18.4956ZM10.606 17.972C10.2993 17.5702 10.1336 17.0786 10.1343 16.5731C10.1343 15.2971 11.1693 14.2625 12.4463 14.2625C12.6842 14.2624 12.9208 14.2989 13.1476 14.3708V11.5768C12.8825 11.5405 12.615 11.5251 12.3477 11.5308V13.7054C12.1208 13.6335 11.8841 13.597 11.646 13.5972C10.3691 13.5972 9.33419 14.6317 9.33419 15.9079C9.33419 16.8102 9.85149 17.5914 10.606 17.972Z" fill="#606060"/>
<path d="M16.7089 10.3388C17.7831 11.106 19.0985 11.5574 20.5193 11.5574V9.4063C19.7262 9.23743 19.0241 8.82322 18.4962 8.24704C17.5927 7.68345 16.9416 6.75372 16.7507 5.66553H14.7589V16.581C14.7543 17.8535 13.7211 18.8839 12.4469 18.8839C11.6961 18.8839 11.029 18.5262 10.6066 17.9719C9.85222 17.5914 9.33486 16.8102 9.33486 15.9079C9.33486 14.6319 10.3698 13.5973 11.6467 13.5973C11.8914 13.5973 12.1272 13.6353 12.3483 13.7055V11.5308C9.60619 11.5875 7.40088 13.8269 7.40088 16.581C7.40088 17.9559 7.95004 19.2023 8.84136 20.113C9.64546 20.6526 10.6134 20.9674 11.6549 20.9674C14.4461 20.9674 16.7089 18.7057 16.7089 15.9158V10.3388H16.7089V10.3388Z" fill="#656565"/>
<path d="M20.5187 9.40601V8.82449C19.8035 8.82557 19.1024 8.62538 18.4956 8.24681C19.0328 8.83456 19.7401 9.23986 20.5187 9.40613V9.40601ZM16.7501 5.66524C16.7319 5.56127 16.7179 5.45659 16.7082 5.35148V5H13.9579V15.9156C13.9535 17.188 12.9203 18.2183 11.6461 18.2183C11.2848 18.2189 10.9285 18.1344 10.6059 17.9718C11.0284 18.5259 11.6954 18.8836 12.4462 18.8836C13.7204 18.8836 14.7537 17.8533 14.7582 16.5808V5.6653H16.7501V5.66524ZM12.3479 11.5305V10.9113C12.118 10.8799 11.8864 10.8642 11.6544 10.8643C8.8629 10.8643 6.6001 13.1259 6.6001 15.9156C6.6001 17.6646 7.48941 19.206 8.84082 20.1126C7.9495 19.202 7.40034 17.9556 7.40034 16.5808C7.40034 13.8266 9.60559 11.5872 12.3479 11.5306V11.5305Z" fill="#656565"/>
</g>
<defs>
<clipPath id="clip0_478_4697">
<rect width="14.7193" height="16.6742" fill="white" transform="translate(6.6001 5)"/>
</clipPath>
</defs>
</svg>
