<svg width="24" height="24" viewBox="0 0 24 24" fill="none" xmlns="http://www.w3.org/2000/svg">
<path d="M12 3C7.0297 3 3 7.05403 3 12.0543C3 16.5729 6.29073 20.3181 10.5941 21V14.6722H8.30783V12.0543H10.5941V10.0595C10.5941 7.78841 11.9379 6.53607 13.9928 6.53607C14.9775 6.53607 16.009 6.71265 16.009 6.71265V8.93933H14.8713C13.7552 8.93933 13.4059 9.63839 13.4059 10.3547V12.0525H15.9001L15.5014 14.6704H13.4059V20.9982C17.7093 20.32 21 16.5738 21 12.0543C21 7.05403 16.9703 3 12 3V3Z" fill="#656565"/>
</svg>
