<svg width="25" height="24" viewBox="0 0 25 24" fill="none" xmlns="http://www.w3.org/2000/svg">
<path d="M23.2109 9.20218C23.0947 8.77974 22.8675 8.39449 22.552 8.08477C22.2365 7.77505 21.8437 7.55166 21.4126 7.43684C19.8144 7.007 13.4203 7.00001 13.4203 7.00001C13.4203 7.00001 7.02722 6.99301 5.42793 7.40385C4.99716 7.52396 4.60514 7.7505 4.28951 8.06174C3.97389 8.37298 3.74525 8.75846 3.62554 9.18118C3.20404 10.7466 3.19995 13.9934 3.19995 13.9934C3.19995 13.9934 3.19587 17.2561 3.61432 18.8055C3.84906 19.6622 4.53796 20.339 5.41364 20.5699C7.02824 20.9997 13.405 21.0067 13.405 21.0067C13.405 21.0067 19.7991 21.0137 21.3973 20.6039C21.8285 20.4893 22.2217 20.2664 22.538 19.9573C22.8543 19.6482 23.0827 19.2636 23.2007 18.8415C23.6233 17.2771 23.6263 14.0314 23.6263 14.0314C23.6263 14.0314 23.6467 10.7676 23.2109 9.20218ZM11.375 17.0012L11.3801 11.0035L16.6944 14.0074L11.375 17.0012Z" fill="#656565"/>
</svg>
