<svg width="25" height="24" viewBox="0 0 25 24" fill="none" xmlns="http://www.w3.org/2000/svg">
<path d="M5.34702 3C4.27166 3 3.3999 3.87175 3.3999 4.94712C3.3999 6.02248 4.27166 6.89423 5.34702 6.89423C6.42238 6.89423 7.29413 6.02248 7.29413 4.94712C7.29413 3.87175 6.42238 3 5.34702 3Z" fill="#656565"/>
<path d="M3.51444 8.49774C3.45118 8.49774 3.3999 8.54902 3.3999 8.61228V20.524C3.3999 20.5873 3.45118 20.6386 3.51444 20.6386H7.1796C7.24286 20.6386 7.29413 20.5873 7.29413 20.524V8.61228C7.29413 8.54902 7.24286 8.49774 7.1796 8.49774H3.51444Z" fill="#656565"/>
<path d="M9.47032 8.49774C9.40707 8.49774 9.35579 8.54902 9.35579 8.61228V20.524C9.35579 20.5873 9.40707 20.6386 9.47032 20.6386H13.1355C13.1987 20.6386 13.25 20.5873 13.25 20.524V14.11C13.25 13.6544 13.431 13.2174 13.7532 12.8952C14.0754 12.573 14.5124 12.392 14.9681 12.392C15.4237 12.392 15.8607 12.573 16.1829 12.8952C16.5051 13.2174 16.6861 13.6544 16.6861 14.11V20.524C16.6861 20.5873 16.7374 20.6386 16.8006 20.6386H20.4658C20.5291 20.6386 20.5803 20.5873 20.5803 20.524V12.6259C20.5803 10.4022 18.6464 8.66267 16.434 8.8638C15.7517 8.92583 15.0771 9.09544 14.4471 9.36542L13.25 9.87846V8.61228C13.25 8.54902 13.1987 8.49774 13.1355 8.49774H9.47032Z" fill="#656565"/>
</svg>
