<svg width="20" height="20" viewBox="0 0 20 20" fill="none" xmlns="http://www.w3.org/2000/svg">
<circle cx="9.94514" cy="10" r="9.41707" stroke="#F6F6F6" stroke-width="0.72439"/>
<path d="M14.4535 8.58858C14.46 8.67758 14.46 8.76607 14.46 8.85457C14.46 11.5628 12.4369 14.6836 8.73965 14.6836C7.60057 14.6836 6.54235 14.3474 5.65186 13.7635C5.81358 13.7823 5.96932 13.7889 6.13754 13.7889C7.04251 13.7912 7.92185 13.4828 8.63382 12.9137C8.21424 12.9059 7.80751 12.7649 7.47041 12.5102C7.13331 12.2555 6.88267 11.9 6.7535 11.4932C6.87779 11.512 7.00258 11.5247 7.13336 11.5247C7.31355 11.5247 7.49475 11.4993 7.66296 11.455C7.20761 11.3613 6.79816 11.1098 6.50423 10.7433C6.2103 10.3768 6.05003 9.91786 6.05068 9.44454V9.41911C6.31873 9.57118 6.62971 9.66628 6.95915 9.679C6.68316 9.49213 6.45686 9.23857 6.30043 8.94092C6.144 8.64328 6.06232 8.31081 6.06266 7.97318C6.06266 7.59275 6.16199 7.24386 6.3362 6.93972C6.84142 7.57293 7.47154 8.09095 8.18575 8.46024C8.89996 8.82952 9.68234 9.04184 10.4822 9.08344C10.4513 8.93086 10.4323 8.77269 10.4323 8.61401C10.4322 8.34494 10.4841 8.07849 10.5851 7.82988C10.6861 7.58127 10.8342 7.35538 11.0209 7.16512C11.2076 6.97486 11.4293 6.82397 11.6733 6.72106C11.9173 6.61816 12.1788 6.56526 12.4429 6.56539C13.0219 6.56539 13.5445 6.81257 13.9119 7.21232C14.362 7.12363 14.7937 6.95621 15.1878 6.71746C15.0377 7.19087 14.7234 7.59229 14.3038 7.84654C14.703 7.80014 15.0931 7.69317 15.4613 7.52918C15.1863 7.93763 14.8456 8.2958 14.4535 8.58858Z" fill="#F6F6F6"/>
</svg>
