<svg width="21" height="20" viewBox="0 0 21 20" fill="none" xmlns="http://www.w3.org/2000/svg">
<circle cx="10.4328" cy="10" r="9.41707" stroke="#F6F6F6" stroke-width="0.72439"/>
<path fill-rule="evenodd" clip-rule="evenodd" d="M6.73806 7.44971H14.7521C14.904 7.44971 15.0496 7.51002 15.1569 7.61737C15.2643 7.72472 15.3246 7.87033 15.3246 8.02214V12.6016C15.3246 12.7534 15.2643 12.899 15.1569 13.0064C15.0496 13.1137 14.904 13.1741 14.7521 13.1741H6.73806C6.58624 13.1741 6.44064 13.1137 6.33328 13.0064C6.22593 12.899 6.16562 12.7534 6.16562 12.6016V8.02214C6.16562 7.87033 6.22593 7.72472 6.33328 7.61737C6.44064 7.51002 6.58624 7.44971 6.73806 7.44971ZM5.02075 8.02214C5.02075 7.56669 5.20168 7.12988 5.52374 6.80783C5.8458 6.48577 6.2826 6.30484 6.73806 6.30484H14.7521C15.2076 6.30484 15.6444 6.48577 15.9665 6.80783C16.2885 7.12988 16.4694 7.56669 16.4694 8.02214V12.6016C16.4694 13.0571 16.2885 13.4939 15.9665 13.8159C15.6444 14.138 15.2076 14.3189 14.7521 14.3189H6.73806C6.2826 14.3189 5.8458 14.138 5.52374 13.8159C5.20168 13.4939 5.02075 13.0571 5.02075 12.6016V8.02214ZM9.60023 8.59458L11.89 10.3119L9.60023 12.0292V8.59458Z" fill="#F6F6F6"/>
</svg>
