<svg width="25" height="24" viewBox="0 0 25 24" fill="none" xmlns="http://www.w3.org/2000/svg">
<path d="M12.4636 10.9669C10.9671 10.9669 9.75402 12.18 9.75402 13.6764C9.75402 15.1729 10.9671 16.386 12.4636 16.386C13.96 16.386 15.1731 15.1729 15.1731 13.6764C15.1731 12.18 13.96 10.9669 12.4636 10.9669Z" fill="#656565"/>
<path fill-rule="evenodd" clip-rule="evenodd" d="M8.10289 6.24097C10.9776 5.91968 13.9496 5.91968 16.8243 6.24097C18.407 6.41786 19.6836 7.66491 19.8693 9.25317C20.2131 12.192 20.2131 15.1609 19.8693 18.0997C19.6836 19.688 18.407 20.935 16.8243 21.1119C13.9496 21.4332 10.9776 21.4332 8.10289 21.1119C6.52017 20.935 5.2436 19.688 5.05784 18.0997C4.71412 15.1609 4.71412 12.192 5.05784 9.25317C5.2436 7.66491 6.52017 6.41786 8.10289 6.24097ZM16.6321 8.67418C16.1717 8.67418 15.7984 9.04744 15.7984 9.50789C15.7984 9.96833 16.1717 10.3416 16.6321 10.3416C17.0926 10.3416 17.4658 9.96833 17.4658 9.50789C17.4658 9.04744 17.0926 8.67418 16.6321 8.67418ZM8.50345 13.6764C8.50345 11.4893 10.2765 9.71632 12.4636 9.71632C14.6507 9.71632 16.4237 11.4893 16.4237 13.6764C16.4237 15.8636 14.6507 17.6366 12.4636 17.6366C10.2765 17.6366 8.50345 15.8636 8.50345 13.6764Z" fill="#656565"/>
</svg>
