<svg width="20" height="20" viewBox="0 0 20 20" fill="none" xmlns="http://www.w3.org/2000/svg">
<path d="M10.189 8.03812C9.10549 8.03812 8.22712 8.91648 8.22712 10C8.22712 11.0835 9.10549 11.9619 10.189 11.9619C11.2725 11.9619 12.1509 11.0835 12.1509 10C12.1509 8.91648 11.2725 8.03812 10.189 8.03812Z" fill="#F6F6F6"/>
<path fill-rule="evenodd" clip-rule="evenodd" d="M7.0316 4.61626C9.11309 4.38362 11.265 4.38362 13.3464 4.61626C14.4924 4.74434 15.4167 5.64728 15.5512 6.79728C15.8001 8.92518 15.8001 11.0748 15.5512 13.2027C15.4167 14.3527 14.4924 15.2557 13.3464 15.3838C11.265 15.6164 9.11309 15.6164 7.0316 15.3838C5.88562 15.2557 4.9613 14.3527 4.82679 13.2027C4.57792 11.0748 4.57792 8.92518 4.82679 6.79728C4.9613 5.64728 5.88562 4.74434 7.0316 4.61626ZM13.2073 6.37805C12.8739 6.37805 12.6036 6.64832 12.6036 6.98171C12.6036 7.3151 12.8739 7.58537 13.2073 7.58537C13.5407 7.58537 13.811 7.3151 13.811 6.98171C13.811 6.64832 13.5407 6.37805 13.2073 6.37805ZM7.32164 10C7.32164 8.4164 8.6054 7.13263 10.189 7.13263C11.7726 7.13263 13.0564 8.4164 13.0564 10C13.0564 11.5836 11.7726 12.8674 10.189 12.8674C8.6054 12.8674 7.32164 11.5836 7.32164 10Z" fill="#F6F6F6"/>
<circle cx="10.189" cy="10" r="9.41707" stroke="#F6F6F6" stroke-width="0.72439"/>
</svg>
