<svg width="20" height="20" viewBox="0 0 20 20" fill="none" xmlns="http://www.w3.org/2000/svg">
<circle cx="9.81098" cy="10" r="9.41707" stroke="#F6F6F6" stroke-width="0.72439"/>
<path d="M6.98137 4.96323C6.45003 4.96323 6.01929 5.39396 6.01929 5.92531C6.01929 6.45665 6.45003 6.88739 6.98137 6.88739C7.51271 6.88739 7.94345 6.45665 7.94345 5.92531C7.94345 5.39396 7.51271 4.96323 6.98137 4.96323Z" fill="#F6F6F6"/>
<path d="M6.07588 7.67969C6.04462 7.67969 6.01929 7.70503 6.01929 7.73628V13.622C6.01929 13.6532 6.04462 13.6785 6.07588 13.6785H7.88686C7.91811 13.6785 7.94345 13.6532 7.94345 13.622V7.73628C7.94345 7.70503 7.91811 7.67969 7.88686 7.67969H6.07588Z" fill="#F6F6F6"/>
<path d="M9.01872 7.67969C8.98746 7.67969 8.96212 7.70503 8.96212 7.73628V13.622C8.96212 13.6532 8.98746 13.6785 9.01872 13.6785H10.8297C10.8609 13.6785 10.8863 13.6532 10.8863 13.622V10.4527C10.8863 10.2276 10.9757 10.0117 11.1349 9.85249C11.2941 9.69329 11.51 9.60385 11.7352 9.60385C11.9603 9.60385 12.1762 9.69329 12.3354 9.85249C12.4946 10.0117 12.5841 10.2276 12.5841 10.4527V13.622C12.5841 13.6532 12.6094 13.6785 12.6407 13.6785H14.4516C14.4829 13.6785 14.5082 13.6532 14.5082 13.622V9.71941C14.5082 8.62072 13.5527 7.76118 12.4595 7.86056C12.1224 7.89121 11.789 7.97502 11.4778 8.10841L10.8863 8.36191V7.73628C10.8863 7.70503 10.8609 7.67969 10.8297 7.67969H9.01872Z" fill="#F6F6F6"/>
</svg>
