<svg width="24" height="24" viewBox="0 0 24 24" fill="none" xmlns="http://www.w3.org/2000/svg">
<path d="M20.1831 9.19183C20.2314 9.12449 20.1601 9.03755 20.0828 9.0675C19.5336 9.28037 18.9597 9.42399 18.3742 9.49477C19.0261 9.10532 19.5291 8.51249 19.8081 7.81062C19.8365 7.73912 19.7584 7.67527 19.691 7.71247C19.0852 8.04707 18.4317 8.288 17.753 8.42677C17.7246 8.43257 17.6953 8.4229 17.6753 8.40185C17.166 7.86438 16.4955 7.50652 15.7645 7.38286C15.0182 7.2566 14.2511 7.38161 13.5835 7.7383C12.9159 8.09499 12.3856 8.66317 12.0757 9.35374C11.7811 10.0103 11.7016 10.7423 11.8469 11.4452C11.8582 11.4997 11.8155 11.5512 11.7599 11.5478C10.4392 11.4657 9.14891 11.1145 7.96837 10.5151C6.79083 9.91729 5.74808 9.08561 4.90364 8.07137C4.86616 8.02636 4.79513 8.03219 4.76782 8.084C4.50506 8.58262 4.36749 9.13836 4.36786 9.7032C4.36679 10.2654 4.50477 10.8192 4.76951 11.3152C5.03424 11.8112 5.41752 12.2341 5.88521 12.5461C5.38922 12.5327 4.90289 12.41 4.46061 12.1877C4.40361 12.1591 4.33524 12.1999 4.33821 12.2636C4.3727 13.0049 4.64486 13.7492 5.11596 14.3203C5.61729 14.9279 6.31312 15.3438 7.08576 15.4975C6.78833 15.588 6.47954 15.6357 6.16867 15.6392C5.99948 15.6372 5.83062 15.6248 5.66306 15.6018C5.60093 15.5934 5.5502 15.6524 5.57195 15.7112C5.8024 16.3344 6.20952 16.8781 6.74483 17.2751C7.31713 17.6995 8.00749 17.9349 8.71983 17.9486C7.51695 18.8951 6.03185 19.4116 4.50125 19.4159C4.34398 19.4164 4.18678 19.4113 4.02994 19.4006C3.94156 19.3946 3.90092 19.5124 3.9771 19.5576C5.46841 20.4426 7.17295 20.9104 8.91158 20.9083C10.1952 20.9216 11.4687 20.679 12.6575 20.1947C13.8464 19.7103 14.9268 18.994 15.8357 18.0874C16.7446 17.1808 17.4637 16.1022 17.9511 14.9146C18.4385 13.727 18.6844 12.4542 18.6743 11.1705V10.7705C18.6743 10.7442 18.6868 10.7194 18.7078 10.7036C19.2733 10.2766 19.7706 9.76681 20.1831 9.19183Z" fill="#656565"/>
</svg>
