<svg width="24" height="24" viewBox="0 0 24 24" fill="none" xmlns="http://www.w3.org/2000/svg">
<path d="M14.5877 20.8481C15.4954 21.4345 16.5769 21.6901 17.6506 21.5718C18.7242 21.4535 19.7245 20.9686 20.4831 20.1986L21.1463 19.5491C21.4371 19.2512 21.5999 18.8512 21.5999 18.4346C21.5999 18.018 21.4371 17.618 21.1463 17.3202L18.3313 14.5303C18.0364 14.24 17.6394 14.0774 17.2259 14.0774C16.8124 14.0774 16.4155 14.24 16.1205 14.5303C15.8231 14.8215 15.4237 14.9846 15.0078 14.9846C14.5918 14.9846 14.1924 14.8215 13.895 14.5303L9.4735 10.102C9.326 9.95641 9.20887 9.78291 9.12893 9.59158C9.04898 9.40026 9.00781 9.19493 9.00781 8.98752C9.00781 8.78012 9.04898 8.57479 9.12893 8.38346C9.20887 8.19214 9.326 8.01864 9.4735 7.87306C9.76334 7.57769 9.92575 7.18012 9.92575 6.76598C9.92575 6.35184 9.76334 5.95427 9.4735 5.6589L6.6732 2.85429C6.37579 2.56308 5.97638 2.40002 5.56045 2.40002C5.14452 2.40002 4.74511 2.56308 4.4477 2.85429L3.79921 3.51854C3.03037 4.27836 2.5462 5.28013 2.4281 6.35543C2.31 7.43072 2.56517 8.51395 3.15072 9.42298C6.20164 13.9262 10.0836 17.8041 14.5877 20.8481Z" stroke="#F6F6F6" stroke-width="2.5" stroke-linecap="round" stroke-linejoin="round"/>
</svg>
