<svg width="348" height="689" viewBox="0 0 348 689" fill="none" xmlns="http://www.w3.org/2000/svg">
<g opacity="0.06">
<path d="M179.499 688.221C212.739 688.221 239.685 661.275 239.685 628.034C239.685 594.794 212.739 567.848 179.499 567.848C146.259 567.848 119.312 594.794 119.312 628.034C119.312 661.275 146.259 688.221 179.499 688.221Z" fill="#FFD700"/>
<path d="M173.054 0.00453251C78.9906 0.668967 1.97224 77.1088 0.636046 171.165C0.623669 172.034 0.617971 178.14 0.618717 186.126C0.619335 197.836 5.27104 209.065 13.5507 217.346C21.8303 225.626 33.0598 230.278 44.7694 230.28H44.7695C50.5741 230.278 56.3216 229.133 61.6835 226.91C67.0453 224.687 71.9166 221.428 76.0188 217.322C80.1211 213.215 83.3739 208.34 85.5915 202.976C87.809 197.612 88.9478 191.863 88.9428 186.058C88.9383 180.626 88.9356 176.866 88.9356 176.635C88.9325 162.099 92.7136 147.812 99.9068 135.18C107.1 122.548 117.458 112.006 129.961 104.592C142.464 97.177 156.682 93.1448 171.216 92.8917C185.75 92.6385 200.1 96.1733 212.853 103.148C225.607 110.123 236.326 120.298 243.954 132.671C251.583 145.045 255.859 159.191 256.362 173.719C256.866 188.247 253.578 202.655 246.824 215.527C240.069 228.399 230.081 239.291 217.84 247.131L217.855 247.15C217.855 247.15 155.015 287.605 135.856 343.102L135.873 343.106C132.504 354.475 130.797 366.272 130.805 378.129C130.805 383.004 131.091 425.653 131.645 460.268C131.839 472.212 136.72 483.601 145.236 491.978C153.752 500.354 165.22 505.048 177.165 505.045H177.165C183.167 505.045 189.11 503.858 194.652 501.552C200.194 499.246 205.225 495.868 209.456 491.61C213.687 487.353 217.034 482.301 219.305 476.745C221.576 471.189 222.727 465.239 222.69 459.237C222.497 427.535 222.393 390.622 222.393 387.943C222.393 353.865 255.267 319.912 282.27 297.771C313.366 272.274 335.742 237.528 344.73 198.333C346.719 190.263 347.815 182 348 173.691C348 150.776 343.466 128.087 334.658 106.933C325.851 85.7778 312.944 66.5748 296.683 50.4301C280.421 34.2854 261.125 21.518 239.907 12.8637C218.689 4.20931 195.969 -0.161004 173.054 0.00453251Z" fill="#FFD700"/>
<path d="M57.2351 209.396C45.5256 209.394 34.296 204.742 26.0163 196.462C17.7366 188.181 13.0848 176.952 13.0841 165.242C13.0835 157.256 13.0892 151.15 13.1014 150.281C13.4734 122.927 20.3624 96.0558 33.197 71.8965C12.1102 100.764 0.515573 135.471 0.0172977 171.216C0.00515573 172.084 -0.000592874 178.19 4.8245e-05 186.177C0.000742111 197.886 4.65251 209.116 12.9322 217.396C21.2119 225.676 32.4415 230.329 44.1511 230.33C53.7732 230.326 63.1311 227.182 70.8032 221.375C78.4753 215.568 84.0422 207.415 86.6583 198.156C78.5739 205.405 68.094 209.409 57.2351 209.396Z" fill="#3F3D56"/>
<path d="M176.047 93.0405C189.584 93.6871 202.762 97.6093 214.449 104.471C226.137 111.332 235.984 120.927 243.146 132.433C250.308 143.938 254.571 157.01 255.568 170.525C256.565 184.041 254.268 197.597 248.872 210.029C256.676 200.863 262.413 190.122 265.69 178.538C268.967 166.955 269.708 154.8 267.862 142.904C266.016 131.008 261.627 119.65 254.993 109.604C248.36 99.5584 239.638 91.0609 229.423 84.6913C219.208 78.3216 207.739 74.2294 195.799 72.6938C183.859 71.1582 171.728 72.2152 160.234 75.7928C148.739 79.3704 138.151 85.3845 129.192 93.425C120.232 101.465 113.111 111.343 108.315 122.385C116.604 112.634 127.022 104.917 138.766 99.8293C150.509 94.7415 163.264 92.4189 176.047 93.0405Z" fill="#3F3D56"/>
<path d="M189.631 484.16C177.686 484.163 166.219 479.469 157.703 471.093C149.187 462.716 144.306 451.327 144.112 439.383C143.558 404.768 143.271 362.119 143.271 357.245C143.263 345.387 144.97 333.591 148.339 322.221L148.323 322.217C150.313 316.511 152.715 310.957 155.512 305.6C146.927 317.041 140.094 329.697 135.239 343.152L135.255 343.156C131.886 354.525 130.179 366.322 130.187 378.179C130.187 383.054 130.474 425.702 131.028 460.318C131.222 472.262 136.103 483.65 144.619 492.027C153.134 500.404 164.602 505.097 176.547 505.095C186.396 505.093 195.979 501.898 203.859 495.989C211.739 490.08 217.49 481.775 220.25 472.321C211.881 479.953 200.958 484.176 189.631 484.16Z" fill="#3F3D56"/>
<path d="M166.239 673.541C157.689 669.818 150.122 664.158 144.134 657.008C138.146 649.859 133.902 641.416 131.736 632.345C129.57 623.275 129.542 613.825 131.653 604.741C133.765 595.658 137.959 587.19 143.904 580.005C137.011 585.038 131.268 591.479 127.054 598.901C122.841 606.323 120.255 614.556 119.467 623.055C118.679 631.553 119.708 640.121 122.484 648.191C125.261 656.262 129.722 663.649 135.572 669.863C141.422 676.077 148.527 680.976 156.415 684.235C164.303 687.493 172.794 689.037 181.324 688.763C189.855 688.489 198.229 686.404 205.892 682.646C213.555 678.888 220.33 673.543 225.77 666.967C217.286 673.167 207.326 677.037 196.881 678.191C186.436 679.344 175.871 677.741 166.239 673.541Z" fill="#3F3D56"/>
</g>
</svg>
