<svg width="37" height="38" viewBox="0 0 37 38" fill="none" xmlns="http://www.w3.org/2000/svg">
<g clip-path="url(#clip0_589_4337)">
<path d="M13.1179 16.6978C16.3781 16.6978 19.0211 14.0549 19.0211 10.7947C19.0211 7.53451 16.3781 4.8916 13.1179 4.8916C9.85775 4.8916 7.21484 7.53451 7.21484 10.7947C7.21484 14.0549 9.85775 16.6978 13.1179 16.6978Z" stroke="#1F1F1F" stroke-width="2.6236" stroke-linecap="round" stroke-linejoin="round"/>
<path d="M24.9242 36.3746H1.31177V33.751C1.31177 30.6198 2.55563 27.6169 4.76973 25.4028C6.98382 23.1887 9.98678 21.9448 13.118 21.9448C16.2492 21.9448 19.2521 23.1887 21.4662 25.4028C23.6803 27.6169 24.9242 30.6198 24.9242 33.751V36.3746Z" stroke="#1F1F1F" stroke-width="2.6236" stroke-linecap="round" stroke-linejoin="round"/>
<path d="M23.6123 4.8916C25.1779 4.8916 26.6794 5.51353 27.7864 6.62058C28.8935 7.72763 29.5154 9.22911 29.5154 10.7947C29.5154 12.3603 28.8935 13.8618 27.7864 14.9688C26.6794 16.0759 25.1779 16.6978 23.6123 16.6978" stroke="#AD974F" stroke-width="2.6236" stroke-linecap="round" stroke-linejoin="round"/>
<path d="M27.8101 22.4434C30.0449 23.2935 31.969 24.8023 33.3276 26.7699C34.6862 28.7376 35.4153 31.0714 35.4185 33.4625V36.3747H31.4831" stroke="#AD974F" stroke-width="2.6236" stroke-linecap="round" stroke-linejoin="round"/>
</g>
<defs>
<clipPath id="clip0_589_4337">
<rect width="36.7304" height="36.7304" fill="white" transform="translate(0 0.956055)"/>
</clipPath>
</defs>
</svg>
