<svg width="37" height="38" viewBox="0 0 37 38" fill="none" xmlns="http://www.w3.org/2000/svg">
<g clip-path="url(#clip0_589_1013)">
<path d="M11.8062 19.9776L15.8727 22.9685C16.0172 23.0875 16.1863 23.1728 16.3679 23.2181C16.5494 23.2635 16.7387 23.2679 16.9222 23.2309C17.1074 23.1962 17.2829 23.1219 17.4368 23.0133C17.5907 22.9046 17.7195 22.7641 17.8142 22.6012L27.5478 6.85962" stroke="#AD974F" stroke-width="2.6236" stroke-linecap="round" stroke-linejoin="round"/>
<path d="M31.0897 14.7306C32.6927 16.3412 34.142 18.0979 35.4186 19.9778C35.4186 19.9778 27.7839 31.7841 18.3652 31.7841C8.94645 31.7841 1.31177 19.9778 1.31177 19.9778C1.31177 19.9778 8.94645 8.17163 18.3652 8.17163" stroke="#1F1F1F" stroke-width="2.6236" stroke-linecap="round" stroke-linejoin="round"/>
</g>
<defs>
<clipPath id="clip0_589_1013">
<rect width="36.7304" height="36.7304" fill="white" transform="translate(0 0.956543)"/>
</clipPath>
</defs>
</svg>
