<svg width="37" height="38" viewBox="0 0 37 38" fill="none" xmlns="http://www.w3.org/2000/svg">
<g clip-path="url(#clip0_589_81)">
<path d="M27.5478 21.9453C27.5539 20.3079 27.1221 18.6988 26.2972 17.2844C25.4723 15.8701 24.2842 14.702 22.856 13.9013C21.4278 13.1006 19.8115 12.6963 18.1745 12.7303C16.5376 12.7643 14.9394 13.2353 13.5458 14.0947C12.1521 14.954 11.0135 16.1704 10.248 17.6178C9.4825 19.0651 9.11792 20.6909 9.19203 22.3265C9.26614 23.9622 9.77624 25.5483 10.6695 26.9205C11.5627 28.2927 12.8066 29.4011 14.2723 30.1309V34.6435C14.2792 34.9103 14.39 35.1639 14.5812 35.3501C14.7723 35.5364 15.0287 35.6405 15.2955 35.6405H21.4348C21.7017 35.6405 21.958 35.5364 22.1492 35.3501C22.3403 35.1639 22.4511 34.9103 22.458 34.6435V30.0522C23.9698 29.2996 25.2448 28.1447 26.1428 26.7144C27.0408 25.2841 27.5269 23.6339 27.5478 21.9453V21.9453Z" stroke="#EAEAEA" stroke-width="2.6236" stroke-linecap="round" stroke-linejoin="round"/>
<path d="M18.365 3.08154V7.01695" stroke="#FFD700" stroke-width="2.6236" stroke-linecap="round" stroke-linejoin="round"/>
<path d="M28.8596 6.83325L26.0786 9.64051" stroke="#FFD700" stroke-width="2.6236" stroke-linecap="round" stroke-linejoin="round"/>
<path d="M34.8414 14.9666H30.906" stroke="#FFD700" stroke-width="2.6236" stroke-linecap="round" stroke-linejoin="round"/>
<path d="M7.87061 6.83325L10.6516 9.64051" stroke="#FFD700" stroke-width="2.6236" stroke-linecap="round" stroke-linejoin="round"/>
<path d="M1.88892 14.9666H5.82432" stroke="#FFD700" stroke-width="2.6236" stroke-linecap="round" stroke-linejoin="round"/>
</g>
<defs>
<clipPath id="clip0_589_81">
<rect width="36.7304" height="36.7304" fill="white" transform="translate(0 0.956543)"/>
</clipPath>
</defs>
</svg>
