<svg width="596" height="314" viewBox="0 0 596 314" fill="none" xmlns="http://www.w3.org/2000/svg">
<path d="M231.862 202.75L248.808 204.592L256.913 199.066L261.605 204.592L259.353 216.252L256.774 225.462L241.137 217.521L228.546 216.381L231.862 202.75Z" fill="#A0616A"/>
<path d="M146.025 183.225L186.918 182.488L236.652 203.487L230.021 217.855L185.076 205.329L115.447 225.223L125.026 178.067L146.025 183.225Z" fill="#2F2E41"/>
<path d="M258.188 204.093L250.06 203.46L260.399 181.62C260.399 181.62 265.188 179.929 265.925 185.196C266.661 190.462 260.377 226.121 258.535 226.121C256.693 226.121 250.512 222.515 250.512 222.515L259.662 205.198L258.188 204.093L258.188 204.093L258.188 204.093Z" fill="#2F2E41"/>
<path d="M44.4506 194.151C45.3809 194.251 46.3958 194.401 47.4754 194.621C52.0528 195.553 52.1479 198.661 52.1077 199.374L52.1388 199.354C52.5991 200.093 52.8874 200.84 53.0616 201.545L53.2712 192.019C53.1357 191.736 53.0123 191.416 52.9095 191.087C52.5669 192.143 52.0052 193.139 51.521 193.073C50.8914 192.987 50.617 191.135 50.7344 189.818C49.9338 190.849 48.5864 191.952 48.0781 191.612C47.6719 191.34 47.9128 190.222 48.3562 189.205C47.4322 189.762 46.4089 190.127 46.0914 189.774C45.658 189.292 46.6964 187.646 47.654 186.727C46.3722 186.847 44.742 186.642 44.6351 186.059C44.5471 185.578 45.5173 184.972 46.5557 184.581C45.5127 184.306 44.5373 183.827 44.5696 183.353C44.6081 182.79 46.0562 182.413 47.3055 182.355C46.3632 181.618 45.4974 180.599 45.7621 180.138C46.0056 179.714 47.1379 179.879 48.1827 180.252C47.5644 179.368 47.1297 178.372 47.4608 178.031C47.8731 177.606 49.3367 178.339 50.3354 179.149C50.141 177.887 50.2393 176.294 50.8054 176.15C51.2789 176.029 51.9501 176.956 52.4102 177.966C52.6136 176.906 53.0253 175.901 53.5005 175.901C54.1773 175.901 54.7261 177.941 54.7261 179.271C54.7261 179.346 54.7241 179.417 54.7207 179.484C54.7886 179.406 54.8665 179.323 54.9553 179.237C55.9091 178.311 57.7555 177.283 58.227 177.768C58.5581 178.109 58.1234 179.105 57.5051 179.989C58.5499 179.616 59.6822 179.452 59.9257 179.875C60.2527 180.445 58.8547 181.866 57.7183 182.555C57.7866 182.547 57.8583 182.54 57.9347 182.535C59.2613 182.444 61.3347 182.853 61.3808 183.528C61.4131 184.002 60.4378 184.482 59.3947 184.757C60.4331 185.147 61.4034 185.753 61.3153 186.234C61.2084 186.817 59.5782 187.022 58.2965 186.902C59.2541 187.821 60.2924 189.467 59.8591 189.949C59.5415 190.303 58.5182 189.937 57.5942 189.38C58.0377 190.397 58.2785 191.516 57.8723 191.787C57.3356 192.146 55.8635 190.897 55.0873 189.821C55.1664 191.137 54.8516 192.944 54.2271 193.015C53.9659 193.045 53.6891 192.767 53.4393 192.338L54.1467 202.577C54.3121 203.77 53.2544 204.548 53.1598 205.039L53.0072 211.973C53.1794 211.479 53.4114 210.974 53.724 210.472L53.7551 210.492C53.715 209.779 53.8101 206.671 58.3875 205.739C59.4671 205.519 60.482 205.369 61.4123 205.269C62.5105 205.151 62.9389 206.654 61.9468 207.139C60.5101 207.843 59.1586 208.729 58.4542 209.778C56.6532 212.46 54.1648 210.91 53.811 210.669C53.4158 211.327 53.1567 211.989 52.993 212.62L52.912 216.302C52.9318 216.39 52.9456 216.438 52.9466 216.442L52.9087 216.453L52.7126 225.365L50.8935 225.35L51.5441 216.241C51.4348 215.75 51.0984 214.076 51.5441 212.337L52.1948 205.18C52.1964 205.174 52.1578 205.368 52.1948 205.18L53.0435 202.368C52.9201 201.498 52.6337 200.519 52.052 199.551C51.6982 199.791 49.2098 201.342 47.4088 198.66C46.7044 197.611 45.3529 196.725 43.9161 196.021C42.9241 195.536 43.3524 194.033 44.4506 194.151H44.4506H44.4506ZM52.7604 215.236L52.7946 213.677C52.7255 214.266 52.729 214.798 52.7604 215.236Z" fill="#FFDB19"/>
<path d="M596 225.127C596 225.848 595.398 226.428 594.648 226.428H1.35181C0.602112 226.428 0 225.848 0 225.127C0 224.405 0.602112 223.825 1.35181 223.825H594.648C595.398 223.825 596 224.405 596 225.127Z" fill="#3F3D56"/>
<path d="M117.148 134.098L113.096 120.467L101.307 120.099L96.5178 137.045L117.148 134.098Z" fill="#A0616A"/>
<path opacity="0.1" d="M117.148 134.098L113.096 120.467L101.307 120.099L96.5178 137.045L117.148 134.098Z" fill="black"/>
<path d="M99.0547 132.2L118.212 131.463L124.152 143.676L133.316 197.776L85.2396 208.644C85.2396 208.644 82.2923 148.226 88.9236 139.752C95.5549 131.279 99.0548 132.2 99.0548 132.2H99.0547V132.2Z" fill="#E6E6E6"/>
<path d="M155.154 89.8342C155.953 85.5696 158.801 82.5247 161.515 83.0334C164.229 83.5421 165.781 87.4111 164.981 91.6772C164.685 93.3857 163.985 94.9985 162.938 96.3806L159.326 114.407L152.201 112.961L155.357 94.9601C154.881 93.2922 154.812 91.5345 155.154 89.8342Z" fill="#A0616A"/>
<path d="M101.92 137.109L141.044 129.399L152.039 96.3306L164.359 99.2449L152 148.096L107.714 153.923L101.92 137.109Z" fill="#E6E6E6"/>
<path d="M161.505 36.8621C161.544 36.8994 161.579 36.9386 161.617 36.9762C167.542 31.0971 177.083 31.0454 183.071 36.8599C189.081 42.6973 189.284 52.2801 183.527 58.3669L183.531 58.3705L183.387 58.5181L162.189 80.3449L140.214 59.0028L140.275 58.9399C140.238 58.9047 140.2 58.8721 140.163 58.8364C134.095 52.943 133.954 43.2463 139.847 37.1782C145.741 31.1102 155.437 30.9686 161.505 36.8621H161.505Z" fill="#FFDB19"/>
<path d="M156.264 145.115C156.334 145.184 156.399 145.256 156.469 145.325C167.381 134.497 184.954 134.402 195.983 145.111C207.051 155.862 207.425 173.511 196.822 184.722L196.829 184.728L196.565 185L157.522 225.2L117.05 185.893L117.163 185.777C117.095 185.712 117.024 185.652 116.957 185.586C105.781 174.732 105.52 156.873 116.374 145.697C127.229 134.521 145.088 134.261 156.264 145.115L156.264 145.115Z" fill="#FFDB19"/>
<path d="M96.5748 189.926C96.5748 189.926 82.1178 201.971 87.4808 209.275C92.8438 216.579 111.085 229.659 119.322 225.603C127.558 221.546 144.663 192.227 144.663 192.227L149.135 222.259L160.844 221.225C160.844 221.225 169.349 178.802 161.506 172.297C153.664 165.791 117.958 177.291 117.958 177.291L96.5748 189.926V189.926V189.926Z" fill="#2F2E41"/>
<path d="M157.918 217.241L161.272 227.655L168.258 237.447L162.904 245.466L145.882 234.254L145.941 228.488L148.614 224.89L150.496 217.989L157.918 217.241Z" fill="#A0616A"/>
<path d="M163.269 241.516L167.541 234.572L182.258 253.736C182.258 253.736 181.577 258.77 176.555 257.022C171.533 255.275 140.39 239.306 141.23 237.667C142.071 236.028 145.522 227.199 145.522 227.199L161.614 242.323L163.269 241.516L163.269 241.516Z" fill="#2F2E41"/>
<path d="M154.239 189.823C158.556 190.252 161.835 192.826 161.562 195.574C161.289 198.322 157.568 200.201 153.249 199.773C151.522 199.625 149.854 199.066 148.387 198.142L130.116 196.096L130.943 188.873L149.149 190.467C150.77 189.849 152.515 189.628 154.239 189.823Z" fill="#A0616A"/>
<path d="M102.551 140.858L113.603 179.172L147.496 187.277L145.654 199.803L95.9194 191.698L86.2984 148.078L102.551 140.858Z" fill="#E6E6E6"/>
<path d="M108.703 124.547C100.057 124.547 93.0471 117.538 93.0471 108.891C93.0471 100.245 100.057 93.2352 108.703 93.2352C117.35 93.2352 124.359 100.245 124.359 108.891C124.359 117.538 117.35 124.547 108.703 124.547Z" fill="#A0616A"/>
<path d="M107.453 87.8426C107.906 88.1071 108.513 87.707 108.658 87.2029C108.803 86.6989 108.634 86.1637 108.466 85.6667C108.185 84.8327 107.903 83.9987 107.621 83.1647C107.022 81.3903 106.386 79.5538 105.089 78.2032C103.131 76.1647 100.018 75.6461 97.2166 76.0218C93.6186 76.5043 90.0687 78.4525 88.3958 81.6742C86.7228 84.8959 87.435 89.3913 90.4579 91.4013C86.1497 96.3393 84.6479 101.843 84.885 108.392C85.1221 114.94 92.2589 120.968 96.913 125.581C97.9524 124.951 98.8973 121.998 98.3257 120.926C97.7542 119.853 98.5731 118.611 97.8652 117.623C97.1574 116.635 96.5652 118.208 97.2808 117.225C97.7323 116.605 95.9699 115.179 96.6411 114.808C99.8877 113.014 100.967 108.967 103.007 105.868C105.466 102.13 109.675 99.5989 114.13 99.179C116.584 98.9476 119.176 99.3666 121.187 100.791C123.199 102.216 124.501 104.762 124.034 107.182C125.242 105.955 125.844 104.158 125.617 102.452C125.39 100.745 124.34 99.167 122.854 98.2986C123.758 95.3099 122.983 91.8719 120.886 89.5591C118.788 87.2463 110.278 87.6402 107.216 88.2489L107.453 87.8426H107.453Z" fill="#2F2E41"/>
<path d="M106.977 99.2698C102.92 99.7076 99.9917 103.221 97.5186 106.466C96.0932 108.336 94.6001 110.402 94.6359 112.753C94.6721 115.13 96.2615 117.169 97.0211 119.422C98.2626 123.104 97.0526 127.485 94.0971 130.008C97.0174 130.562 100.174 128.373 100.679 125.443C101.265 122.033 98.6804 118.742 98.9865 115.295C99.2562 112.258 101.649 109.921 103.684 107.651C105.718 105.38 107.629 102.368 106.693 99.4663L106.977 99.2698H106.977V99.2698Z" fill="#2F2E41"/>
<path d="M564.86 164.712C564.311 163.785 561.935 164.777 561.498 163.937C561.062 163.099 563.27 161.823 564.532 158.907C564.759 158.381 566.193 155.068 565.132 154.046C563.12 152.108 553.915 160.105 550.693 157.488C549.986 156.914 549.492 155.767 547.353 153.906C546.501 153.165 545.987 152.831 545.488 152.955C544.782 153.131 544.726 154.078 543.968 155.938C542.831 158.727 542.159 158.559 541.496 160.784C541.005 162.436 541.117 163.397 540.538 163.584C539.72 163.849 538.966 162.097 537.929 162.253C536.87 162.414 536.23 164.454 536.028 165.982C535.648 168.849 536.701 170.74 537.285 172.729C537.919 174.891 538.295 178.179 536.831 182.833L522.336 223.672C525.536 215.292 534.801 192.32 538.695 183.783C539.819 181.319 541.06 178.819 543.608 177.833C546.061 176.883 549.43 177.45 553.726 176.415C554.227 176.294 555.62 175.94 555.795 175.121C555.94 174.444 555.121 174.066 555.247 173.432C555.415 172.582 557.026 172.572 559.004 171.59C560.4 170.899 561.269 170.076 562.016 169.368C562.242 169.155 565.592 165.945 564.861 164.712H564.86L564.861 164.712H564.86Z" fill="#595959"/>
<path d="M507.831 186.211C507.218 186.214 507.019 187.666 506.481 187.638C505.944 187.61 505.955 186.158 504.888 184.698C504.695 184.434 503.483 182.775 502.675 183.001C501.143 183.429 502.412 190.254 500.198 191.08C499.712 191.262 499.007 191.173 497.476 191.686C496.867 191.891 496.554 192.047 496.472 192.327C496.354 192.725 496.803 193.025 497.497 193.934C498.538 195.297 498.261 195.578 499.163 196.545C499.832 197.263 500.335 197.485 500.26 197.823C500.154 198.302 499.077 198.166 498.854 198.72C498.627 199.286 499.444 200.189 500.136 200.729C501.433 201.742 502.665 201.772 503.81 202.059C505.054 202.372 506.776 203.135 508.638 205.197L524.5 224.094C521.31 220.106 512.709 208.93 509.642 204.556C508.757 203.294 507.888 201.963 508.139 200.428C508.381 198.95 509.631 197.46 510.363 195.053C510.448 194.772 510.676 193.987 510.325 193.664C510.034 193.398 509.613 193.691 509.338 193.446C508.969 193.118 509.429 192.325 509.518 191.07C509.581 190.186 509.428 189.522 509.296 188.951C509.257 188.779 508.648 186.208 507.831 186.211V186.211L507.831 186.211Z" fill="#595959"/>
<path d="M520.069 188.957L519.699 185.659L519.868 185.409C520.649 184.253 521.047 183.124 521.052 182.053C521.053 181.882 521.045 181.712 521.037 181.538C521.005 180.85 520.965 179.995 521.411 178.999C521.661 178.443 522.363 177.156 523.419 177.316C523.703 177.355 523.918 177.486 524.081 177.639C524.105 177.601 524.13 177.562 524.156 177.521C524.485 177.019 524.745 176.804 524.996 176.597C525.189 176.438 525.388 176.274 525.7 175.886C525.837 175.715 525.943 175.566 526.033 175.44C526.306 175.059 526.663 174.606 527.292 174.614C527.964 174.645 528.316 175.201 528.549 175.569C528.966 176.225 529.154 176.698 529.279 177.011C529.325 177.126 529.376 177.255 529.403 177.295C529.619 177.613 531.379 177.316 532.043 177.207C533.532 176.959 534.821 176.744 535.352 177.683C535.733 178.355 535.45 179.244 534.487 180.395C534.187 180.753 533.867 181.026 533.584 181.239C533.819 181.379 534.029 181.594 534.114 181.932C534.315 182.731 533.628 183.532 532.073 184.315C531.687 184.511 531.167 184.772 530.438 184.898C530.095 184.957 529.786 184.971 529.522 184.979C529.516 185.132 529.481 185.298 529.388 185.468C529.114 185.97 528.546 186.209 527.689 186.151C526.747 186.102 525.97 185.922 525.286 185.764C524.688 185.627 524.173 185.511 523.768 185.538C523.018 185.599 522.44 186.199 521.762 186.978L520.069 188.957H520.069L520.069 188.957Z" fill="#595959"/>
<path d="M521.78 169.323L518.684 170.517L518.399 170.417C517.083 169.955 515.89 169.856 514.852 170.123C514.687 170.165 514.524 170.216 514.358 170.268C513.701 170.473 512.884 170.729 511.807 170.55C511.206 170.449 509.783 170.097 509.669 169.035C509.636 168.75 509.708 168.509 509.814 168.312C509.771 168.299 509.728 168.285 509.681 168.27C509.112 168.079 508.838 167.882 508.575 167.692C508.372 167.546 508.163 167.395 507.708 167.191C507.508 167.102 507.336 167.037 507.192 166.982C506.754 166.814 506.225 166.584 506.073 165.974C505.934 165.316 506.382 164.834 506.678 164.515C507.207 163.946 507.617 163.644 507.889 163.443C507.988 163.37 508.1 163.288 508.132 163.252C508.385 162.962 507.65 161.335 507.377 160.721C506.759 159.343 506.224 158.151 506.998 157.399C507.552 156.86 508.483 156.908 509.841 157.548C510.263 157.747 510.608 157.987 510.886 158.207C510.962 157.944 511.117 157.686 511.422 157.518C512.144 157.122 513.093 157.583 514.245 158.888C514.532 159.212 514.917 159.649 515.223 160.322C515.367 160.639 515.46 160.934 515.534 161.187C515.684 161.154 515.853 161.147 516.041 161.194C516.596 161.331 516.971 161.82 517.133 162.663C517.324 163.587 517.347 164.384 517.368 165.086C517.387 165.699 517.406 166.227 517.534 166.611C517.783 167.321 518.51 167.728 519.436 168.187L521.78 169.323H521.78V169.323Z" fill="#595959"/>
<path d="M520.069 159.608L519.699 156.31L519.868 156.06C520.649 154.904 521.047 153.775 521.052 152.704C521.053 152.533 521.045 152.363 521.037 152.189C521.005 151.502 520.965 150.647 521.411 149.65C521.661 149.094 522.363 147.807 523.419 147.967C523.703 148.007 523.918 148.137 524.081 148.29C524.105 148.252 524.13 148.214 524.156 148.172C524.485 147.671 524.745 147.456 524.996 147.249C525.189 147.089 525.388 146.925 525.7 146.537C525.837 146.366 525.943 146.217 526.033 146.091C526.306 145.71 526.663 145.257 527.292 145.265C527.964 145.296 528.316 145.852 528.549 146.22C528.966 146.876 529.154 147.349 529.279 147.663C529.325 147.777 529.376 147.906 529.403 147.946C529.619 148.264 531.379 147.967 532.043 147.858C533.532 147.61 534.821 147.395 535.352 148.335C535.733 149.006 535.45 149.895 534.487 151.046C534.187 151.405 533.867 151.677 533.584 151.89C533.819 152.03 534.029 152.245 534.114 152.583C534.315 153.382 533.628 154.183 532.073 154.966C531.687 155.162 531.167 155.423 530.438 155.549C530.095 155.608 529.786 155.622 529.522 155.63C529.516 155.783 529.481 155.949 529.388 156.119C529.114 156.621 528.546 156.86 527.689 156.802C526.747 156.753 525.97 156.573 525.286 156.415C524.688 156.279 524.173 156.162 523.768 156.189C523.018 156.25 522.44 156.85 521.762 157.629L520.069 159.608H520.069L520.069 159.608Z" fill="#595959"/>
<path d="M523.439 223.618L522.748 223.185L522.581 222.387L522.748 223.185L521.942 223.277C521.93 223.202 521.886 223.03 521.82 222.761C521.459 221.287 520.36 216.8 519.443 209.733C518.802 204.8 518.44 199.729 518.365 194.657C518.291 189.578 518.531 185.732 518.724 182.642C518.869 180.311 519.046 178.091 519.22 175.929C519.681 170.152 520.117 164.695 519.793 158.654C519.721 157.305 519.571 154.498 517.931 151.511C516.979 149.779 515.669 148.24 514.035 146.941L515.051 145.664C516.854 147.1 518.304 148.804 519.361 150.728C521.179 154.04 521.343 157.098 521.422 158.568C521.751 164.716 521.311 170.225 520.845 176.058C520.673 178.212 520.496 180.422 520.351 182.744C520.16 185.806 519.922 189.618 519.996 194.632C520.069 199.643 520.427 204.652 521.059 209.523C521.965 216.5 523.048 220.92 523.404 222.373C523.594 223.148 523.633 223.31 523.439 223.618H523.439H523.439Z" fill="#595959"/>
<path d="M511.043 149.532C510.977 149.532 510.909 149.53 510.84 149.525C509.452 149.451 508.166 148.619 507.018 147.056C506.48 146.32 506.205 145.481 505.655 143.808C505.57 143.55 505.156 142.241 504.904 140.44C504.74 139.263 504.76 138.771 504.994 138.336C505.252 137.852 505.671 137.515 506.142 137.287C506.122 137.131 506.138 136.97 506.206 136.806C506.484 136.126 507.223 136.216 507.622 136.259C507.825 136.284 508.077 136.317 508.349 136.303C508.778 136.282 509.008 136.155 509.356 135.964C509.69 135.781 510.105 135.553 510.72 135.427C511.934 135.174 512.95 135.518 513.285 135.631C515.049 136.219 515.918 137.59 516.925 139.177C517.125 139.496 517.814 140.655 518.268 142.244C518.596 143.39 518.55 143.9 518.452 144.279C518.251 145.058 517.777 145.503 516.574 146.487C515.318 147.518 514.687 148.034 514.146 148.347C512.886 149.075 512.094 149.532 511.043 149.532H511.043Z" fill="#595959"/>
<path d="M351.878 88.3554C349.009 85.0035 344.954 83.7667 342.821 85.5928C340.689 87.419 341.286 91.6158 344.156 94.9685C345.284 96.3235 346.72 97.3886 348.345 98.0747L360.679 112.123L367.149 106.194L354.302 92.9745C353.874 91.2633 353.043 89.6794 351.878 88.3554Z" fill="#FFB6B6"/>
<path d="M444.464 105.487C444.464 105.487 447.162 117.836 436.454 121.774C425.746 125.711 397.997 140.831 395.942 140.138C393.888 139.445 387.168 142.827 379.237 135.612C371.306 128.396 352.145 106.641 352.145 106.641L360.026 95.9368L389.701 116.436C389.701 116.436 390.336 116.248 393.149 115.956C395.962 115.665 393.762 117.439 398.162 113.89C402.562 110.341 430.645 97.6227 430.645 97.6227C430.645 97.6227 438.886 93.5391 444.464 105.487L444.464 105.487V105.487Z" fill="#2F2E41"/>
<path d="M374.438 277.751L378.801 291.809L366.682 300.049L357.957 292.293C357.957 292.293 361.35 280.175 359.896 277.267L374.438 277.751Z" fill="#FFB6B6"/>
<path d="M435.999 78.5266L442.949 93.8586L422.614 106.5L421.457 88.2212L435.999 78.5266Z" fill="#FFB6B6"/>
<path opacity="0.1" d="M435.999 78.5266L442.949 93.8586L422.614 106.5L421.457 88.2212L435.999 78.5266Z" fill="black"/>
<path d="M428.009 92.1951C436.165 92.1951 442.776 85.5837 442.776 77.4281C442.776 69.2725 436.165 62.661 428.009 62.661C419.854 62.661 413.242 69.2725 413.242 77.4281C413.242 85.5837 419.854 92.1951 428.009 92.1951Z" fill="#FFB6B6"/>
<path d="M422.427 103.248L443.271 89.1904L439.878 207.95C439.878 207.95 422.67 178.139 409.582 176.685C409.582 176.685 411.036 173.291 412.006 171.352C412.975 169.414 414.429 159.719 414.429 159.719L421.216 107.368L422.427 103.248V103.248Z" fill="#FFDB19"/>
<path d="M439.15 226.127L420.73 161.173C420.73 161.173 423.639 108.822 443.27 89.1904L447.875 96.219C447.875 96.219 452.429 96.8946 451.606 99.9499C450.784 103.005 469.688 215.463 469.688 215.463H450.095C450.095 215.463 448.36 226.127 439.15 226.127Z" fill="#2F2E41"/>
<path d="M422.427 103.248V101.309C422.427 101.309 413.46 102.036 412.975 107.368C412.49 112.7 408.613 133.544 412.49 146.147L407.643 153.902L404.25 172.322L414.914 175.231L420.731 130.5C420.731 130.5 424.609 106.883 422.427 103.248V103.248Z" fill="#2F2E41"/>
<path d="M439.635 195.589C439.635 195.589 447.876 219.341 430.425 219.825C412.975 220.31 385.79 220.31 385.79 220.31L372.258 227.581L376.135 280.417L348.99 280.902C348.99 280.902 340.265 215.948 348.021 208.192C355.777 200.436 378.074 192.196 378.074 192.196L403.765 179.108L410.99 170.337L439.635 195.589Z" fill="#2F2E41"/>
<path d="M440.625 86.0401C441.654 85.6743 451.293 74.3773 443.271 66.8932C443.271 66.8932 440.145 57.7506 427.678 58.7095C415.212 59.6685 411.855 66.487 411.855 70.0303C411.855 73.5735 415.157 77.5573 415.157 77.5573C415.157 77.5573 412.814 67.8197 418.089 68.2992C423.363 68.7787 421.925 70.6966 425.761 69.7377C429.596 68.7787 433.432 70.2171 433.432 70.2171L437.268 71.6556V77.5057C437.268 77.5057 438.941 76.1635 439.063 77.5057C439.186 78.8478 440.625 86.0401 440.625 86.0401Z" fill="#2F2E41"/>
<path d="M357.237 205.769L356.752 220.795L337.848 217.402C337.848 217.402 345.965 204.043 344.815 200.301L357.237 205.769Z" fill="#FFB6B6"/>
<path d="M355.291 217.402C355.291 217.402 358.685 217.402 358.685 219.341C358.685 221.28 364.017 236.307 353.837 236.791C343.658 237.276 344.143 235.337 344.143 235.337C344.143 235.337 315.543 248.425 305.364 229.036C305.364 229.036 302.94 224.188 308.757 223.219C314.574 222.249 337.841 214.133 337.841 214.133C337.841 214.133 351.414 219.341 355.291 217.402Z" fill="#2F2E41"/>
<path d="M374.925 291.809C374.925 291.809 378.318 287.698 378.803 288.057C379.288 288.415 389.952 300.534 382.681 303.927C375.41 307.32 371.532 308.774 371.532 308.774L369.593 305.866C369.593 305.866 355.051 319.923 332.754 310.228C332.754 310.228 330.815 305.866 335.177 304.896C339.54 303.927 357.96 289.156 357.96 289.156C357.96 289.156 365.715 294.717 369.593 293.747C373.471 292.778 374.925 291.809 374.925 291.809Z" fill="#2F2E41"/>
<path d="M409.581 175.231C409.581 175.231 364.259 152.206 360.381 152.206C356.503 152.206 349.091 153.801 347.465 161.244C345.839 168.687 336.145 204.557 336.145 204.557L359.896 210.374L369.106 184.683L384.133 198.255L409.581 183.08V175.231Z" fill="#2F2E41"/>
<path d="M388.235 166.336C383.87 166.977 380.662 169.749 381.07 172.527C381.478 175.305 385.348 177.036 389.714 176.395C391.462 176.163 393.129 175.515 394.575 174.507L413.036 171.558L411.468 162.924L393.435 166.748C391.759 166.197 389.976 166.056 388.235 166.336Z" fill="#FFB6B6"/>
<path d="M452.08 97.1326C452.08 97.1326 463.967 101.432 461.591 112.591C459.215 123.75 457.216 155.288 455.535 156.656C453.854 158.025 453.134 165.514 442.801 168.378C432.468 171.243 402.817 183.922 402.817 183.922L398.992 163.485L432.154 149.304C432.154 149.304 432.333 148.667 433.586 146.131C434.838 143.596 435.167 146.403 434.51 140.788C433.852 135.174 438.06 104.633 438.06 104.633C438.06 104.633 438.997 95.484 452.08 97.1326L452.08 97.1326Z" fill="#2F2E41"/>
<path d="M344.751 6.75524C344.691 6.81342 344.636 6.87464 344.576 6.93331C335.332 -2.24002 320.444 -2.32073 311.101 6.75177C301.724 15.86 301.408 30.8123 310.39 40.3097L310.384 40.3153L310.608 40.5457L343.685 74.6025L377.972 41.3019L377.876 41.2037C377.934 41.1488 377.994 41.098 378.051 41.0423C387.519 31.8466 387.74 16.7167 378.544 7.24848C369.349 -2.21963 354.219 -2.44046 344.751 6.75523L344.751 6.75524H344.751Z" fill="#FFDB19"/>
</svg>
