<svg width="477" height="374" viewBox="0 0 477 374" fill="none" xmlns="http://www.w3.org/2000/svg">
<g opacity="0.9">
<path d="M416.601 93.6286L241.569 125.381L288.226 150.326C229.96 195.091 171.685 239.835 113.404 284.563L161.84 187.512L203.635 200.78L230.504 179.834L145.638 154.168L49.6555 331.194L72.2697 359.194C187.046 270.691 301.822 182.168 416.601 93.6286Z" fill="url(#paint0_linear_324_8613)" fill-opacity="0.1"/>
<path d="M416.601 93.6286L241.569 125.381L288.226 150.326C229.96 195.091 171.685 239.835 113.404 284.563L161.84 187.512L203.635 200.78L230.504 179.834L145.638 154.168L49.6555 331.194L72.2697 359.194C187.046 270.691 301.822 182.168 416.601 93.6286Z" fill="url(#paint1_linear_324_8613)" fill-opacity="0.1"/>
<path d="M286.829 207.575L262.643 226.43L305.986 236.096L338.16 211.014L352.055 266.634C377.292 213.741 402.539 160.841 427.796 107.933L295.9 210.755L286.829 207.575Z" fill="url(#paint2_linear_324_8613)" fill-opacity="0.1"/>
</g>
<defs>
<linearGradient id="paint0_linear_324_8613" x1="171.692" y1="133.857" x2="244.799" y2="227.636" gradientUnits="userSpaceOnUse">
<stop stop-opacity="0.55"/>
<stop offset="0.8"/>
<stop offset="1"/>
</linearGradient>
<linearGradient id="paint1_linear_324_8613" x1="379.993" y1="46.8197" x2="37.0281" y2="315.048" gradientUnits="userSpaceOnUse">
<stop stop-color="white"/>
<stop offset="0.5625" stop-color="white"/>
<stop offset="1" stop-color="white" stop-opacity="0"/>
</linearGradient>
<linearGradient id="paint2_linear_324_8613" x1="342.729" y1="163.997" x2="396.021" y2="232.359" gradientUnits="userSpaceOnUse">
<stop stop-opacity="0.46"/>
<stop offset="1"/>
</linearGradient>
</defs>
</svg>
