<svg width="222" height="57" viewBox="0 0 222 57" fill="none" xmlns="http://www.w3.org/2000/svg">
<g clip-path="url(#clip0_177_1332)" filter="url(#filter0_b_177_1332)">
<path d="M23.814 41.6629V46.7449H3.10803V16.9249H23.436V22.0069H8.90403V29.1889H21.462V33.8929H8.90403V41.6629H23.814ZM32.4996 46.7449L24.3935 24.7369H30.2316L35.7756 41.6209L41.3616 24.7369H46.6956L38.6316 46.7449H32.4996ZM58.2969 47.1649C56.5329 47.1649 54.9369 46.8709 53.5089 46.2829C52.0809 45.667 50.8629 44.8408 49.8549 43.8049C48.8469 42.7408 48.063 41.5369 47.5029 40.1929C46.971 38.821 46.7049 37.3789 46.7049 35.8669C46.7049 33.7669 47.1669 31.849 48.0909 30.1129C49.0431 28.3769 50.3871 26.9909 52.1229 25.9549C53.8869 24.8909 55.959 24.3589 58.3389 24.3589C60.747 24.3589 62.805 24.8909 64.5129 25.9549C66.2211 26.9909 67.5231 28.3769 68.4189 30.1129C69.3429 31.8208 69.8049 33.6688 69.8049 35.6569C69.8049 35.9929 69.7911 36.343 69.7629 36.7069C69.735 37.0429 69.7071 37.3228 69.6789 37.5469H52.6689C52.7811 38.6668 53.103 39.6469 53.6349 40.4869C54.195 41.3269 54.8949 41.971 55.7349 42.4189C56.6031 42.8389 57.5271 43.0489 58.5069 43.0489C59.6271 43.0489 60.6771 42.7828 61.6569 42.2509C62.6649 41.6908 63.351 40.963 63.7149 40.0669L68.5449 41.4109C68.013 42.5308 67.2429 43.525 66.2349 44.3929C65.2551 45.2608 64.0929 45.9469 62.7489 46.4509C61.4049 46.927 59.9211 47.1649 58.2969 47.1649ZM52.5429 33.9769H64.0509C63.939 32.857 63.6171 31.891 63.0849 31.0789C62.5809 30.2389 61.9089 29.5949 61.0689 29.1469C60.2289 28.6709 59.2911 28.4329 58.2549 28.4329C57.2469 28.4329 56.3229 28.6709 55.4829 29.1469C54.6711 29.5949 53.9991 30.2389 53.4669 31.0789C52.9629 31.891 52.6551 32.857 52.5429 33.9769ZM92.8476 46.7449H87.2196V34.3969C87.2196 32.6329 86.9115 31.3449 86.2956 30.5329C85.6797 29.7209 84.8256 29.3149 83.7336 29.3149C82.9776 29.3149 82.2075 29.5109 81.4236 29.9029C80.6676 30.2949 79.9815 30.8409 79.3656 31.5409C78.7497 32.2129 78.3015 32.9968 78.0216 33.8929V46.7449H72.3936V24.7369H77.4756V28.8109C78.0357 27.8589 78.7497 27.0609 79.6176 26.4169C80.4855 25.7449 81.4797 25.2409 82.5996 24.9049C83.7477 24.5409 84.9516 24.3589 86.2116 24.3589C87.5835 24.3589 88.7037 24.6109 89.5716 25.1149C90.4677 25.5909 91.1397 26.2489 91.5876 27.0889C92.0637 27.9009 92.3856 28.8249 92.5536 29.8609C92.7495 30.8969 92.8476 31.9468 92.8476 33.0109V46.7449Z" fill="white"/>
<path d="M117.726 47.1649C115.934 47.1649 114.324 46.8709 112.896 46.2829C111.468 45.667 110.25 44.827 109.242 43.7629C108.262 42.6988 107.506 41.4808 106.974 40.1089C106.442 38.737 106.176 37.2949 106.176 35.7829C106.176 34.243 106.442 32.7868 106.974 31.4149C107.506 30.0429 108.262 28.8249 109.242 27.7609C110.25 26.6969 111.468 25.8709 112.896 25.2829C114.324 24.6669 115.934 24.3589 117.726 24.3589C119.518 24.3589 121.114 24.6669 122.514 25.2829C123.942 25.8709 125.16 26.6969 126.168 27.7609C127.176 28.8249 127.932 30.0429 128.436 31.4149C128.968 32.7868 129.234 34.243 129.234 35.7829C129.234 37.2949 128.968 38.737 128.436 40.1089C127.932 41.4808 127.176 42.6988 126.168 43.7629C125.188 44.827 123.984 45.667 122.556 46.2829C121.128 46.8709 119.518 47.1649 117.726 47.1649ZM111.972 35.7829C111.972 37.0708 112.224 38.2189 112.728 39.2269C113.232 40.207 113.918 40.9768 114.786 41.5369C115.654 42.097 116.634 42.3769 117.726 42.3769C118.79 42.3769 119.756 42.097 120.624 41.5369C121.492 40.9489 122.178 40.165 122.682 39.1849C123.214 38.1769 123.48 37.0288 123.48 35.7409C123.48 34.4809 123.214 33.3469 122.682 32.3389C122.178 31.3309 121.492 30.5469 120.624 29.9869C119.756 29.4269 118.79 29.1469 117.726 29.1469C116.634 29.1469 115.654 29.4409 114.786 30.0289C113.918 30.5889 113.232 31.3729 112.728 32.3809C112.224 33.361 111.972 34.495 111.972 35.7829ZM166.381 46.7449H160.753V34.3969C160.753 32.6608 160.445 31.3869 159.829 30.5749C159.241 29.7349 158.415 29.3149 157.351 29.3149C156.259 29.3149 155.209 29.7489 154.201 30.6169C153.221 31.4569 152.521 32.563 152.101 33.9349V46.7449H146.473V34.3969C146.473 32.6329 146.165 31.3449 145.549 30.5329C144.961 29.7209 144.135 29.3149 143.071 29.3149C141.979 29.3149 140.929 29.7349 139.921 30.5749C138.941 31.4149 138.241 32.521 137.821 33.8929V46.7449H132.193V24.7369H137.275V28.8109C138.115 27.3829 139.235 26.2909 140.635 25.5349C142.035 24.7509 143.645 24.3589 145.465 24.3589C147.285 24.3589 148.699 24.8069 149.707 25.7029C150.743 26.5989 151.401 27.7049 151.681 29.0209C152.577 27.5089 153.711 26.3609 155.083 25.5769C156.483 24.7649 158.051 24.3589 159.787 24.3589C161.159 24.3589 162.265 24.6109 163.105 25.1149C163.973 25.5909 164.645 26.2489 165.121 27.0889C165.597 27.9009 165.919 28.8249 166.087 29.8609C166.283 30.8969 166.381 31.9468 166.381 33.0109V46.7449ZM168.929 40.2349C168.929 38.8069 169.321 37.561 170.105 36.4969C170.917 35.4049 172.037 34.5649 173.465 33.9769C174.893 33.3889 176.531 33.0949 178.379 33.0949C179.303 33.0949 180.241 33.1648 181.193 33.3049C182.145 33.445 182.971 33.6688 183.671 33.9769V32.8009C183.671 31.4009 183.251 30.3229 182.411 29.5669C181.599 28.8109 180.381 28.4329 178.757 28.4329C177.553 28.4329 176.405 28.6429 175.313 29.0629C174.221 29.4829 173.073 30.0989 171.869 30.9109L170.063 27.2149C171.519 26.2629 173.003 25.5489 174.515 25.0729C176.055 24.5969 177.665 24.3589 179.345 24.3589C182.481 24.3589 184.917 25.1429 186.653 26.7109C188.417 28.2789 189.299 30.5189 189.299 33.4309V40.4449C189.299 41.0329 189.397 41.4529 189.593 41.7049C189.817 41.9569 190.167 42.1108 190.643 42.1669V46.7449C190.139 46.8289 189.677 46.8988 189.257 46.9549C188.865 47.011 188.529 47.0389 188.249 47.0389C187.129 47.0389 186.275 46.7869 185.687 46.2829C185.127 45.7789 184.777 45.163 184.637 44.4349L184.511 43.3009C183.559 44.533 182.369 45.4849 180.941 46.1569C179.513 46.8289 178.057 47.1649 176.573 47.1649C175.117 47.1649 173.801 46.8709 172.625 46.2829C171.477 45.667 170.567 44.8408 169.895 43.8049C169.251 42.7408 168.929 41.551 168.929 40.2349ZM182.621 41.3689C182.929 41.0329 183.181 40.6969 183.377 40.3609C183.573 40.0249 183.671 39.7168 183.671 39.4369V37.2109C182.999 36.931 182.271 36.721 181.487 36.5809C180.703 36.4129 179.961 36.3289 179.261 36.3289C177.805 36.3289 176.601 36.6508 175.649 37.2949C174.725 37.9108 174.263 38.737 174.263 39.7729C174.263 40.333 174.417 40.8649 174.725 41.3689C175.033 41.8729 175.481 42.2788 176.069 42.5869C176.657 42.895 177.357 43.0489 178.169 43.0489C179.009 43.0489 179.835 42.895 180.647 42.5869C181.459 42.2509 182.117 41.845 182.621 41.3689ZM197.33 24.7369L201.95 31.6249L202.286 32.3809L202.706 31.6249L207.284 24.7369H213.206L205.562 35.6989L213.332 46.7449H207.41L202.664 39.8989L202.286 39.1849L201.95 39.8989L197.246 46.7449H191.324L199.094 35.8249L191.45 24.7369H197.33Z" fill="#FFD700"/>
<path d="M105.559 0L94.7493 20.6105L101.08 17.811C101.012 27.4299 100.942 37.0479 100.869 46.6653L94.7469 33.8433L99.4809 30.6033V26.1432L90 32.8248L100.552 57L105.263 56.9262C105.364 37.9524 105.462 18.977 105.559 0Z" fill="url(#paint0_linear_177_1332)"/>
<path d="M105.559 0L94.7493 20.6105L101.08 17.811C101.012 27.4299 100.942 37.0479 100.869 46.6653L94.7469 33.8433L99.4809 30.6033V26.1432L90 32.8248L100.552 57L105.263 56.9262C105.364 37.9524 105.462 18.977 105.559 0Z" fill="url(#paint1_linear_177_1332)" fill-opacity="0.2"/>
<path d="M106.883 22.5737V26.5885L111.37 22.8984V17.5576L118.231 20.6105C114.801 13.742 111.371 6.87183 107.941 0V21.8947L106.883 22.5737Z" fill="url(#paint2_linear_177_1332)"/>
<path fill-rule="evenodd" clip-rule="evenodd" d="M97.9562 23.9996L97.0634 24.6609L88.0634 31.3276L87.0002 32.1151L87.6488 33.2683L90.6488 38.6017L93.2636 37.1308L90.9122 32.9509L97.9562 27.733V23.9996Z" fill="#FFD700"/>
</g>
<defs>
<filter id="filter0_b_177_1332" x="-2.50141" y="-2.50141" width="227.003" height="62.0028" filterUnits="userSpaceOnUse" color-interpolation-filters="sRGB">
<feFlood flood-opacity="0" result="BackgroundImageFix"/>
<feGaussianBlur in="BackgroundImageFix" stdDeviation="1.2507"/>
<feComposite in2="SourceAlpha" operator="in" result="effect1_backgroundBlur_177_1332"/>
<feBlend mode="normal" in="SourceGraphic" in2="effect1_backgroundBlur_177_1332" result="shape"/>
</filter>
<linearGradient id="paint0_linear_177_1332" x1="90" y1="28.5" x2="105.567" y2="28.5" gradientUnits="userSpaceOnUse">
<stop stop-color="#FFC700" stop-opacity="0.55"/>
<stop offset="0.8" stop-color="#FFD700"/>
<stop offset="1" stop-color="#FFD700"/>
</linearGradient>
<linearGradient id="paint1_linear_177_1332" x1="97.7796" y1="0" x2="97.7796" y2="57" gradientUnits="userSpaceOnUse">
<stop stop-color="white"/>
<stop offset="0.5625" stop-color="white"/>
<stop offset="1" stop-color="white" stop-opacity="0"/>
</linearGradient>
<linearGradient id="paint2_linear_177_1332" x1="106.883" y1="13.2943" x2="118.231" y2="13.2943" gradientUnits="userSpaceOnUse">
<stop stop-color="#FFD700" stop-opacity="0.46"/>
<stop offset="1" stop-color="#FFD700"/>
</linearGradient>
<clipPath id="clip0_177_1332">
<rect width="222" height="57" fill="white"/>
</clipPath>
</defs>
</svg>
