<svg version="1.2" xmlns="http://www.w3.org/2000/svg" viewBox="0 0 305 404" width="305" height="404">
	<title>about-banner-featured-bg-svg</title>
	<defs>
		<linearGradient id="g1" x1="194.1" y1="133.6" x2="304.9" y2="133.6" gradientUnits="userSpaceOnUse">
			<stop offset="0" stop-color="#ffd700" stop-opacity=".5"/>
			<stop offset="1" stop-color="#ffd700"/>
		</linearGradient>
		<linearGradient id="g2" x1="29.3" y1="286.5" x2="181.3" y2="286.5" gradientUnits="userSpaceOnUse">
			<stop offset="0" stop-color="#ffc700" stop-opacity=".6"/>
			<stop offset=".8" stop-color="#ffd700"/>
			<stop offset="1" stop-color="#ffd700"/>
		</linearGradient>
		<linearGradient id="g3" x1="105.2" y1="0" x2="105.2" y2="573" gradientUnits="userSpaceOnUse">
			<stop offset="0" stop-color="#ffffff"/>
			<stop offset=".6" stop-color="#ffffff"/>
			<stop offset="1" stop-color="#ffffff" stop-opacity="0"/>
		</linearGradient>
	</defs>
	<style>
		.s0 { fill: url(#g1) } 
		.s1 { fill: url(#g2) } 
		.s2 { opacity: .2;fill: url(#g3) } 
		.s3 { fill: #ffd700 } 
	</style>
	<g id="Layer" style="opacity: .5">
		<path id="Layer" class="s0" d="m204.5 220.1v-220.1q50.2 103.6 100.4 207.2l-67-30.7v53.7l-43.8 37.1v-40.4z"/>
		<path id="Layer" fill-rule="evenodd" class="s1" d="m75.7 207.2l105.5-207.2q-1 199.2-2 398.4l-43.3-4.3q0.8-107.5 1.6-215.1zm-22.8 178.6l-23.6-55.8 92.6-67.1v44.8l-46.3 32.6 23.3 50.1z"/>
		<path id="Layer" fill-rule="evenodd" class="s2" d="m75.7 207.2l105.5-207.2q-1 199.2-2 398.4l-43.3-4.3q0.8-107.5 1.6-215.1zm-22.8 178.6l-23.6-55.8 92.6-67.1v44.8l-46.3 32.6 23.3 50.1z"/>
		<path id="Layer" fill-rule="evenodd" class="s3" d="m98.3 247.9l8.7-6.6v37.5l-68.8 52.4 23 42.1-19.4 11.2-8.6-0.9-26.9-49.2-6.3-11.6 10.4-7.9z"/>
	</g>
</svg>