<svg width="672" height="541" viewBox="0 0 672 541" fill="none" xmlns="http://www.w3.org/2000/svg">
<g opacity="0.8">
<path d="M345.481 373.257L306.844 410.178L385.51 417.558L436.909 368.442L473.519 459.697C506.631 364.95 539.759 270.188 572.902 175.411L362.195 376.758L345.481 373.257Z" fill="url(#paint0_linear_260_2943)"/>
<path fill-rule="evenodd" clip-rule="evenodd" d="M247.668 243.475L549.986 153.475C448.869 249.118 347.752 344.753 246.635 440.378L169.496 432.379C224.837 380.272 280.173 328.155 335.501 276.025L247.668 243.475ZM98.1471 424.981L120.297 365.143L197.01 378.939L239.932 337.923L84.4436 312.067L40.5398 419.007L98.1471 424.981Z" fill="url(#paint1_linear_260_2943)"/>
<path fill-rule="evenodd" clip-rule="evenodd" d="M247.668 243.475L549.986 153.475C448.869 249.118 347.752 344.753 246.635 440.378L169.496 432.379C224.837 380.272 280.173 328.155 335.501 276.025L247.668 243.475ZM98.1471 424.981L120.297 365.143L197.01 378.939L239.932 337.923L84.4436 312.067L40.5398 419.007L98.1471 424.981Z" fill="url(#paint2_linear_260_2943)" fill-opacity="0.2"/>
<path fill-rule="evenodd" clip-rule="evenodd" d="M245.9 331.341L230.948 329.105L80.2292 306.558L62.4248 303.894L57.565 321.226L35.092 401.385L74.3966 412.416L92.0068 349.591L209.971 367.236L245.9 331.341Z" fill="#FFD700"/>
</g>
<defs>
<linearGradient id="paint0_linear_260_2943" x1="434.783" y1="287.921" x2="539.071" y2="397.057" gradientUnits="userSpaceOnUse">
<stop stop-color="#FFD700" stop-opacity="0.46"/>
<stop offset="1" stop-color="#FFD700"/>
</linearGradient>
<linearGradient id="paint1_linear_260_2943" x1="126.664" y1="269.887" x2="279.996" y2="423.364" gradientUnits="userSpaceOnUse">
<stop stop-color="#FFC700" stop-opacity="0.55"/>
<stop offset="0.8" stop-color="#FFD700"/>
<stop offset="1" stop-color="#FFD700"/>
</linearGradient>
<linearGradient id="paint2_linear_260_2943" x1="473.358" y1="76.7746" x2="-66.7752" y2="616.399" gradientUnits="userSpaceOnUse">
<stop stop-color="white"/>
<stop offset="0.5625" stop-color="white"/>
<stop offset="1" stop-color="white" stop-opacity="0"/>
</linearGradient>
</defs>
</svg>
