<svg width="310" height="317" viewBox="0 0 310 317" fill="none" xmlns="http://www.w3.org/2000/svg">
<g opacity="0.4">
<path fill-rule="evenodd" clip-rule="evenodd" d="M115.427 133.22L110.471 136.891L60.5131 173.896L54.6113 178.268L58.2116 184.669L74.8643 214.274L89.3788 206.109L76.3265 182.907L115.427 153.943V133.22Z" fill="#FFD700"/>
<path d="M157.633 0L97.6285 114.407L132.771 98.8669C132.394 152.26 132.001 205.649 131.597 259.034L97.6152 187.861L123.893 169.876V145.118L71.2656 182.207L129.84 316.401L155.991 315.992C156.549 210.67 157.095 105.34 157.633 0Z" fill="url(#paint0_linear_508_8016)"/>
<path d="M157.633 0L97.6285 114.407L132.771 98.8669C132.394 152.26 132.001 205.649 131.597 259.034L97.6152 187.861L123.893 169.876V145.118L71.2656 182.207L129.84 316.401L155.991 315.992C156.549 210.67 157.095 105.34 157.633 0Z" fill="url(#paint1_linear_508_8016)" fill-opacity="0.2"/>
<path d="M164.982 125.304V147.59L189.888 127.107V97.4603L227.975 114.407C208.936 76.2803 189.896 38.1448 170.857 0V121.535L164.982 125.304Z" fill="url(#paint2_linear_508_8016)"/>
</g>
<g clip-path="url(#clip0_508_8016)" filter="url(#filter0_b_508_8016)">
<path d="M33.1632 184.389V191.466H4.32812V149.939H32.6368V157.016H12.3996V167.017H29.8879V173.568H12.3996V184.389H33.1632ZM45.2588 191.466L33.9702 160.818H42.1004L49.8209 184.33L57.6 160.818H65.0281L53.7982 191.466H45.2588ZM81.184 192.051C78.7275 192.051 76.5049 191.641 74.5163 190.822C72.5276 189.965 70.8315 188.814 69.4277 187.372C68.024 185.89 66.9323 184.213 66.1523 182.342C65.4116 180.431 65.041 178.423 65.041 176.317C65.041 173.393 65.6844 170.722 66.9712 168.304C68.2972 165.887 70.1689 163.956 72.5861 162.514C75.0427 161.032 77.9283 160.291 81.2425 160.291C84.596 160.291 87.462 161.032 89.8404 162.514C92.2192 163.956 94.0324 165.887 95.2799 168.304C96.5667 170.683 97.21 173.256 97.21 176.025C97.21 176.493 97.1908 176.98 97.1515 177.487C97.1127 177.955 97.0738 178.345 97.0346 178.657H73.3465C73.5027 180.216 73.951 181.581 74.6917 182.751C75.4717 183.921 76.4464 184.818 77.6162 185.441C78.8252 186.026 80.112 186.319 81.4765 186.319C83.0365 186.319 84.4987 185.948 85.8632 185.208C87.2669 184.428 88.2224 183.414 88.7291 182.166L95.4554 184.038C94.7146 185.597 93.6422 186.982 92.2385 188.19C90.874 189.399 89.2555 190.355 87.3839 191.056C85.5122 191.719 83.4459 192.051 81.184 192.051ZM73.171 173.685H89.197C89.0412 172.126 88.5929 170.78 87.8518 169.649C87.1499 168.48 86.2141 167.583 85.0443 166.959C83.8745 166.296 82.5686 165.965 81.1255 165.965C79.7218 165.965 78.435 166.296 77.2653 166.959C76.1348 167.583 75.1989 168.48 74.4578 169.649C73.7559 170.78 73.3273 172.126 73.171 173.685ZM129.299 191.466H121.462V174.27C121.462 171.814 121.033 170.02 120.175 168.889C119.317 167.758 118.128 167.193 116.607 167.193C115.554 167.193 114.482 167.466 113.39 168.012C112.337 168.558 111.382 169.318 110.524 170.293C109.667 171.229 109.042 172.32 108.653 173.568V191.466H100.815V160.818H107.892V166.491C108.672 165.165 109.667 164.054 110.875 163.157C112.084 162.221 113.468 161.519 115.028 161.052C116.627 160.545 118.303 160.291 120.058 160.291C121.968 160.291 123.528 160.642 124.737 161.344C125.985 162.007 126.921 162.923 127.545 164.093C128.208 165.224 128.656 166.511 128.89 167.953C129.163 169.396 129.299 170.858 129.299 172.34V191.466Z" fill="white"/>
<path d="M163.946 192.051C161.45 192.051 159.208 191.641 157.22 190.822C155.231 189.965 153.535 188.795 152.131 187.313C150.766 185.831 149.713 184.135 148.973 182.225C148.232 180.314 147.861 178.306 147.861 176.2C147.861 174.056 148.232 172.028 148.973 170.117C149.713 168.207 150.766 166.51 152.131 165.029C153.535 163.547 155.231 162.397 157.22 161.578C159.208 160.72 161.45 160.291 163.946 160.291C166.441 160.291 168.664 160.72 170.614 161.578C172.602 162.397 174.298 163.547 175.702 165.029C177.106 166.51 178.159 168.207 178.861 170.117C179.601 172.028 179.972 174.056 179.972 176.2C179.972 178.306 179.601 180.314 178.861 182.225C178.159 184.135 177.106 185.831 175.702 187.313C174.337 188.795 172.661 189.965 170.672 190.822C168.683 191.641 166.441 192.051 163.946 192.051ZM155.933 176.2C155.933 177.994 156.284 179.593 156.986 180.996C157.688 182.361 158.643 183.433 159.852 184.213C161.06 184.993 162.425 185.383 163.946 185.383C165.428 185.383 166.773 184.993 167.982 184.213C169.19 183.394 170.146 182.303 170.848 180.938C171.588 179.534 171.959 177.935 171.959 176.142C171.959 174.387 171.588 172.808 170.848 171.404C170.146 170 169.19 168.909 167.982 168.129C166.773 167.349 165.428 166.959 163.946 166.959C162.425 166.959 161.06 167.368 159.852 168.187C158.643 168.967 157.688 170.059 156.986 171.463C156.284 172.827 155.933 174.407 155.933 176.2ZM231.702 191.466H223.865V174.27C223.865 171.852 223.436 170.078 222.578 168.948C221.759 167.778 220.609 167.193 219.127 167.193C217.606 167.193 216.144 167.797 214.74 169.006C213.376 170.176 212.401 171.716 211.816 173.627V191.466H203.978V174.27C203.978 171.813 203.55 170.02 202.692 168.889C201.873 167.758 200.723 167.193 199.241 167.193C197.72 167.193 196.258 167.778 194.854 168.948C193.49 170.117 192.514 171.658 191.93 173.568V191.466H184.092V160.818H191.169V166.491C192.339 164.502 193.899 162.982 195.848 161.929C197.798 160.837 200.04 160.291 202.575 160.291C205.109 160.291 207.078 160.915 208.482 162.163C209.925 163.411 210.841 164.951 211.231 166.783C212.479 164.678 214.058 163.079 215.969 161.987C217.918 160.857 220.102 160.291 222.519 160.291C224.43 160.291 225.97 160.642 227.14 161.344C228.349 162.007 229.285 162.923 229.947 164.093C230.61 165.224 231.059 166.51 231.293 167.953C231.566 169.396 231.702 170.858 231.702 172.34V191.466ZM235.25 182.4C235.25 180.411 235.796 178.676 236.888 177.194C238.019 175.674 239.578 174.504 241.567 173.685C243.556 172.866 245.837 172.457 248.41 172.457C249.697 172.457 251.003 172.554 252.329 172.749C253.655 172.944 254.805 173.256 255.78 173.685V172.047C255.78 170.098 255.195 168.597 254.025 167.544C252.895 166.491 251.199 165.965 248.937 165.965C247.26 165.965 245.661 166.257 244.141 166.842C242.62 167.427 241.021 168.285 239.345 169.415L236.829 164.268C238.857 162.943 240.924 161.948 243.029 161.285C245.174 160.623 247.416 160.291 249.756 160.291C254.123 160.291 257.515 161.383 259.933 163.567C262.389 165.75 263.617 168.87 263.617 172.925V182.692C263.617 183.511 263.754 184.096 264.027 184.447C264.339 184.798 264.827 185.012 265.489 185.091V191.466C264.787 191.583 264.144 191.68 263.559 191.758C263.013 191.836 262.545 191.875 262.155 191.875C260.596 191.875 259.406 191.524 258.587 190.822C257.808 190.121 257.32 189.263 257.125 188.249L256.95 186.67C255.624 188.386 253.967 189.711 251.978 190.647C249.99 191.583 247.962 192.051 245.895 192.051C243.868 192.051 242.035 191.641 240.397 190.822C238.799 189.965 237.531 188.814 236.596 187.372C235.699 185.89 235.25 184.233 235.25 182.4ZM254.318 183.979C254.747 183.511 255.098 183.043 255.371 182.575C255.644 182.108 255.78 181.679 255.78 181.289V178.189C254.844 177.799 253.831 177.507 252.739 177.311C251.647 177.078 250.614 176.961 249.639 176.961C247.611 176.961 245.935 177.409 244.609 178.306C243.322 179.163 242.678 180.314 242.678 181.757C242.678 182.537 242.893 183.277 243.322 183.979C243.751 184.681 244.375 185.246 245.193 185.675C246.012 186.104 246.987 186.319 248.118 186.319C249.288 186.319 250.438 186.104 251.569 185.675C252.7 185.207 253.616 184.642 254.318 183.979ZM274.802 160.818L281.236 170.41L281.704 171.463L282.288 170.41L288.664 160.818H296.911L286.266 176.083L297.086 191.466H288.839L282.23 181.932L281.704 180.938L281.236 181.932L274.685 191.466H266.438L277.258 176.259L266.613 160.818H274.802Z" fill="#FFD700"/>
<path d="M147 126.369L131.946 155.071L140.762 151.173C140.668 164.568 140.569 177.962 140.468 191.355L131.943 173.499L138.535 168.987V162.776L125.332 172.081L140.027 205.747L146.588 205.644C146.728 179.221 146.865 152.796 147 126.369Z" fill="url(#paint3_linear_508_8016)"/>
<path d="M147 126.369L131.946 155.071L140.762 151.173C140.668 164.568 140.569 177.962 140.468 191.355L131.943 173.499L138.535 168.987V162.776L125.332 172.081L140.027 205.747L146.588 205.644C146.728 179.221 146.865 152.796 147 126.369Z" fill="url(#paint4_linear_508_8016)" fill-opacity="0.2"/>
<path d="M148.844 157.805V163.396L155.092 158.257V150.82L164.647 155.071C159.871 145.506 155.094 135.939 150.318 126.369V156.859L148.844 157.805Z" fill="url(#paint5_linear_508_8016)"/>
<path fill-rule="evenodd" clip-rule="evenodd" d="M136.414 159.791L135.17 160.712L122.637 169.996L121.156 171.092L122.059 172.698L126.237 180.126L129.879 178.077L126.604 172.256L136.414 164.99V159.791Z" fill="#FFD700"/>
</g>
<defs>
<filter id="filter0_b_508_8016" x="-3.48345" y="122.886" width="316.123" height="86.345" filterUnits="userSpaceOnUse" color-interpolation-filters="sRGB">
<feFlood flood-opacity="0" result="BackgroundImageFix"/>
<feGaussianBlur in="BackgroundImageFix" stdDeviation="1.74173"/>
<feComposite in2="SourceAlpha" operator="in" result="effect1_backgroundBlur_508_8016"/>
<feBlend mode="normal" in="SourceGraphic" in2="effect1_backgroundBlur_508_8016" result="shape"/>
</filter>
<linearGradient id="paint0_linear_508_8016" x1="71.2656" y1="158.201" x2="157.676" y2="158.201" gradientUnits="userSpaceOnUse">
<stop stop-color="#FFC700" stop-opacity="0.55"/>
<stop offset="0.8" stop-color="#FFD700"/>
<stop offset="1" stop-color="#FFD700"/>
</linearGradient>
<linearGradient id="paint1_linear_508_8016" x1="114.449" y1="0" x2="114.449" y2="316.401" gradientUnits="userSpaceOnUse">
<stop stop-color="white"/>
<stop offset="0.5625" stop-color="white"/>
<stop offset="1" stop-color="white" stop-opacity="0"/>
</linearGradient>
<linearGradient id="paint2_linear_508_8016" x1="164.982" y1="73.7951" x2="227.975" y2="73.7951" gradientUnits="userSpaceOnUse">
<stop stop-color="#FFD700" stop-opacity="0.46"/>
<stop offset="1" stop-color="#FFD700"/>
</linearGradient>
<linearGradient id="paint3_linear_508_8016" x1="125.332" y1="166.058" x2="147.011" y2="166.058" gradientUnits="userSpaceOnUse">
<stop stop-color="#FFC700" stop-opacity="0.55"/>
<stop offset="0.8" stop-color="#FFD700"/>
<stop offset="1" stop-color="#FFD700"/>
</linearGradient>
<linearGradient id="paint4_linear_508_8016" x1="136.166" y1="126.369" x2="136.166" y2="205.747" gradientUnits="userSpaceOnUse">
<stop stop-color="white"/>
<stop offset="0.5625" stop-color="white"/>
<stop offset="1" stop-color="white" stop-opacity="0"/>
</linearGradient>
<linearGradient id="paint5_linear_508_8016" x1="148.844" y1="144.883" x2="164.647" y2="144.883" gradientUnits="userSpaceOnUse">
<stop stop-color="#FFD700" stop-opacity="0.46"/>
<stop offset="1" stop-color="#FFD700"/>
</linearGradient>
<clipPath id="clip0_508_8016">
<rect width="309.157" height="79.378" fill="white" transform="translate(0 126.369)"/>
</clipPath>
</defs>
</svg>
