<svg width="198" height="174" viewBox="0 0 198 174" fill="none" xmlns="http://www.w3.org/2000/svg">
<g clip-path="url(#clip0_258_1492)" filter="url(#filter0_b_258_1492)">
<rect width="38.6613" height="9.92656" transform="translate(79.3571 24.0103)" fill="#1F1F1F"/>
<path d="M83.5044 31.2659V32.1509H79.8984V26.9578H83.4385V27.8428H80.9078V29.0935H83.0948V29.9127H80.9078V31.2659H83.5044ZM85.017 32.1509L83.6053 28.3182H84.622L85.5875 31.2586L86.5603 28.3182H87.4892L86.0848 32.1509H85.017ZM89.5096 32.2241C89.2024 32.2241 88.9244 32.1729 88.6757 32.0705C88.427 31.9632 88.2149 31.8193 88.0394 31.6389C87.8638 31.4536 87.7273 31.2439 87.6298 31.0099C87.5372 30.771 87.4908 30.5198 87.4908 30.2565C87.4908 29.8908 87.5713 29.5568 87.7322 29.2545C87.898 28.9521 88.1321 28.7108 88.4344 28.5303C88.7416 28.345 89.1024 28.2524 89.5169 28.2524C89.9362 28.2524 90.2946 28.345 90.5921 28.5303C90.8896 28.7108 91.1163 28.9521 91.2723 29.2545C91.4332 29.5519 91.5137 29.8737 91.5137 30.2199C91.5137 30.2785 91.5113 30.3394 91.5064 30.4028C91.5015 30.4613 91.4966 30.5101 91.4917 30.5491H88.5294C88.549 30.7441 88.605 30.9148 88.6977 31.0611C88.7952 31.2074 88.9171 31.3195 89.0634 31.3975C89.2146 31.4707 89.3755 31.5073 89.5461 31.5073C89.7412 31.5073 89.9241 31.4609 90.0947 31.3683C90.2702 31.2707 90.3897 31.144 90.4531 30.9879L91.2942 31.222C91.2016 31.417 91.0675 31.5902 90.892 31.7413C90.7213 31.8925 90.5189 32.0119 90.2849 32.0997C90.0508 32.1826 89.7924 32.2241 89.5096 32.2241ZM88.5075 29.9274H90.5116C90.4921 29.7323 90.4361 29.5641 90.3434 29.4227C90.2556 29.2764 90.1386 29.1642 89.9923 29.0862C89.846 29.0033 89.6827 28.9619 89.5022 28.9619C89.3267 28.9619 89.1658 29.0033 89.0195 29.0862C88.8781 29.1642 88.7611 29.2764 88.6684 29.4227C88.5806 29.5641 88.527 29.7323 88.5075 29.9274ZM95.5266 32.1509H94.5464V30.0005C94.5464 29.6933 94.4928 29.469 94.3855 29.3276C94.2783 29.1862 94.1295 29.1155 93.9394 29.1155C93.8077 29.1155 93.6736 29.1496 93.5371 29.2179C93.4054 29.2862 93.2859 29.3812 93.1787 29.5031C93.0714 29.6202 92.9934 29.7567 92.9446 29.9127V32.1509H91.9645V28.3182H92.8495V29.0277C92.9471 28.8619 93.0714 28.723 93.2226 28.6108C93.3737 28.4938 93.5468 28.406 93.7419 28.3475C93.9418 28.2841 94.1515 28.2524 94.3709 28.2524C94.6098 28.2524 94.8049 28.2963 94.9561 28.3841C95.1121 28.467 95.2291 28.5815 95.3071 28.7278C95.39 28.8692 95.4461 29.0302 95.4754 29.2106C95.5095 29.391 95.5266 29.5738 95.5266 29.7591V32.1509Z" fill="white"/>
<path d="M99.8591 32.2241C99.5471 32.2241 99.2667 32.1729 99.018 32.0705C98.7693 31.9632 98.5572 31.817 98.3816 31.6316C98.2109 31.4463 98.0793 31.2342 97.9867 30.9953C97.894 30.7564 97.8477 30.5052 97.8477 30.2419C97.8477 29.9738 97.894 29.7202 97.9867 29.4812C98.0793 29.2423 98.2109 29.0302 98.3816 28.8449C98.5572 28.6596 98.7693 28.5158 99.018 28.4134C99.2667 28.3061 99.5471 28.2524 99.8591 28.2524C100.171 28.2524 100.449 28.3061 100.693 28.4134C100.942 28.5158 101.154 28.6596 101.329 28.8449C101.505 29.0302 101.636 29.2423 101.724 29.4812C101.817 29.7202 101.863 29.9738 101.863 30.2419C101.863 30.5052 101.817 30.7564 101.724 30.9953C101.636 31.2342 101.505 31.4463 101.329 31.6316C101.159 31.817 100.949 31.9632 100.7 32.0705C100.452 32.1729 100.171 32.2241 99.8591 32.2241ZM98.8571 30.2419C98.8571 30.4662 98.9009 30.6662 98.9887 30.8417C99.0765 31.0124 99.196 31.1465 99.3471 31.244C99.4983 31.3415 99.6689 31.3903 99.8591 31.3903C100.044 31.3903 100.213 31.3415 100.364 31.244C100.515 31.1416 100.634 31.0051 100.722 30.8344C100.815 30.6588 100.861 30.4589 100.861 30.2346C100.861 30.0152 100.815 29.8177 100.722 29.6422C100.634 29.4666 100.515 29.3301 100.364 29.2326C100.213 29.135 100.044 29.0863 99.8591 29.0863C99.6689 29.0863 99.4983 29.1375 99.3471 29.2399C99.196 29.3374 99.0765 29.4739 98.9887 29.6495C98.9009 29.8202 98.8571 30.0176 98.8571 30.2419ZM108.332 32.151H107.352V30.0006C107.352 29.6982 107.299 29.4764 107.191 29.335C107.089 29.1887 106.945 29.1155 106.76 29.1155C106.57 29.1155 106.387 29.1911 106.211 29.3423C106.041 29.4886 105.919 29.6812 105.845 29.9201V32.151H104.865V30.0006C104.865 29.6934 104.812 29.4691 104.704 29.3276C104.602 29.1862 104.458 29.1155 104.273 29.1155C104.083 29.1155 103.9 29.1887 103.724 29.335C103.554 29.4812 103.432 29.6739 103.359 29.9128V32.151H102.378V28.3183H103.264V29.0278C103.41 28.7791 103.605 28.5889 103.849 28.4572C104.092 28.3207 104.373 28.2524 104.69 28.2524C105.007 28.2524 105.253 28.3305 105.429 28.4865C105.609 28.6425 105.724 28.8351 105.772 29.0643C105.928 28.801 106.126 28.6011 106.365 28.4646C106.609 28.3231 106.882 28.2524 107.184 28.2524C107.423 28.2524 107.616 28.2963 107.762 28.3841C107.913 28.467 108.03 28.5816 108.113 28.7279C108.196 28.8693 108.252 29.0302 108.281 29.2106C108.315 29.391 108.332 29.5739 108.332 29.7592V32.151ZM108.776 31.0172C108.776 30.7686 108.844 30.5516 108.981 30.3663C109.122 30.1761 109.317 30.0298 109.566 29.9274C109.815 29.825 110.1 29.7738 110.422 29.7738C110.583 29.7738 110.746 29.786 110.912 29.8104C111.078 29.8348 111.221 29.8738 111.343 29.9274V29.7226C111.343 29.4788 111.27 29.2911 111.124 29.1594C110.983 29.0278 110.77 28.9619 110.488 28.9619C110.278 28.9619 110.078 28.9985 109.888 29.0716C109.698 29.1448 109.498 29.2521 109.288 29.3935L108.974 28.7498C109.227 28.584 109.486 28.4597 109.749 28.3768C110.017 28.2939 110.297 28.2524 110.59 28.2524C111.136 28.2524 111.56 28.389 111.863 28.662C112.17 28.9351 112.323 29.3252 112.323 29.8323V31.0538C112.323 31.1562 112.341 31.2294 112.375 31.2732C112.414 31.3171 112.475 31.3439 112.558 31.3537V32.151C112.47 32.1656 112.389 32.1778 112.316 32.1875C112.248 32.1973 112.189 32.2022 112.141 32.2022C111.946 32.2022 111.797 32.1583 111.694 32.0705C111.597 31.9827 111.536 31.8755 111.512 31.7487L111.49 31.5512C111.324 31.7658 111.117 31.9315 110.868 32.0486C110.619 32.1656 110.366 32.2241 110.107 32.2241C109.854 32.2241 109.625 32.1729 109.42 32.0705C109.22 31.9632 109.061 31.8194 108.944 31.639C108.832 31.4537 108.776 31.2464 108.776 31.0172ZM111.161 31.2147C111.214 31.1562 111.258 31.0977 111.292 31.0392C111.326 30.9807 111.343 30.927 111.343 30.8783V30.4906C111.226 30.4419 111.1 30.4053 110.963 30.3809C110.827 30.3516 110.697 30.337 110.575 30.337C110.322 30.337 110.112 30.3931 109.946 30.5052C109.785 30.6125 109.705 30.7564 109.705 30.9368C109.705 31.0343 109.732 31.127 109.785 31.2147C109.839 31.3025 109.917 31.3732 110.019 31.4268C110.122 31.4805 110.244 31.5073 110.385 31.5073C110.531 31.5073 110.675 31.4805 110.817 31.4268C110.958 31.3683 111.073 31.2976 111.161 31.2147ZM113.722 28.3183L114.527 29.5178L114.585 29.6495L114.658 29.5178L115.456 28.3183H116.487L115.156 30.2273L116.509 32.151H115.478L114.651 30.9587L114.585 30.8344L114.527 30.9587L113.707 32.151H112.676L114.029 30.2492L112.698 28.3183H113.722Z" fill="#FFD700"/>
<path d="M97.7402 24.0103L95.8577 27.5996L96.9602 27.112C96.9484 28.7872 96.9361 30.4621 96.9234 32.137L95.8573 29.9041L96.6817 29.3398V28.5631L95.0306 29.7267L96.8683 33.9368L97.6887 33.924C97.7062 30.6197 97.7234 27.3151 97.7402 24.0103Z" fill="url(#paint0_linear_258_1492)"/>
<path d="M97.7402 24.0103L95.8577 27.5996L96.9602 27.112C96.9484 28.7872 96.9361 30.4621 96.9234 32.137L95.8573 29.9041L96.6817 29.3398V28.5631L95.0306 29.7267L96.8683 33.9368L97.6887 33.924C97.7062 30.6197 97.7234 27.3151 97.7402 24.0103Z" fill="url(#paint1_linear_258_1492)" fill-opacity="0.2"/>
<path d="M97.9709 27.9415V28.6406L98.7523 27.998V27.0679L99.9472 27.5996C99.3499 26.4034 98.7526 25.207 98.1553 24.0103V27.8232L97.9709 27.9415Z" fill="url(#paint2_linear_258_1492)"/>
<path fill-rule="evenodd" clip-rule="evenodd" d="M96.4162 28.1897L96.2607 28.3049L94.6934 29.4659L94.5082 29.603L94.6212 29.8038L95.1436 30.7327L95.599 30.4765L95.1895 29.7486L96.4162 28.8399V28.1897Z" fill="#FFD700"/>
</g>
<path d="M107.993 167.327C107.835 167.334 107.677 167.293 107.543 167.208C107.409 167.123 107.304 166.999 107.243 166.852C107.182 166.706 107.167 166.544 107.201 166.389C107.235 166.233 107.315 166.092 107.432 165.985L107.485 165.774C107.478 165.757 107.471 165.74 107.464 165.723C107.304 165.345 107.036 165.023 106.694 164.798C106.352 164.572 105.951 164.452 105.541 164.454C105.131 164.455 104.73 164.578 104.39 164.806C104.049 165.035 103.784 165.358 103.627 165.737C102.999 167.248 102.201 168.762 102.004 170.36C101.917 171.067 101.954 171.783 102.112 172.477C100.638 169.262 99.8726 165.767 99.8677 162.23C99.8674 161.343 99.9167 160.456 100.015 159.574C100.097 158.851 100.21 158.133 100.355 157.42C101.145 153.553 102.841 149.928 105.304 146.843C106.496 146.193 107.46 145.193 108.066 143.977C108.286 143.541 108.441 143.074 108.527 142.593C108.392 142.611 108.02 140.563 108.121 140.437C107.934 140.153 107.598 140.011 107.394 139.734C106.376 138.354 104.973 138.595 104.241 140.47C102.677 141.26 102.662 142.569 103.622 143.828C104.232 144.629 104.316 145.712 104.852 146.57C104.797 146.64 104.74 146.709 104.684 146.779C103.677 148.075 102.799 149.466 102.063 150.933C102.242 149.289 102.028 147.627 101.439 146.083C100.843 144.643 99.7245 143.431 98.7396 142.187C97.5566 140.692 95.1308 141.344 94.9224 143.239C94.9204 143.257 94.9184 143.276 94.9165 143.294C95.0628 143.377 95.206 143.464 95.3461 143.557C95.5221 143.674 95.6585 143.842 95.7374 144.039C95.8163 144.235 95.834 144.451 95.7882 144.658C95.7424 144.864 95.6352 145.052 95.4808 145.197C95.3263 145.342 95.1317 145.437 94.9225 145.469L94.9011 145.472C94.9532 145.999 95.0453 146.522 95.1766 147.035C93.9132 151.921 96.6409 153.701 100.536 153.781C100.622 153.825 100.705 153.869 100.791 153.911C100.052 156.007 99.588 158.19 99.4114 160.405C99.3114 161.712 99.3173 163.025 99.429 164.331L99.4224 164.285C99.1402 162.833 98.3655 161.522 97.229 160.575C95.541 159.188 93.1562 158.678 91.3352 157.563C91.1416 157.439 90.9166 157.372 90.6866 157.372C90.4566 157.371 90.2313 157.437 90.0372 157.56C89.843 157.683 89.6882 157.859 89.591 158.068C89.4937 158.276 89.4581 158.508 89.4883 158.736C89.4907 158.752 89.4932 158.769 89.4958 158.785C89.7672 158.895 90.0315 159.023 90.2871 159.166C90.4334 159.249 90.5766 159.336 90.7167 159.429C90.8927 159.547 91.0291 159.715 91.108 159.911C91.1869 160.107 91.2046 160.323 91.1588 160.53C91.113 160.736 91.0059 160.924 90.8514 161.069C90.6969 161.214 90.5023 161.309 90.2931 161.341L90.2717 161.344C90.2563 161.346 90.243 161.349 90.2276 161.351C90.6915 162.458 91.3424 163.478 92.1521 164.364C92.9421 168.63 96.3352 169.034 99.9647 167.792H99.9669C100.365 169.523 100.942 171.207 101.689 172.818H107.839C107.861 172.75 107.881 172.679 107.901 172.611C107.331 172.647 106.76 172.613 106.199 172.51C106.655 171.95 107.112 171.385 107.568 170.826C107.578 170.815 107.588 170.804 107.597 170.792C107.828 170.506 108.062 170.222 108.293 169.935L108.293 169.935C108.306 169.056 108.205 168.18 107.993 167.327L107.993 167.327Z" fill="#1F1F1F"/>
<path d="M98.8808 70.0768C91.9509 70.0768 85.1766 68.0218 79.4146 64.1718C73.6525 60.3217 69.1616 54.8494 66.5096 48.447C63.8576 42.0446 63.1637 34.9995 64.5157 28.2028C65.8677 21.406 69.2048 15.1627 74.105 10.2625C79.0052 5.36231 85.2484 2.02523 92.0452 0.673269C98.842 -0.678695 105.887 0.0151811 112.289 2.66715C118.692 5.31913 124.164 9.81008 128.014 15.5721C131.864 21.3342 133.919 28.1085 133.919 35.0384C133.909 44.3279 130.214 53.234 123.645 59.8027C117.076 66.3714 108.17 70.0663 98.8808 70.0768ZM98.8808 0.551802C92.06 0.551802 85.3924 2.57441 79.7211 6.36384C74.0498 10.1533 70.9785 24.6275 68.3683 30.9291C65.7581 37.2307 63.7262 35.0767 65.0569 41.7664C66.3876 48.4562 69.6721 54.6011 74.4951 59.4241C79.3182 64.2471 85.4631 67.5317 92.1528 68.8624C98.8426 70.193 105.777 69.5101 112.078 66.8999C118.38 64.2897 121.757 56.1345 125.546 50.4632C129.336 44.7919 133.367 41.8592 133.367 35.0384C133.357 25.8952 120.617 23.5576 114.151 17.0924C107.686 10.6271 108.024 0.562134 98.8808 0.551802Z" fill="white"/>
<path d="M102.725 47.7291H95.2756C94.9097 47.7291 94.5589 47.5838 94.3002 47.3251C94.0415 47.0664 93.8961 46.7155 93.8961 46.3497C93.8961 45.9838 94.0415 45.633 94.3002 45.3743C94.5589 45.1156 94.9097 44.9702 95.2756 44.9702H102.725C103.091 44.9702 103.441 45.1156 103.7 45.3743C103.959 45.633 104.104 45.9838 104.104 46.3497C104.104 46.7155 103.959 47.0664 103.7 47.3251C103.441 47.5838 103.091 47.7291 102.725 47.7291Z" fill="#E6E6E6"/>
<path d="M104.436 87.766H93.5641C93.0302 87.766 92.5181 87.5539 92.1405 87.1764C91.763 86.7988 91.5508 86.2867 91.5508 85.7528C91.5508 85.2188 91.763 84.7067 92.1405 84.3292C92.5181 83.9516 93.0302 83.7395 93.5641 83.7395H104.436C104.97 83.7395 105.482 83.9516 105.859 84.3292C106.237 84.7067 106.449 85.2188 106.449 85.7528C106.449 86.2867 106.237 86.7988 105.859 87.1764C105.482 87.5539 104.97 87.766 104.436 87.766Z" fill="#1F1F1F"/>
<path d="M135.338 79.3275H62.6611C62.0135 79.3268 61.3927 79.0692 60.9348 78.6113C60.4769 78.1534 60.2193 77.5326 60.2186 76.885V55.2179C60.2193 54.5703 60.4769 53.9495 60.9348 53.4916C61.3927 53.0337 62.0135 52.7761 62.6611 52.7754H135.338C135.986 52.7761 136.606 53.0337 137.064 53.4916C137.522 53.9495 137.78 54.5703 137.781 55.2179V76.885C137.78 77.5326 137.522 78.1534 137.064 78.6113C136.606 79.0692 135.986 79.3268 135.338 79.3275Z" fill="#1F1F1F"/>
<path d="M128.276 77.6799H64.3087C63.6611 77.6791 63.0403 77.4215 62.5824 76.9636C62.1245 76.5058 61.8669 75.8849 61.8661 75.2374V56.8666C61.8669 56.219 62.1245 55.5982 62.5824 55.1403C63.0403 54.6824 63.6611 54.4248 64.3087 54.4241H133.69C134.338 54.4248 134.959 54.6824 135.417 55.1403C135.874 55.5982 136.132 56.219 136.133 56.8666V69.8234C136.13 71.9063 135.302 73.9033 133.829 75.3762C132.356 76.849 130.359 77.6775 128.276 77.6799Z" fill="white"/>
<path d="M106.212 60.9576H77.0012C76.8342 60.9576 76.6739 60.8912 76.5558 60.7731C76.4377 60.655 76.3713 60.4947 76.3713 60.3277C76.3713 60.1606 76.4377 60.0004 76.5558 59.8823C76.6739 59.7641 76.8342 59.6978 77.0012 59.6978H106.212C106.379 59.6978 106.539 59.7641 106.657 59.8823C106.775 60.0004 106.842 60.1606 106.842 60.3277C106.842 60.4947 106.775 60.655 106.657 60.7731C106.539 60.8912 106.379 60.9576 106.212 60.9576Z" fill="#FFDB19"/>
<path d="M120.999 63.5345H77.0012C76.8342 63.5345 76.6739 63.4681 76.5558 63.35C76.4377 63.2319 76.3713 63.0717 76.3713 62.9046C76.3713 62.7375 76.4377 62.5773 76.5558 62.4592C76.6739 62.341 76.8342 62.2747 77.0012 62.2747H120.999C121.166 62.2747 121.326 62.341 121.444 62.4592C121.562 62.5773 121.629 62.7375 121.629 62.9046C121.629 63.0717 121.562 63.2319 121.444 63.35C121.326 63.4681 121.166 63.5345 120.999 63.5345Z" fill="#E6E6E6"/>
<path d="M120.998 66.4913H77.0009C76.9181 66.4915 76.8361 66.4753 76.7595 66.4437C76.6829 66.4122 76.6133 66.3658 76.5547 66.3073C76.496 66.2488 76.4495 66.1793 76.4178 66.1027C76.386 66.0262 76.3697 65.9442 76.3697 65.8614C76.3697 65.7785 76.386 65.6965 76.4178 65.62C76.4495 65.5435 76.496 65.474 76.5547 65.4155C76.6133 65.357 76.6829 65.3106 76.7595 65.279C76.8361 65.2474 76.9181 65.2313 77.0009 65.2314H120.998C121.165 65.2318 121.325 65.2983 121.443 65.4164C121.561 65.5345 121.627 65.6945 121.627 65.8614C121.627 66.0282 121.561 66.1882 121.443 66.3063C121.325 66.4244 121.165 66.491 120.998 66.4913Z" fill="#E6E6E6"/>
<path d="M120.998 69.4493H77.0009C76.9181 69.4495 76.8361 69.4333 76.7595 69.4017C76.6829 69.3702 76.6133 69.3238 76.5547 69.2653C76.496 69.2068 76.4495 69.1373 76.4178 69.0607C76.386 68.9842 76.3697 68.9022 76.3697 68.8194C76.3697 68.7365 76.386 68.6545 76.4178 68.578C76.4495 68.5015 76.496 68.432 76.5547 68.3735C76.6133 68.315 76.6829 68.2686 76.7595 68.237C76.8361 68.2054 76.9181 68.1893 77.0009 68.1895H120.998C121.165 68.1898 121.325 68.2563 121.443 68.3744C121.561 68.4925 121.627 68.6525 121.627 68.8194C121.627 68.9862 121.561 69.1462 121.443 69.2643C121.325 69.3824 121.165 69.449 120.998 69.4493Z" fill="#E6E6E6"/>
<path d="M120.998 72.4059H77.0009C76.9181 72.406 76.8361 72.3899 76.7595 72.3583C76.6829 72.3267 76.6133 72.2803 76.5547 72.2218C76.496 72.1633 76.4495 72.0938 76.4178 72.0173C76.386 71.9408 76.3697 71.8588 76.3697 71.7759C76.3697 71.6931 76.386 71.6111 76.4178 71.5346C76.4495 71.458 76.496 71.3885 76.5547 71.33C76.6133 71.2715 76.6829 71.2251 76.7595 71.1936C76.8361 71.162 76.9181 71.1458 77.0009 71.146H120.998C121.165 71.1463 121.325 71.2129 121.443 71.331C121.561 71.4491 121.627 71.6091 121.627 71.7759C121.627 71.9428 121.561 72.1028 121.443 72.2209C121.325 72.339 121.165 72.4055 120.998 72.4059Z" fill="#E6E6E6"/>
<path d="M159.658 169.905L156.705 169.904L155.301 158.516L159.658 158.517L159.658 169.905Z" fill="#A0616A"/>
<path d="M159.759 172.985L150.68 172.985V172.87C150.68 171.933 151.053 171.034 151.715 170.371C152.378 169.708 153.277 169.336 154.214 169.336H154.214L155.873 168.078L158.967 169.336L159.759 169.336L159.759 172.985Z" fill="#2F2E41"/>
<path d="M183.793 166.125L181.147 167.435L174.833 157.854L178.738 155.92L183.793 166.125Z" fill="#A0616A"/>
<path d="M185.254 168.838L177.119 172.868L177.068 172.766C176.652 171.926 176.586 170.955 176.886 170.067C177.186 169.179 177.826 168.446 178.666 168.03L178.666 168.03L179.593 166.166L182.925 165.92L183.635 165.568L185.254 168.838Z" fill="#2F2E41"/>
<path d="M150.909 108.692C150.909 108.692 147.548 113.377 149.974 121.471C152.4 129.566 151.038 136.802 151.719 138.253C152.4 139.704 153.771 141.082 152.638 142.182C151.506 143.283 150.909 144.177 151.804 144.475C152.698 144.774 155.68 165.647 155.68 165.647L160.75 165.946C160.75 165.946 162.586 156.249 160.624 148.424C160.624 148.424 161.055 142.743 160.157 141.075C159.259 139.406 159.435 140.911 159.496 138.817C159.53 137.302 159.75 135.797 160.153 134.337C160.452 133.144 160.624 121.122 160.624 121.122L165.559 137.075C165.757 137.625 165.831 138.212 165.777 138.793C165.655 139.615 165.654 140.843 165.803 141.273C165.953 141.702 166.12 141.793 166.036 142.642C165.953 143.492 175.885 161.397 175.885 161.397L180.82 158.086L175.958 142.388C175.475 141.853 175.073 141.25 174.765 140.599C174.169 139.406 174.145 139.34 174.455 138.479C174.765 137.617 174.765 135.938 174.765 135.436C174.765 134.933 175.075 112.122 171.192 108.767C167.31 105.412 150.909 108.692 150.909 108.692Z" fill="#2F2E41"/>
<path d="M169.14 72.4003L168.129 69.5247L165.37 66.7658L160.281 66.1582L156.968 68.3363L153.9 71.3611L149.368 108.977C149.368 108.977 170.773 117.23 173.578 110.304L169.14 72.4003Z" fill="#CCCCCC"/>
<path d="M170.875 72.4003L167.902 69.4272C167.902 69.4272 166.481 88.4285 167.086 89.7649C167.691 91.1013 168.404 90.7602 167.634 91.4825C166.864 92.2048 166.036 91.488 166.864 92.812C167.352 93.5544 167.591 94.4326 167.547 95.3198C167.547 95.3198 171.83 122.277 174.313 122.277C176.796 122.277 178.35 121.55 178.263 120.81C178.175 120.07 176.711 118.227 177.167 117.769C177.624 117.311 178.749 117.657 177.634 116.794C176.52 115.932 175.968 116.208 176.244 115.104C176.52 114 174.411 99.6941 174.411 99.6941L174.205 75.7981L170.875 72.4003Z" fill="#1F1F1F"/>
<path d="M156.969 68.3367L153.118 68.8815L148.541 70.6287C148.541 70.6287 150.632 94.2126 150.195 95.0022C149.759 95.7919 148.983 95.2987 149.647 96.0971C150.31 96.8954 150.907 96.5413 150.195 97.2702C149.483 97.999 148.284 97.0758 149.021 98.3651C149.759 99.6544 146.205 117.406 147.161 118.358C148.118 119.31 150.584 118.718 150.585 118.015C150.51 117.257 150.223 116.535 149.759 115.932C149.625 115.779 149.552 115.583 149.552 115.38C149.552 115.177 149.625 114.981 149.759 114.828C150.15 114.452 150.418 113.967 150.529 113.436C150.586 112.897 151.008 112.235 151.211 111.738C151.414 111.242 156.53 77.6405 156.53 77.6405L156.969 68.3367Z" fill="#1F1F1F"/>
<path d="M140.541 86.9061L142.277 85.9995C140.109 84.0439 134.729 80.8442 134.729 80.8442L125.458 74.5934C125.322 74.2739 125.104 73.9958 124.827 73.787C124.55 73.5783 124.222 73.4463 123.878 73.4044C123.533 73.3624 123.183 73.412 122.864 73.5481C122.545 73.6843 122.267 73.9021 122.058 74.1798C121.85 74.4574 121.718 74.7851 121.677 75.1297C121.635 75.4744 121.685 75.824 121.822 76.1432C121.958 76.4624 122.176 76.74 122.454 76.9481C122.732 77.1561 123.06 77.2873 123.405 77.3285L133.795 86.6374L140.541 86.9061Z" fill="#A0616A"/>
<path d="M153.232 80.0085L153.251 72.3844L149.016 70.3589L138.334 81.6638L137.506 81.112H135.575L130.885 86.6299C130.885 86.6299 133.383 88.1103 134.617 87.508C135.851 86.9058 135.735 87.7711 135.735 87.7711C135.918 88.0013 136.173 88.1632 136.46 88.2305C136.746 88.2979 137.047 88.2668 137.313 88.1424C138.334 87.7335 140.265 88.837 140.265 88.837L153.232 80.0085Z" fill="#1F1F1F"/>
<path d="M163.383 64.4072C166.794 64.4072 169.559 61.642 169.559 58.2309C169.559 54.8199 166.794 52.0547 163.383 52.0547C159.972 52.0547 157.207 54.8199 157.207 58.2309C157.207 61.642 159.972 64.4072 163.383 64.4072Z" fill="#A0616A"/>
<path d="M170.838 59.799C170.255 60.94 169.472 61.9676 168.527 62.833C168.256 63.1413 167.91 63.3747 167.522 63.5108C167.327 63.5743 167.116 63.5674 166.926 63.4915C166.735 63.4155 166.578 63.2752 166.48 63.095L166.366 62.9386C166.697 62.8373 167.009 62.6829 167.29 62.4813C167.43 62.3797 167.544 62.2463 167.621 62.0921C167.699 61.9378 167.739 61.7673 167.738 61.5946C167.728 61.4219 167.651 61.2599 167.524 61.1426C167.397 61.0252 167.23 60.9617 167.057 60.9652C166.671 61.0111 166.326 61.4617 165.98 61.288C165.701 61.1461 165.741 60.7396 165.821 60.4327C166.251 58.8311 166.071 56.3487 165.453 56.2619C164.838 56.1367 164.251 55.8968 163.725 55.5548C163.198 55.2123 162.609 54.9756 161.992 54.8578C161.948 54.852 161.902 54.8488 161.855 54.8449C161.837 54.5147 161.779 54.1878 161.683 53.8714C161.616 54.2055 161.514 54.5315 161.377 54.844C160.843 54.9169 160.303 54.9442 159.763 54.9256C159.188 54.8588 157.536 56.1985 157.524 56.0142C157.506 55.684 157.448 55.3571 157.352 55.0407C157.285 55.3748 157.183 55.7008 157.046 56.0133C157.04 56.026 157.037 56.0368 157.031 56.0495C156.856 55.6212 156.805 55.1423 156.81 55.4999C156.441 53.224 157.172 51.8537 159.04 50.5041C159.413 50.2064 159.856 50.0084 160.326 49.9284C160.561 49.8909 160.802 49.9145 161.025 49.997C161.248 50.0794 161.447 50.218 161.601 50.3993C162.318 50.02 163.123 49.8393 163.934 49.876C164.744 49.9127 165.53 50.1655 166.21 50.6082C167.554 51.5083 168.614 52.1072 168.435 53.7167C169.708 53.8394 170.784 54.8622 171.186 56.0743C171.585 57.2884 171.378 58.6433 170.838 59.799Z" fill="#2F2E41"/>
<path d="M178.722 91.9811L174.291 91.3464C172.793 93.8523 172.26 100.522 172.26 100.522L167.924 110.829C167.636 111.024 167.406 111.291 167.255 111.604C167.104 111.917 167.037 112.263 167.063 112.61C167.089 112.956 167.205 113.289 167.4 113.576C167.596 113.863 167.863 114.094 168.176 114.244C168.489 114.395 168.836 114.461 169.182 114.435C169.528 114.409 169.861 114.292 170.148 114.096C170.435 113.9 170.665 113.632 170.815 113.32C170.966 113.007 171.031 112.66 171.004 112.313L178.124 100.317L178.722 91.9811Z" fill="#A0616A"/>
<path d="M168.518 76.6163L170.396 74.0303L174.203 75.7995L177.37 88.0141C177.37 88.0141 179.682 89.5189 179.189 90.5804C178.695 91.6419 178.433 92.4985 178.943 93.1067C179.453 93.7149 180.938 93.7597 179.832 94.7515C178.726 95.7432 179.673 98.3345 179.673 98.3345L178.612 100.701L171.991 100.425L168.518 76.6163Z" fill="#1F1F1F"/>
<path d="M15.3782 114.499C15.7961 114.171 16.0696 113.693 16.1405 113.167C16.2113 112.64 16.0739 112.107 15.7575 111.68C15.6918 111.595 15.6192 111.514 15.5403 111.441L18.3676 104.912L15.5596 102.312L12.6534 111.674C12.3729 112.025 12.2165 112.459 12.2085 112.908C12.2006 113.357 12.3415 113.796 12.6093 114.156C12.7637 114.36 12.9567 114.531 13.1772 114.661C13.3978 114.79 13.6416 114.874 13.8948 114.909C14.148 114.944 14.4056 114.929 14.6529 114.864C14.9002 114.799 15.1323 114.687 15.336 114.532C15.3502 114.521 15.3643 114.51 15.3782 114.499Z" fill="#FFB6B6"/>
<path d="M31.8028 72.146C31.8028 72.146 29.7098 68.1673 24.8547 72.464C19.9996 76.7608 14.2623 98.268 14.3737 99.0766C14.4851 99.8851 15.6718 99.5653 14.1709 100.729C12.6699 101.894 11.8399 100.848 12.6699 101.894C13.4998 102.94 15.3557 104.048 13.7124 104.203C12.0691 104.359 18.0932 106.951 18.0932 106.951C18.0932 106.951 19.0407 106.723 19.3314 104.537C19.4947 103.309 18.9414 102.611 19.9154 102.407C20.8893 102.202 19.9764 99.9816 20.1166 99.6321C20.2568 99.2827 28.0335 84.0219 28.0335 84.0219L31.8028 72.146Z" fill="black"/>
<path d="M41.3612 169.317L44.8766 169.317L46.5494 155.755L41.3604 155.756L41.3612 169.317Z" fill="#FFB6B6"/>
<path d="M41.2381 172.985L52.0498 172.984V172.848C52.0497 171.731 51.6063 170.661 50.8172 169.872C50.028 169.083 48.9576 168.639 47.8416 168.639H47.8413L45.8664 167.141L42.1817 168.64L41.2379 168.64L41.2381 172.985Z" fill="#2F2E41"/>
<path d="M16.7191 162.85L19.5951 164.872L28.7641 154.741L24.5189 151.756L16.7191 162.85Z" fill="#FFB6B6"/>
<path d="M14.5068 165.779L23.3511 171.997L23.4298 171.885C24.0717 170.972 24.3246 169.842 24.133 168.742C23.9414 167.643 23.3208 166.665 22.4079 166.023L22.4077 166.022L21.654 163.661L17.778 162.767L17.0059 162.224L14.5068 165.779Z" fill="#2F2E41"/>
<path d="M27.3541 101.851L27.0619 102.475C25.1417 106.577 24.6507 111.163 25.3969 115.63C25.4524 115.805 25.4418 115.993 25.3672 116.161C24.9044 116.703 25.6305 119.062 26.0467 120.379L26.4218 122.707C26.4218 122.707 25.7998 124.87 26.7446 124.711C27.6894 124.552 26.2825 126.859 27.1837 127.437L29.5216 141.95L19.7678 158.025L23.3803 163.263L37.8304 144.659L38.011 127.861L40.1785 141.408L40.3591 162.722L46.9312 162.023L49.3391 141.359L47.0423 112.781L43.4298 100.391L27.3541 101.851Z" fill="#2F2E41"/>
<path d="M31.8682 64.644L37.185 64.8972L39.7275 69.2895C40.8549 69.6278 41.892 70.2149 42.7622 71.0076C43.6324 71.8002 44.3134 72.7782 44.7551 73.8693L46.4106 77.9596L44.5273 101.609C44.5273 101.609 44.1497 103.039 44.8449 102.83C45.54 102.621 45.2567 104.414 45.2567 104.414L47.8186 114.268L24.5259 112.242L25.8193 101.802C25.8193 101.802 24.0211 101.86 25.2855 100.596C26.5498 99.3315 27.1647 99.7342 25.9501 98.2394C24.7355 96.7447 24.5549 95.6609 24.5549 95.6609L24.013 88.2552L23.1197 77.8329C22.9779 76.1791 23.2494 74.516 23.9099 72.9932C24.5703 71.4704 25.5988 70.1356 26.903 69.1089L31.8682 64.644Z" fill="black"/>
<path d="M34.6259 63.4248C38.3498 63.4248 41.3686 60.406 41.3686 56.6821C41.3686 52.9583 38.3498 49.9395 34.6259 49.9395C30.902 49.9395 27.8832 52.9583 27.8832 56.6821C27.8832 60.406 30.902 63.4248 34.6259 63.4248Z" fill="#FFB6B6"/>
<path d="M32.0206 62.8721C33.9555 62.8086 34.1312 62.2975 36.0661 62.234C36.6822 62.2138 37.4092 62.1294 37.7071 61.5897C37.7938 61.3875 37.8324 61.168 37.8199 60.9483C37.8073 60.7287 37.744 60.515 37.6349 60.324C37.4141 59.9447 37.2151 59.5533 37.0388 59.1514C36.9326 58.8363 36.9048 58.5 36.9577 58.1717C37.0106 57.8434 37.1426 57.5329 37.3424 57.2671C37.5422 57.0012 37.8037 56.788 38.1044 56.6459C38.405 56.5038 38.7358 56.437 39.068 56.4514C39.6568 56.4768 40.2098 56.7537 40.797 56.8043C41.6023 56.8737 43.383 54.2149 43.0122 53.4967C42.6513 52.7975 41.925 52.2701 41.8109 51.4916C41.7362 50.9825 41.9464 50.4766 41.9751 49.9628C42.0177 49.201 40.0866 50.9187 40.4402 50.2426C41.3078 48.5841 33.1326 46.5281 31.7867 48.6055C31.2837 49.3819 30.3872 49.3289 29.5882 49.7952C29.0645 50.1008 27.7421 51.1551 27.4415 51.8123C27.1653 52.4828 27.0348 53.2044 27.0586 53.9292C27.0465 57.3001 27.5601 60.4009 30.2791 62.3934" fill="#2F2E41"/>
<path d="M51.1618 114.21C50.7641 113.858 50.5197 113.364 50.4804 112.834C50.4411 112.304 50.6101 111.78 50.9514 111.373C51.022 111.292 51.0994 111.216 51.1825 111.147L48.7499 104.461L51.7082 102.033L54.0504 111.552C54.3094 111.919 54.4396 112.362 54.4207 112.81C54.4019 113.259 54.235 113.689 53.9461 114.033C53.7799 114.227 53.577 114.387 53.3491 114.502C53.1213 114.618 52.8728 114.688 52.618 114.707C52.3631 114.727 52.1069 114.696 51.864 114.617C51.621 114.538 51.396 114.411 51.2019 114.245C51.1884 114.234 51.175 114.222 51.1618 114.21Z" fill="#FFB6B6"/>
<path d="M37.295 70.9514C37.295 70.9514 39.6217 67.1047 44.2117 71.6836C48.8017 76.2626 53.2448 98.0739 53.0853 98.8744C52.9258 99.6749 51.7604 99.2848 53.1892 100.536C54.618 101.788 55.5089 100.794 54.618 101.788C53.7271 102.783 51.8084 103.778 53.4394 104.031C55.0705 104.285 48.9025 106.512 48.9025 106.512C48.9025 106.512 47.9702 106.229 47.8105 104.029C47.7209 102.793 48.3148 102.13 47.3548 101.868C46.3948 101.606 47.4386 99.4434 47.3195 99.0862C47.2004 98.729 40.3486 83.0312 40.3486 83.0312L37.295 70.9514Z" fill="black"/>
<path d="M1.45313e-06 173.037C-0.000127132 173.08 0.00827923 173.123 0.024734 173.163C0.0411887 173.203 0.0653654 173.239 0.0958794 173.27C0.126393 173.3 0.162642 173.324 0.202534 173.341C0.242427 173.357 0.285179 173.366 0.328331 173.366H197.672C197.759 173.366 197.842 173.331 197.904 173.269C197.965 173.208 198 173.124 198 173.037C198 172.95 197.965 172.867 197.904 172.805C197.842 172.744 197.759 172.709 197.672 172.709H0.328331C0.28518 172.709 0.242426 172.717 0.202534 172.734C0.162642 172.75 0.126397 172.774 0.0958836 172.805C0.0653699 172.835 0.0411892 172.872 0.024734 172.911C0.00827871 172.951 -0.000125667 172.994 1.45313e-06 173.037Z" fill="#1F1F1F"/>
<defs>
<filter id="filter0_b_258_1492" x="78.9215" y="23.5746" width="39.5326" height="10.7978" filterUnits="userSpaceOnUse" color-interpolation-filters="sRGB">
<feFlood flood-opacity="0" result="BackgroundImageFix"/>
<feGaussianBlur in="BackgroundImageFix" stdDeviation="0.21781"/>
<feComposite in2="SourceAlpha" operator="in" result="effect1_backgroundBlur_258_1492"/>
<feBlend mode="normal" in="SourceGraphic" in2="effect1_backgroundBlur_258_1492" result="shape"/>
</filter>
<linearGradient id="paint0_linear_258_1492" x1="95.0306" y1="28.9735" x2="97.7416" y2="28.9735" gradientUnits="userSpaceOnUse">
<stop stop-color="#FFC700" stop-opacity="0.55"/>
<stop offset="0.8" stop-color="#FFD700"/>
<stop offset="1" stop-color="#FFD700"/>
</linearGradient>
<linearGradient id="paint1_linear_258_1492" x1="96.3854" y1="24.0103" x2="96.3854" y2="33.9368" gradientUnits="userSpaceOnUse">
<stop stop-color="white"/>
<stop offset="0.5625" stop-color="white"/>
<stop offset="1" stop-color="white" stop-opacity="0"/>
</linearGradient>
<linearGradient id="paint2_linear_258_1492" x1="97.9709" y1="26.3255" x2="99.9472" y2="26.3255" gradientUnits="userSpaceOnUse">
<stop stop-color="#FFD700" stop-opacity="0.46"/>
<stop offset="1" stop-color="#FFD700"/>
</linearGradient>
<clipPath id="clip0_258_1492">
<rect width="38.6613" height="9.92656" fill="white" transform="translate(79.3571 24.0103)"/>
</clipPath>
</defs>
</svg>
