<svg width="359" height="383" viewBox="0 0 359 383" fill="none" xmlns="http://www.w3.org/2000/svg">
<g opacity="0.5">
<path d="M287.752 74.754L128.357 137.925L177.165 152.707C130.572 206.101 83.9669 259.477 37.3531 312.838L64.7669 211.817L106.772 216.466L128.201 191.557L43.1494 183.322L-14.0674 369.036L12.5986 391.258C104.319 285.775 196.036 180.273 287.752 74.754Z" fill="url(#paint0_linear_258_1430)" fill-opacity="0.1"/>
<path d="M287.752 74.754L128.357 137.925L177.165 152.707C130.572 206.101 83.9669 259.477 37.3531 312.838L64.7669 211.817L106.772 216.466L128.201 191.557L43.1494 183.322L-14.0674 369.036L12.5986 391.258C104.319 285.775 196.036 180.273 287.752 74.754Z" fill="url(#paint1_linear_258_1430)" fill-opacity="0.1"/>
<path d="M186.69 207.185L167.401 229.608L210.188 230.556L235.848 200.728L259.5 250.743C273.344 195.904 287.196 141.057 301.056 86.1993L195.864 208.478L186.69 207.185Z" fill="url(#paint2_linear_258_1430)" fill-opacity="0.1"/>
</g>
<defs>
<linearGradient id="paint0_linear_258_1430" x1="63.9278" y1="159.169" x2="150.868" y2="233.96" gradientUnits="userSpaceOnUse">
<stop stop-opacity="0.55"/>
<stop offset="0.8"/>
<stop offset="1"/>
</linearGradient>
<linearGradient id="paint1_linear_258_1430" x1="244.304" y1="37.377" x2="-29.552" y2="355.715" gradientUnits="userSpaceOnUse">
<stop stop-color="white"/>
<stop offset="0.5625" stop-color="white"/>
<stop offset="1" stop-color="white" stop-opacity="0"/>
</linearGradient>
<linearGradient id="paint2_linear_258_1430" x1="231.273" y1="155.361" x2="294.651" y2="209.883" gradientUnits="userSpaceOnUse">
<stop stop-opacity="0.46"/>
<stop offset="1"/>
</linearGradient>
</defs>
</svg>
