<svg width="419" height="319" viewBox="0 0 419 319" fill="none" xmlns="http://www.w3.org/2000/svg">
<path d="M387.658 289.357C373.931 299.811 357.207 310.4 340.765 315.393C336.025 316.876 331.134 317.822 326.183 318.214C321.554 318.586 316.896 318.225 312.38 317.143C300.514 314.192 289.507 309.023 278.857 302.984C275.377 301.007 271.938 298.941 268.519 296.829C262.937 293.38 257.411 289.81 251.87 286.325C251.041 285.797 250.216 285.279 249.386 284.766H249.381C248.044 283.926 246.703 283.099 245.359 282.282C245.122 282.136 244.886 281.996 244.645 281.85C242.105 280.311 239.523 278.808 236.896 277.34C236.574 277.164 236.252 276.982 235.931 276.807C230.849 273.988 225.626 271.432 220.283 269.148C216.773 267.67 213.218 266.338 209.628 265.201H209.623C208.25 264.769 206.872 264.362 205.49 263.989C201.343 262.852 197.118 262.025 192.849 261.516C186.965 260.803 181.015 260.851 175.144 261.656C174.747 261.712 174.355 261.767 173.957 261.832C158.068 264.377 143.567 272.955 127.607 274.976C127.089 275.042 126.576 275.102 126.058 275.147C125.837 275.167 125.616 275.192 125.395 275.207C120.757 275.604 116.089 275.49 111.476 274.866C98.5889 273.166 86.0384 267.891 74.7399 261.244C48.3264 245.702 26.906 221.812 13.8829 194.147C11.6465 189.406 9.66095 184.55 7.93445 179.6C3.10728 165.874 0.448942 151.48 0.0551458 136.936C-1.16672 86.472 27.5094 35.8425 72.5324 13.0193C117.56 -9.80399 176.793 -2.25658 213.107 32.8054C235.136 54.0749 247.883 82.8969 264.461 108.647C281.039 134.391 304.602 158.984 334.992 162.736C350.474 164.646 366.675 160.95 381.514 165.757C389.73 168.422 396.739 173.521 402.386 180.018C406.182 184.426 409.359 189.332 411.829 194.6C413.639 198.408 415.108 202.369 416.219 206.436C416.425 207.185 416.616 207.934 416.802 208.684C424.194 238.873 412.382 270.521 387.658 289.357Z" fill="#CDDDFE"/>
<path d="M140.388 234.705H93.1228C86.0414 234.705 80.3008 240.446 80.3008 247.527V247.527C80.3008 254.609 86.0414 260.349 93.1228 260.349H140.388C147.47 260.349 153.211 254.609 153.211 247.527C153.211 240.446 147.47 234.705 140.388 234.705Z" fill="#3F3D56"/>
<path d="M126.059 253.812V275.147C121.203 275.617 116.31 275.523 111.477 274.866V253.812H126.059Z" fill="#3F3D56"/>
<path d="M175.144 261.656C174.747 261.712 174.354 261.767 173.957 261.832C158.068 264.377 143.566 272.955 127.607 274.976C127.089 275.041 126.576 275.102 126.058 275.147C125.837 275.167 125.615 275.192 125.394 275.207C121.497 271.391 117.6 267.328 113.94 263.119C111.954 260.842 110.033 258.519 108.228 256.165C103.541 250.091 99.569 243.846 96.9443 237.712C97.2108 234.77 95.3805 227.967 94.5056 222.758L94.5006 222.753C94.1285 220.565 93.9273 218.665 94.1134 217.443C95.1794 210.393 100.937 211.203 102.707 204.294C104.303 202.969 106.003 201.773 107.79 200.719C108.087 200.543 108.389 200.367 108.7 200.191L127.908 186.916L135.25 194.117L146.422 205.078L158.53 216.95L148.253 227.333C148.253 227.333 156.841 237.234 166.882 250.433C169.577 253.978 172.378 257.764 175.144 261.656Z" fill="#2F2E41"/>
<path d="M340.764 253.812V315.394C336.024 316.876 331.132 317.822 326.182 318.214V253.812H340.764Z" fill="#3F3D56"/>
<path d="M359.621 248.784H312.355C305.274 248.784 299.533 254.525 299.533 261.606V261.606C299.533 268.688 305.274 274.428 312.355 274.428H359.621C366.702 274.428 372.443 268.688 372.443 261.606C372.443 254.525 366.702 248.784 359.621 248.784Z" fill="#3F3D56"/>
<path d="M244.644 281.849C242.104 280.311 239.522 278.807 236.895 277.339C236.573 277.163 236.251 276.982 235.93 276.806L237.659 276.067L242.326 274.061L242.371 274.041L242.421 274.211L244.644 281.849Z" fill="#FFB6B6"/>
<path d="M251.871 286.325C251.041 285.797 250.217 285.279 249.387 284.766H249.382C248.045 283.926 246.704 283.098 245.36 282.282C245.123 282.136 244.887 281.995 244.646 281.85C242.106 280.311 239.523 278.808 236.897 277.339C236.575 277.163 236.253 276.982 235.932 276.806C230.85 273.988 225.627 271.432 220.284 269.148C216.774 267.67 213.219 266.337 209.629 265.201H209.624L206.803 260.48L194.107 239.215L191.316 234.544C191.316 234.544 181.797 237.36 168.327 240.06C163.424 241.045 158.004 242.011 152.317 242.825C146.238 243.69 139.862 244.379 133.526 244.711C130.504 244.872 127.492 244.952 124.526 244.927C116.857 244.877 109.491 244.158 103.04 242.448C100.888 240.427 94.4012 237.676 89.7551 235.157H89.7501C87.7991 234.101 86.18 233.091 85.3303 232.191C80.4327 227.012 84.6162 222.974 80.2618 217.322C80.2031 215.249 80.3091 213.174 80.5785 211.117C80.6238 210.775 80.6691 210.428 80.7244 210.076L82.0971 186.765L92.2944 185.418L107.812 183.366L124.621 181.144L126.471 195.635C126.471 195.635 139.56 194.971 156.143 195.193C182.778 195.555 218.418 198.21 223.245 209.604C223.698 210.675 224.15 211.756 224.603 212.837C225.679 215.421 226.745 218.019 227.801 220.631C231.627 230.084 235.278 239.627 238.612 248.648C240.683 254.26 242.634 259.67 244.429 264.733C245.872 268.806 247.21 272.658 248.432 276.203C249.548 279.441 250.559 282.423 251.459 285.098C251.6 285.515 251.735 285.928 251.871 286.325Z" fill="#2F2E41"/>
<path d="M158.064 145.088L125.855 117.733L146.811 96.5259L161.43 120.472L215.622 131.216C217.251 129.989 219.203 129.264 221.237 129.127C223.272 128.991 225.303 129.449 227.081 130.446C228.86 131.444 230.31 132.937 231.255 134.745C232.2 136.552 232.598 138.595 232.402 140.625C232.205 142.655 231.422 144.584 230.148 146.177C228.875 147.769 227.165 148.957 225.228 149.595C223.291 150.232 221.21 150.293 219.239 149.768C217.268 149.244 215.493 148.158 214.129 146.642L158.064 145.088Z" fill="#A0616A"/>
<path d="M97.3911 81.7831C93.6688 93.8925 129.119 122.773 129.119 122.773C129.513 119.866 149.612 144.935 150.98 142.664C154.866 136.212 159.142 120.263 163.629 118.224C166.195 117.058 151.475 100.855 151.475 100.855C151.475 100.855 143.967 90.9209 134.053 78.331C131.317 74.7197 127.711 71.8595 123.571 70.0166C119.432 68.1738 114.893 67.4082 110.378 67.7912C110.378 67.7912 101.113 69.6738 97.3911 81.7831Z" fill="#3F3D56"/>
<path d="M113.066 54.9753C125.097 54.9753 134.85 45.2221 134.85 33.1909C134.85 21.1597 125.097 11.4065 113.066 11.4065C101.034 11.4065 91.2812 21.1597 91.2812 33.1909C91.2812 45.2221 101.034 54.9753 113.066 54.9753Z" fill="#A0616A"/>
<path d="M123.959 69.3735C128.652 72.1636 131.459 77.2901 133.071 82.5066C136.054 92.1645 137.85 102.15 138.419 112.242L140.121 142.457L161.203 206.792C142.932 222.252 74.2547 210.305 74.2547 210.305C74.2547 210.305 72.1466 209.603 74.2547 207.495C76.3629 205.386 78.4152 207.254 76.3071 205.146C74.1989 203.038 75.6522 205.386 76.3549 203.278C77.0577 201.17 76.3549 202.576 75.6522 201.873C74.9495 201.17 81.0924 194.845 81.0924 194.845L75.4706 157.917L68.4434 83.4279C76.8761 72.8871 93.8353 66.6733 93.8353 66.6733L98.2174 58.7856L120.128 60.5385L123.959 69.3735Z" fill="#3F3D56"/>
<path d="M131.022 21.6176C132.716 22.8804 133.97 24.6425 134.609 26.6556C134.855 23.3657 134.87 20.0625 134.656 16.7704C134.399 14.457 132.77 13.9366 130.884 13.3336C129.181 12.7889 127.255 12.1735 126.737 9.92772C119.889 3.26607 107.968 3.60199 99.8102 5.92567C95.3212 7.20436 92.7382 8.84721 92.5071 9.8096L92.4592 10.0077L92.2769 10.0989C88.8166 11.829 88.143 17.2924 88.1876 21.5709C88.2719 29.6319 91.0551 38.7872 92.6231 39.5309C92.7061 39.5703 92.7271 39.5548 92.763 39.5249C95.1239 37.6381 98.0044 39.6683 99.2702 40.7719C100.017 35.7619 102.421 31.1465 106.098 27.663C109.775 24.1795 114.514 22.0287 119.557 21.5543C121.204 21.3951 122.838 21.1211 124.447 20.7344C125.263 20.5233 126.102 20.4132 126.945 20.4066C128.396 20.3846 129.819 20.8071 131.022 21.6176Z" fill="#2F2E41"/>
<path d="M103.575 177.908L96.911 174.495C96.554 174.241 96.3004 173.867 96.1965 173.441C96.0927 173.015 96.1455 172.566 96.3453 172.175C96.5452 171.785 96.8787 171.48 97.285 171.315C97.6914 171.151 98.1434 171.138 98.5585 171.279L105.222 174.692C105.579 174.946 105.833 175.32 105.937 175.746C106.041 176.172 105.988 176.621 105.788 177.012C105.588 177.402 105.255 177.707 104.848 177.872C104.442 178.036 103.99 178.049 103.575 177.908L103.575 177.908Z" fill="#FFD700"/>
<path d="M81.1458 168.765L70.1836 127.955L99.4776 122.409L97.9023 150.421L136.392 190.053C138.43 189.97 140.448 190.481 142.2 191.525C143.952 192.569 145.362 194.099 146.259 195.931C147.156 197.762 147.501 199.815 147.251 201.839C147.002 203.863 146.169 205.771 144.854 207.33C143.539 208.889 141.799 210.031 139.845 210.618C137.892 211.205 135.811 211.211 133.854 210.635C131.898 210.059 130.151 208.927 128.827 207.375C127.504 205.824 126.66 203.921 126.399 201.898L81.1458 168.765Z" fill="#A0616A"/>
<path d="M67.1871 82.1976C57.2437 90.0475 70.0061 133.956 70.0061 133.956C71.9821 131.787 74.2782 163.836 76.6935 162.745C83.5577 159.644 96.139 148.949 100.989 149.82C103.763 150.319 100.857 128.622 100.857 128.622C100.857 128.622 100.323 116.181 99.318 100.188C99.1178 95.661 97.7756 91.2585 95.4163 87.39C93.057 83.5215 89.7572 80.3129 85.8243 78.0627C85.8243 78.0627 77.1306 74.3478 67.1871 82.1976Z" fill="#3F3D56"/>
<path d="M411.828 194.599L13.882 194.147C11.6456 189.406 9.6601 184.55 7.93359 179.6L402.385 180.017C406.182 184.426 409.359 189.332 411.828 194.599Z" fill="#3F3D56"/>
<path d="M285.081 300.102C283.024 301.098 280.949 302.058 278.856 302.984C275.376 301.008 271.937 298.941 268.518 296.829L281.199 291.258L285.081 300.102Z" fill="#FFB6B6"/>
<path d="M377.544 230.813C375.482 233.579 373.356 236.289 371.163 238.944C369.142 241.393 367.067 243.794 364.938 246.149C364.058 247.125 363.168 248.095 362.258 249.056C360.584 250.851 358.872 252.616 357.124 254.35C353.977 255.341 347.601 257.086 340.767 258.715C335.794 259.897 330.58 261.018 326.185 261.732C323.725 262.173 321.237 262.439 318.739 262.526C315.772 262.551 312.76 262.471 309.738 262.31C306.329 262.129 302.915 261.847 299.541 261.485C290.766 260.565 282.269 259.132 274.937 257.659C272.252 257.126 269.728 256.583 267.405 256.055C263.005 255.064 259.325 254.139 256.66 253.435C253.658 252.651 251.948 252.143 251.948 252.143L244.431 264.734L240.529 271.265L237.663 276.067L236.899 277.34C236.577 277.164 236.255 276.983 235.933 276.807C230.852 273.988 225.629 271.432 220.285 269.149C216.776 267.67 213.221 266.338 209.63 265.201H209.625C208.253 264.769 206.875 264.362 205.492 263.99C205.925 262.828 206.362 261.658 206.805 260.48C207.629 258.282 208.471 256.065 209.329 253.827C211.184 248.98 213.105 244.063 215.081 239.17C216.7 235.152 218.349 231.15 220.019 227.203C220.788 225.383 222.352 223.784 224.539 222.381C225.585 221.722 226.675 221.137 227.803 220.631C234.063 217.78 243.285 215.924 253.447 214.733C254.286 214.637 255.131 214.542 255.981 214.451C264.393 213.566 273.318 213.109 281.665 212.897C285.844 212.792 289.876 212.752 293.628 212.747C294.839 212.747 296.018 212.75 297.162 212.757H297.167C300.26 212.772 303.106 212.817 305.61 212.867C306.098 212.877 306.57 212.892 307.033 212.902H307.038C307.35 212.908 307.656 212.918 307.958 212.923C313.434 213.063 316.793 213.234 316.793 213.234L318.095 203.017L318.362 200.955L318.613 198.994V198.989L318.643 198.743L318.849 198.738L322.47 198.667L352.901 198.074L369.524 197.747L366.889 209.041L362.54 227.675C362.982 230.622 377.695 228.314 377.544 230.813Z" fill="#2F2E41"/>
<path d="M288.834 298.242C287.592 298.875 286.34 299.499 285.083 300.102C283.027 301.098 280.952 302.058 278.858 302.983C275.379 301.007 271.94 298.941 268.52 296.829C262.939 293.379 257.413 289.809 251.872 286.325C251.042 285.797 250.217 285.279 249.388 284.766H249.383C247.1 281.377 244.772 277.847 242.424 274.212C242.388 274.161 242.358 274.111 242.328 274.061C241.725 273.136 241.125 272.204 240.528 271.265C236.772 265.382 232.996 259.248 229.33 252.982L238.612 248.648L255.869 240.593L258.846 239.205L267.404 256.055L275.037 271.084L276.736 274.428L288.834 298.242Z" fill="#2F2E41"/>
<path d="M291.436 217.346L335.433 174.916L347.628 140.387L329.641 132.565C320.401 141.416 310.414 168.982 310.414 168.982L280.138 207.501C279.902 207.582 279.666 207.667 279.434 207.77C278.07 208.371 276.885 209.314 275.992 210.508C275.099 211.701 274.53 213.105 274.338 214.583C274.146 216.061 274.339 217.563 274.897 218.945C275.456 220.327 276.361 221.541 277.526 222.47C278.691 223.4 280.076 224.013 281.547 224.251C283.019 224.489 284.526 224.343 285.925 223.828C287.323 223.313 288.565 222.445 289.531 221.31C290.496 220.175 291.152 218.809 291.436 217.346Z" fill="#FFB8B8"/>
<path d="M324.578 136.421L347.394 143.664L347.48 143.649C355.972 142.227 363.019 128.357 367.434 116.973C368.887 113.217 368.86 109.051 367.359 105.315C365.857 101.579 362.993 98.5524 359.345 96.8473C356.646 95.6076 353.654 95.1477 350.707 95.5195C347.76 95.8913 344.976 97.0801 342.669 98.9513L330.953 108.525L324.578 136.421Z" fill="#FFD700"/>
<path d="M377.451 231.323L377.584 231.145C384.703 221.704 374.966 198.324 373.494 194.934L380.113 192.973L378.96 180.37L378.404 174.751L383.55 169.863L383.568 169.739L387.107 144.551L391.738 127.88C393.484 121.578 393.52 114.925 391.845 108.604C390.169 102.282 386.842 96.521 382.204 91.9107L372.737 82.5115L361.395 64.7585L342.379 64.2676L335.54 76.4153C329.181 77.7131 323.479 81.2008 319.426 86.2707C315.374 91.3406 313.229 97.6715 313.364 104.16L314.008 136.5L307.185 176.569L306.993 183.847L300.296 190.914L301.534 198.059L296.525 200.055L294.073 210.208C293.137 211.379 286.955 219.193 286.899 221.371C286.89 221.699 287.123 222.021 287.632 222.385C291.634 225.248 313.999 231.451 324.065 227.722C334.787 223.753 376.809 231.207 377.232 231.283L377.451 231.323Z" fill="#FFD700"/>
<path d="M350.225 58.825C364.139 58.825 375.418 47.5455 375.418 33.6316C375.418 19.7177 364.139 8.43823 350.225 8.43823C336.311 8.43823 325.031 19.7177 325.031 33.6316C325.031 47.5455 336.311 58.825 350.225 58.825Z" fill="#FFB8B8"/>
<path d="M347.151 59.1619C351.053 59.2228 354.952 58.9503 358.807 58.3474C362.628 57.5703 371.177 51.3062 373.559 47.5367C375.33 44.736 376.462 40.3626 377.1 37.1871C377.96 32.9849 377.927 28.649 377.004 24.4603C376.081 20.2716 374.289 16.3234 371.743 12.8714C370.765 11.4275 369.414 10.2749 367.835 9.53547C367.695 9.48072 367.551 9.4322 367.405 9.39073C365.103 8.78508 363.035 7.50528 361.466 5.71563C361.161 5.35366 360.831 5.01406 360.478 4.69949C358.705 3.20278 356.602 2.14703 354.342 1.61854C350.695 0.642349 345.416 1.61135 338.653 4.50141C335.256 5.95343 331.54 5.42794 328.681 4.80785C328.521 4.77688 328.355 4.78844 328.201 4.84137C328.046 4.8943 327.908 4.98676 327.801 5.10955C326.584 6.25132 324.981 6.89044 323.313 6.89844C322.291 6.9433 321.219 8.35802 319.923 10.2029C319.629 10.6216 319.286 11.1104 319.039 11.4077L319.006 10.8365L318.428 11.4737C317.519 12.4751 316.879 13.6901 316.567 15.0055C316.254 16.321 316.28 17.6941 316.641 18.9971C317.002 20.3001 317.687 21.4905 318.632 22.4575C319.577 23.4245 320.751 24.1366 322.045 24.5276C323.073 24.801 324.126 24.9688 325.188 25.0284C325.831 25.0863 326.496 25.1461 327.134 25.2567C329.18 25.6758 331.083 26.6183 332.657 27.9922C334.23 29.3662 335.42 31.1246 336.111 33.0959C336.274 33.5515 336.54 33.9635 336.888 34.3001C337.236 34.6367 337.657 34.8888 338.117 35.037C338.578 35.1853 339.067 35.2256 339.546 35.155C340.025 35.0843 340.481 34.9046 340.879 34.6296C341.543 34.1124 342.323 33.7636 343.151 33.6128C343.979 33.462 344.832 33.5137 345.635 33.7636C346.33 34.1498 346.871 34.7632 347.167 35.5008C347.527 36.3226 348.123 37.0185 348.881 37.4999C351.47 38.8349 351.648 44.7492 350.718 49.6794C349.822 54.4317 348.05 57.8696 346.409 58.0396C345.146 58.1702 345.002 58.2599 344.91 58.4833L344.828 58.6833L344.97 58.8704C345.668 59.1233 346.412 59.2227 347.151 59.1619Z" fill="#2F2E41"/>
<path d="M330.834 128.804L321.12 109.438C307.02 110.401 279.036 126.703 279.036 126.703L226.089 137.929C224.521 137.326 222.821 137.147 221.162 137.41C219.502 137.673 217.941 138.368 216.635 139.426C215.33 140.484 214.326 141.867 213.725 143.436C213.124 145.005 212.947 146.705 213.211 148.365C213.476 150.024 214.173 151.584 215.233 152.889C216.292 154.193 217.677 155.195 219.247 155.794C220.816 156.394 222.517 156.569 224.176 156.302C225.835 156.035 227.394 155.336 228.697 154.275L296.049 149.447L330.834 128.804Z" fill="#FFB8B8"/>
<path d="M326.916 131.984L352.286 113.13L356.754 97.0264C357.62 93.8617 357.584 90.518 356.649 87.373C355.714 84.228 353.918 81.4072 351.464 79.2293C348.118 76.2994 343.784 74.7495 339.338 74.8929C334.893 75.0363 330.668 76.8624 327.517 80.0019C317.971 89.5311 307.082 102.825 309.421 112.044L309.444 112.137L326.916 131.984Z" fill="#FFD700"/>
<path d="M295.51 182.411H227.629V191.462H295.51V182.411Z" fill="#9B9DA0"/>
<path d="M122.036 182.411H54.1543V191.462H122.036V182.411Z" fill="#9B9DA0"/>
<path d="M129.963 138.886V181.98C129.963 182.529 130.182 183.055 130.57 183.444C130.958 183.832 131.485 184.05 132.034 184.051H195.895C196.444 184.05 196.971 183.832 197.359 183.444C197.748 183.055 197.966 182.529 197.966 181.98V138.886C197.965 138.337 197.746 137.811 197.358 137.423C196.97 137.035 196.444 136.817 195.895 136.817H132.034C131.485 136.817 130.959 137.035 130.571 137.423C130.183 137.811 129.964 138.337 129.963 138.886Z" fill="#3F3D56"/>
<path d="M131.461 139.422V181.448C131.461 181.741 131.578 182.023 131.786 182.23C131.993 182.438 132.274 182.554 132.568 182.555H195.363C195.657 182.554 195.938 182.438 196.146 182.23C196.353 182.023 196.47 181.741 196.47 181.448V139.422C196.47 139.128 196.354 138.846 196.146 138.638C195.939 138.43 195.657 138.313 195.363 138.312H132.568C132.274 138.313 131.993 138.43 131.785 138.638C131.578 138.846 131.461 139.128 131.461 139.422Z" fill="#FFD700"/>
<path d="M128.625 190.384C128.742 190.531 128.89 190.649 129.06 190.73C129.229 190.811 129.414 190.852 129.602 190.852H197.982C198.169 190.851 198.354 190.809 198.523 190.729C198.691 190.648 198.84 190.531 198.958 190.386C199.076 190.241 199.16 190.071 199.204 189.889C199.248 189.707 199.251 189.518 199.212 189.335L198.151 184.293C198.107 184.088 198.012 183.896 197.875 183.737C197.738 183.577 197.564 183.454 197.367 183.379C197.225 183.323 197.074 183.295 196.921 183.295H130.659C130.506 183.295 130.355 183.323 130.213 183.379C130.016 183.454 129.842 183.577 129.705 183.737C129.568 183.896 129.473 184.088 129.429 184.293L128.368 189.335C128.33 189.518 128.333 189.707 128.378 189.889C128.422 190.07 128.507 190.239 128.625 190.384Z" fill="#2F2E41"/>
<path d="M194.575 185.467H196.19C196.326 185.467 196.436 185.357 196.436 185.221V184.449C196.436 184.313 196.326 184.203 196.19 184.203H194.575C194.439 184.203 194.329 184.313 194.329 184.449V185.221C194.329 185.357 194.439 185.467 194.575 185.467Z" fill="#3F3D56"/>
<path d="M190.364 185.467H191.979C192.115 185.467 192.225 185.357 192.225 185.221V184.449C192.225 184.313 192.115 184.203 191.979 184.203H190.364C190.228 184.203 190.119 184.313 190.119 184.449V185.221C190.119 185.357 190.228 185.467 190.364 185.467Z" fill="#3F3D56"/>
<path d="M186.153 185.467H187.768C187.904 185.467 188.014 185.357 188.014 185.221V184.449C188.014 184.313 187.904 184.203 187.768 184.203H186.153C186.018 184.203 185.908 184.313 185.908 184.449V185.221C185.908 185.357 186.018 185.467 186.153 185.467Z" fill="#3F3D56"/>
<path d="M181.94 185.467H183.555C183.691 185.467 183.801 185.357 183.801 185.221V184.449C183.801 184.313 183.691 184.203 183.555 184.203H181.94C181.805 184.203 181.695 184.313 181.695 184.449V185.221C181.695 185.357 181.805 185.467 181.94 185.467Z" fill="#3F3D56"/>
<path d="M177.727 185.467H179.342C179.478 185.467 179.588 185.357 179.588 185.221V184.449C179.588 184.313 179.478 184.203 179.342 184.203H177.727C177.592 184.203 177.482 184.313 177.482 184.449V185.221C177.482 185.357 177.592 185.467 177.727 185.467Z" fill="#3F3D56"/>
<path d="M173.514 185.467H175.13C175.265 185.467 175.375 185.357 175.375 185.221V184.449C175.375 184.313 175.265 184.203 175.13 184.203H173.514C173.379 184.203 173.269 184.313 173.269 184.449V185.221C173.269 185.357 173.379 185.467 173.514 185.467Z" fill="#3F3D56"/>
<path d="M169.303 185.467H170.919C171.054 185.467 171.164 185.357 171.164 185.221V184.449C171.164 184.313 171.054 184.203 170.919 184.203H169.303C169.168 184.203 169.058 184.313 169.058 184.449V185.221C169.058 185.357 169.168 185.467 169.303 185.467Z" fill="#3F3D56"/>
<path d="M165.091 185.467H166.706C166.841 185.467 166.951 185.357 166.951 185.221V184.449C166.951 184.313 166.841 184.203 166.706 184.203H165.091C164.955 184.203 164.845 184.313 164.845 184.449V185.221C164.845 185.357 164.955 185.467 165.091 185.467Z" fill="#3F3D56"/>
<path d="M160.88 185.467H162.495C162.63 185.467 162.74 185.357 162.74 185.221V184.449C162.74 184.313 162.63 184.203 162.495 184.203H160.88C160.744 184.203 160.634 184.313 160.634 184.449V185.221C160.634 185.357 160.744 185.467 160.88 185.467Z" fill="#3F3D56"/>
<path d="M156.667 185.467H158.282C158.417 185.467 158.527 185.357 158.527 185.221V184.449C158.527 184.313 158.417 184.203 158.282 184.203H156.667C156.531 184.203 156.421 184.313 156.421 184.449V185.221C156.421 185.357 156.531 185.467 156.667 185.467Z" fill="#3F3D56"/>
<path d="M152.456 185.467H154.071C154.207 185.467 154.316 185.357 154.316 185.221V184.449C154.316 184.313 154.207 184.203 154.071 184.203H152.456C152.32 184.203 152.21 184.313 152.21 184.449V185.221C152.21 185.357 152.32 185.467 152.456 185.467Z" fill="#3F3D56"/>
<path d="M148.243 185.467H149.858C149.994 185.467 150.104 185.357 150.104 185.221V184.449C150.104 184.313 149.994 184.203 149.858 184.203H148.243C148.107 184.203 147.997 184.313 147.997 184.449V185.221C147.997 185.357 148.107 185.467 148.243 185.467Z" fill="#3F3D56"/>
<path d="M144.03 185.467H145.645C145.781 185.467 145.891 185.357 145.891 185.221V184.449C145.891 184.313 145.781 184.203 145.645 184.203H144.03C143.894 184.203 143.785 184.313 143.785 184.449V185.221C143.785 185.357 143.894 185.467 144.03 185.467Z" fill="#3F3D56"/>
<path d="M139.819 185.467H141.434C141.57 185.467 141.68 185.357 141.68 185.221V184.449C141.68 184.313 141.57 184.203 141.434 184.203H139.819C139.684 184.203 139.574 184.313 139.574 184.449V185.221C139.574 185.357 139.684 185.467 139.819 185.467Z" fill="#3F3D56"/>
<path d="M135.606 185.467H137.221C137.357 185.467 137.467 185.357 137.467 185.221V184.449C137.467 184.313 137.357 184.203 137.221 184.203H135.606C135.471 184.203 135.361 184.313 135.361 184.449V185.221C135.361 185.357 135.471 185.467 135.606 185.467Z" fill="#3F3D56"/>
<path d="M131.393 185.467H133.008C133.144 185.467 133.254 185.357 133.254 185.221V184.449C133.254 184.313 133.144 184.203 133.008 184.203H131.393C131.258 184.203 131.148 184.313 131.148 184.449V185.221C131.148 185.357 131.258 185.467 131.393 185.467Z" fill="#3F3D56"/>
<path d="M194.628 187.573H196.243C196.378 187.573 196.488 187.463 196.488 187.328V186.555C196.488 186.419 196.378 186.309 196.243 186.309H194.628C194.492 186.309 194.382 186.419 194.382 186.555V187.328C194.382 187.463 194.492 187.573 194.628 187.573Z" fill="#3F3D56"/>
<path d="M190.415 187.573H192.03C192.166 187.573 192.275 187.463 192.275 187.328V186.555C192.275 186.419 192.166 186.31 192.03 186.31H190.415C190.279 186.31 190.169 186.419 190.169 186.555V187.328C190.169 187.463 190.279 187.573 190.415 187.573Z" fill="#3F3D56"/>
<path d="M186.2 187.573H187.815C187.951 187.573 188.061 187.463 188.061 187.328V186.555C188.061 186.419 187.951 186.31 187.815 186.31H186.2C186.064 186.31 185.954 186.419 185.954 186.555V187.328C185.954 187.463 186.064 187.573 186.2 187.573Z" fill="#3F3D56"/>
<path d="M181.989 187.573H183.604C183.74 187.573 183.85 187.463 183.85 187.328V186.555C183.85 186.419 183.74 186.309 183.604 186.309H181.989C181.853 186.309 181.744 186.419 181.744 186.555V187.328C181.744 187.463 181.853 187.573 181.989 187.573Z" fill="#3F3D56"/>
<path d="M177.778 187.573H179.393C179.529 187.573 179.639 187.463 179.639 187.328V186.555C179.639 186.419 179.529 186.31 179.393 186.31H177.778C177.642 186.31 177.533 186.419 177.533 186.555V187.328C177.533 187.463 177.642 187.573 177.778 187.573Z" fill="#3F3D56"/>
<path d="M173.565 187.573H175.18C175.316 187.573 175.426 187.463 175.426 187.328V186.555C175.426 186.419 175.316 186.31 175.18 186.31H173.565C173.43 186.31 173.32 186.419 173.32 186.555V187.328C173.32 187.463 173.43 187.573 173.565 187.573Z" fill="#3F3D56"/>
<path d="M169.352 187.573H170.967C171.103 187.573 171.213 187.463 171.213 187.328V186.555C171.213 186.419 171.103 186.309 170.967 186.309H169.352C169.217 186.309 169.107 186.419 169.107 186.555V187.328C169.107 187.463 169.217 187.573 169.352 187.573Z" fill="#3F3D56"/>
<path d="M165.141 187.573H166.756C166.892 187.573 167.002 187.463 167.002 187.328V186.555C167.002 186.419 166.892 186.31 166.756 186.31H165.141C165.006 186.31 164.896 186.419 164.896 186.555V187.328C164.896 187.463 165.006 187.573 165.141 187.573Z" fill="#3F3D56"/>
<path d="M160.926 187.573H162.542C162.677 187.573 162.787 187.463 162.787 187.328V186.555C162.787 186.419 162.677 186.31 162.542 186.31H160.926C160.791 186.31 160.681 186.419 160.681 186.555V187.328C160.681 187.463 160.791 187.573 160.926 187.573Z" fill="#3F3D56"/>
<path d="M156.718 187.573H158.333C158.468 187.573 158.578 187.463 158.578 187.328V186.555C158.578 186.419 158.468 186.31 158.333 186.31H156.718C156.582 186.31 156.472 186.419 156.472 186.555V187.328C156.472 187.463 156.582 187.573 156.718 187.573Z" fill="#3F3D56"/>
<path d="M152.507 187.573H154.122C154.257 187.573 154.367 187.463 154.367 187.328V186.555C154.367 186.419 154.257 186.309 154.122 186.309H152.507C152.371 186.309 152.261 186.419 152.261 186.555V187.328C152.261 187.463 152.371 187.573 152.507 187.573Z" fill="#3F3D56"/>
<path d="M148.294 187.573H149.909C150.044 187.573 150.154 187.463 150.154 187.328V186.555C150.154 186.419 150.044 186.31 149.909 186.31H148.294C148.158 186.31 148.048 186.419 148.048 186.555V187.328C148.048 187.463 148.158 187.573 148.294 187.573Z" fill="#3F3D56"/>
<path d="M144.079 187.573H145.694C145.83 187.573 145.939 187.463 145.939 187.328V186.555C145.939 186.419 145.83 186.31 145.694 186.31H144.079C143.943 186.31 143.833 186.419 143.833 186.555V187.328C143.833 187.463 143.943 187.573 144.079 187.573Z" fill="#3F3D56"/>
<path d="M139.868 187.573H141.483C141.619 187.573 141.729 187.463 141.729 187.328V186.555C141.729 186.419 141.619 186.309 141.483 186.309H139.868C139.732 186.309 139.622 186.419 139.622 186.555V187.328C139.622 187.463 139.732 187.573 139.868 187.573Z" fill="#3F3D56"/>
<path d="M135.657 187.573H137.272C137.408 187.573 137.518 187.463 137.518 187.328V186.555C137.518 186.419 137.408 186.31 137.272 186.31H135.657C135.521 186.31 135.412 186.419 135.412 186.555V187.328C135.412 187.463 135.521 187.573 135.657 187.573Z" fill="#3F3D56"/>
<path d="M131.446 187.573H133.061C133.197 187.573 133.307 187.463 133.307 187.328V186.555C133.307 186.419 133.197 186.31 133.061 186.31H131.446C131.31 186.31 131.201 186.419 131.201 186.555V187.328C131.201 187.463 131.31 187.573 131.446 187.573Z" fill="#3F3D56"/>
<path d="M159.668 190.1H176.026C176.162 190.1 176.271 189.99 176.271 189.855V189.082C176.271 188.947 176.162 188.837 176.026 188.837H159.668C159.533 188.837 159.423 188.947 159.423 189.082V189.855C159.423 189.99 159.533 190.1 159.668 190.1Z" fill="#3F3D56"/>
<g clip-path="url(#clip0_508_11947)" filter="url(#filter0_b_508_11947)">
<path d="M145.397 162.576V163.737H140.666V156.923H145.311V158.084H141.99V159.725H144.86V160.8H141.99V162.576H145.397ZM147.382 163.737L145.53 158.708H146.864L148.131 162.566L149.407 158.708H150.626L148.783 163.737H147.382ZM153.277 163.833C152.874 163.833 152.509 163.766 152.183 163.631C151.856 163.491 151.578 163.302 151.348 163.065C151.117 162.822 150.938 162.547 150.81 162.24C150.689 161.926 150.628 161.597 150.628 161.251C150.628 160.771 150.733 160.333 150.945 159.937C151.162 159.54 151.469 159.223 151.866 158.986C152.269 158.743 152.742 158.622 153.286 158.622C153.837 158.622 154.307 158.743 154.697 158.986C155.087 159.223 155.385 159.54 155.59 159.937C155.801 160.327 155.906 160.749 155.906 161.203C155.906 161.28 155.903 161.36 155.897 161.443C155.89 161.52 155.884 161.584 155.877 161.635H151.991C152.016 161.891 152.09 162.115 152.211 162.307C152.339 162.499 152.499 162.646 152.691 162.748C152.89 162.844 153.101 162.892 153.325 162.892C153.581 162.892 153.821 162.832 154.044 162.71C154.275 162.582 154.432 162.416 154.515 162.211L155.618 162.518C155.497 162.774 155.321 163.001 155.091 163.2C154.867 163.398 154.601 163.555 154.294 163.67C153.987 163.779 153.648 163.833 153.277 163.833ZM151.962 160.819H154.591C154.566 160.564 154.492 160.343 154.371 160.157C154.256 159.965 154.102 159.818 153.91 159.716C153.718 159.607 153.504 159.553 153.267 159.553C153.037 159.553 152.826 159.607 152.634 159.716C152.448 159.818 152.295 159.965 152.173 160.157C152.058 160.343 151.988 160.564 151.962 160.819ZM161.172 163.737H159.886V160.915C159.886 160.512 159.815 160.218 159.674 160.033C159.534 159.847 159.338 159.754 159.089 159.754C158.916 159.754 158.74 159.799 158.561 159.889C158.388 159.978 158.232 160.103 158.091 160.263C157.95 160.416 157.848 160.596 157.784 160.8V163.737H156.498V158.708H157.659V159.639C157.787 159.422 157.95 159.239 158.148 159.092C158.347 158.938 158.574 158.823 158.83 158.747C159.092 158.663 159.367 158.622 159.655 158.622C159.969 158.622 160.225 158.679 160.423 158.795C160.628 158.903 160.781 159.054 160.884 159.246C160.992 159.431 161.066 159.642 161.104 159.879C161.149 160.116 161.172 160.356 161.172 160.599V163.737Z" fill="#1F1F1F"/>
<path d="M166.856 163.833C166.447 163.833 166.079 163.766 165.752 163.631C165.426 163.49 165.148 163.299 164.917 163.055C164.693 162.812 164.521 162.534 164.399 162.22C164.278 161.907 164.217 161.577 164.217 161.232C164.217 160.88 164.278 160.547 164.399 160.234C164.521 159.92 164.693 159.642 164.917 159.399C165.148 159.156 165.426 158.967 165.752 158.833C166.079 158.692 166.447 158.622 166.856 158.622C167.265 158.622 167.63 158.692 167.95 158.833C168.276 158.967 168.555 159.156 168.785 159.399C169.015 159.642 169.188 159.92 169.303 160.234C169.425 160.547 169.486 160.88 169.486 161.232C169.486 161.577 169.425 161.907 169.303 162.22C169.188 162.534 169.015 162.812 168.785 163.055C168.561 163.299 168.286 163.49 167.96 163.631C167.633 163.766 167.265 163.833 166.856 163.833ZM165.541 161.232C165.541 161.526 165.599 161.789 165.714 162.019C165.829 162.243 165.986 162.419 166.184 162.547C166.383 162.675 166.606 162.739 166.856 162.739C167.099 162.739 167.32 162.675 167.518 162.547C167.716 162.412 167.873 162.233 167.988 162.009C168.11 161.779 168.171 161.517 168.171 161.222C168.171 160.934 168.11 160.675 167.988 160.445C167.873 160.215 167.716 160.036 167.518 159.908C167.32 159.78 167.099 159.716 166.856 159.716C166.606 159.716 166.383 159.783 166.184 159.917C165.986 160.045 165.829 160.224 165.714 160.455C165.599 160.679 165.541 160.938 165.541 161.232ZM177.974 163.737H176.688V160.915C176.688 160.519 176.617 160.227 176.476 160.042C176.342 159.85 176.153 159.754 175.91 159.754C175.661 159.754 175.421 159.853 175.19 160.052C174.967 160.243 174.807 160.496 174.711 160.81V163.737H173.425V160.915C173.425 160.512 173.354 160.218 173.213 160.032C173.079 159.847 172.89 159.754 172.647 159.754C172.398 159.754 172.158 159.85 171.927 160.042C171.704 160.234 171.544 160.487 171.448 160.8V163.737H170.162V158.708H171.323V159.639C171.515 159.313 171.771 159.063 172.091 158.89C172.411 158.711 172.778 158.622 173.194 158.622C173.61 158.622 173.933 158.724 174.164 158.929C174.4 159.133 174.551 159.386 174.615 159.687C174.819 159.341 175.078 159.079 175.392 158.9C175.712 158.714 176.07 158.622 176.467 158.622C176.78 158.622 177.033 158.679 177.225 158.794C177.423 158.903 177.577 159.053 177.686 159.245C177.794 159.431 177.868 159.642 177.906 159.879C177.951 160.116 177.974 160.355 177.974 160.599V163.737ZM178.556 162.249C178.556 161.923 178.645 161.638 178.824 161.395C179.01 161.146 179.266 160.954 179.592 160.819C179.919 160.685 180.293 160.618 180.715 160.618C180.926 160.618 181.141 160.634 181.358 160.666C181.576 160.698 181.764 160.749 181.924 160.819V160.551C181.924 160.231 181.828 159.984 181.636 159.812C181.451 159.639 181.173 159.552 180.801 159.552C180.526 159.552 180.264 159.6 180.014 159.696C179.765 159.792 179.503 159.933 179.228 160.119L178.815 159.274C179.148 159.057 179.487 158.893 179.832 158.785C180.184 158.676 180.552 158.622 180.936 158.622C181.652 158.622 182.209 158.801 182.606 159.159C183.009 159.517 183.21 160.029 183.21 160.695V162.297C183.21 162.432 183.233 162.528 183.277 162.585C183.329 162.643 183.409 162.678 183.517 162.691V163.737C183.402 163.756 183.297 163.772 183.201 163.785C183.111 163.798 183.034 163.804 182.97 163.804C182.714 163.804 182.519 163.746 182.385 163.631C182.257 163.516 182.177 163.375 182.145 163.209L182.116 162.95C181.899 163.231 181.627 163.449 181.3 163.602C180.974 163.756 180.642 163.833 180.302 163.833C179.97 163.833 179.669 163.766 179.4 163.631C179.138 163.49 178.93 163.302 178.776 163.065C178.629 162.822 178.556 162.55 178.556 162.249ZM181.684 162.508C181.755 162.432 181.812 162.355 181.857 162.278C181.902 162.201 181.924 162.131 181.924 162.067V161.558C181.771 161.494 181.604 161.446 181.425 161.414C181.246 161.376 181.077 161.357 180.917 161.357C180.584 161.357 180.309 161.43 180.091 161.577C179.88 161.718 179.775 161.907 179.775 162.144C179.775 162.272 179.81 162.393 179.88 162.508C179.951 162.624 180.053 162.716 180.187 162.787C180.322 162.857 180.482 162.892 180.667 162.892C180.859 162.892 181.048 162.857 181.233 162.787C181.419 162.71 181.569 162.617 181.684 162.508ZM185.045 158.708L186.101 160.282L186.178 160.455L186.274 160.282L187.32 158.708H188.673L186.926 161.213L188.702 163.737H187.349L186.264 162.172L186.178 162.009L186.101 162.172L185.026 163.737H183.673L185.449 161.242L183.702 158.708H185.045Z" fill="black"/>
<path d="M164.077 153.056L161.607 157.765L163.053 157.125C163.038 159.323 163.022 161.521 163.005 163.719L161.606 160.789L162.688 160.049V159.029L160.521 160.556L162.933 166.08L164.009 166.063C164.032 161.728 164.055 157.392 164.077 153.056Z" fill="#1F1F1F"/>
<path d="M164.379 158.214V159.131L165.404 158.288V157.068L166.972 157.765C166.188 156.196 165.404 154.626 164.621 153.056V158.059L164.379 158.214Z" fill="black"/>
<path fill-rule="evenodd" clip-rule="evenodd" d="M162.337 158.54L162.133 158.691L160.077 160.214L159.834 160.394L159.982 160.657L160.668 161.876L161.265 161.54L160.728 160.585L162.337 159.393V158.54Z" fill="black"/>
</g>
<path d="M369.339 91.5862L364.912 109.423L369.244 106.089C370.995 113.48 372.745 120.871 374.492 128.262L367.392 119.574L370.416 116.201L369.579 112.78L363.56 119.683L376.187 136.249L379.787 135.309C376.307 120.735 372.824 106.161 369.339 91.5862Z" fill="#1F1F1F"/>
<path d="M374.589 108.654L375.341 111.734L378.091 108.062L377.09 103.965L382.925 105.02C379.006 100.395 375.087 95.768 371.167 91.1399L375.273 107.935L374.589 108.654Z" fill="black"/>
<path fill-rule="evenodd" clip-rule="evenodd" d="M368.014 111.422L367.453 112.097L361.799 118.898L361.131 119.702L361.845 120.465L365.146 123.993L366.876 122.374L364.289 119.609L368.714 114.286L368.014 111.422Z" fill="black"/>
<defs>
<filter id="filter0_b_508_11947" x="139.384" y="152.484" width="51.8697" height="14.1676" filterUnits="userSpaceOnUse" color-interpolation-filters="sRGB">
<feFlood flood-opacity="0" result="BackgroundImageFix"/>
<feGaussianBlur in="BackgroundImageFix" stdDeviation="0.285786"/>
<feComposite in2="SourceAlpha" operator="in" result="effect1_backgroundBlur_508_11947"/>
<feBlend mode="normal" in="SourceGraphic" in2="effect1_backgroundBlur_508_11947" result="shape"/>
</filter>
<clipPath id="clip0_508_11947">
<rect width="50.727" height="13.0245" fill="white" transform="translate(139.955 153.056)"/>
</clipPath>
</defs>
</svg>
