<svg width="234" height="213" viewBox="0 0 234 213" fill="none" xmlns="http://www.w3.org/2000/svg">
<g opacity="0.4">
<path d="M199.512 53.2062L100.134 71.2342L126.625 85.3969C93.543 110.813 60.4564 136.217 27.3663 161.613L54.8666 106.51L78.5968 114.043L93.852 102.151L45.6677 87.5783L-8.828 188.088L4.01163 203.986C69.178 153.737 134.344 103.476 199.512 53.2062Z" fill="url(#paint0_linear_807_6126)" fill-opacity="0.1"/>
<path d="M199.512 53.2062L100.134 71.2342L126.625 85.3969C93.543 110.813 60.4564 136.217 27.3663 161.613L54.8666 106.51L78.5968 114.043L93.852 102.151L45.6677 87.5783L-8.828 188.088L4.01163 203.986C69.178 153.737 134.344 103.476 199.512 53.2062Z" fill="url(#paint1_linear_807_6126)" fill-opacity="0.1"/>
<path d="M125.83 117.901L112.098 128.606L136.707 134.094L154.974 119.854L162.863 151.433C177.192 121.402 191.527 91.3673 205.867 61.3278L130.98 119.707L125.83 117.901Z" fill="url(#paint2_linear_807_6126)" fill-opacity="0.1"/>
</g>
<defs>
<linearGradient id="paint0_linear_807_6126" x1="60.4602" y1="76.0465" x2="101.968" y2="129.291" gradientUnits="userSpaceOnUse">
<stop stop-opacity="0.55"/>
<stop offset="0.8"/>
<stop offset="1"/>
</linearGradient>
<linearGradient id="paint1_linear_807_6126" x1="178.727" y1="26.6296" x2="-15.9975" y2="178.921" gradientUnits="userSpaceOnUse">
<stop stop-color="white"/>
<stop offset="0.5625" stop-color="white"/>
<stop offset="1" stop-color="white" stop-opacity="0"/>
</linearGradient>
<linearGradient id="paint2_linear_807_6126" x1="157.569" y1="93.1593" x2="187.826" y2="131.973" gradientUnits="userSpaceOnUse">
<stop stop-opacity="0.46"/>
<stop offset="1"/>
</linearGradient>
</defs>
</svg>
