<svg width="93" height="169" viewBox="0 0 93 169" fill="none" xmlns="http://www.w3.org/2000/svg">
<g opacity="0.1">
<path d="M54.8842 0L22.9162 60.93L41.6385 52.6538C41.438 81.0897 41.2286 109.523 41.013 137.955L22.9091 100.049L36.9089 90.4712L36.9089 77.2861L8.87109 97.0385L40.077 168.507L54.0094 168.288C54.3067 112.197 54.5977 56.101 54.8842 0Z" fill="#404040"/>
<path d="M58.7969 66.7336V78.6025L72.0656 67.6935V51.9047L92.3565 60.93C82.2133 40.6248 72.0701 20.3149 61.9269 0L61.9269 64.7263L58.7969 66.7336Z" fill="#404040"/>
<path fill-rule="evenodd" clip-rule="evenodd" d="M32.4001 70.9493L29.7598 72.9045L3.1442 92.6127L0 94.9408L1.9181 98.35L10.79 114.117L18.5227 109.768L11.5689 97.4116L32.4001 81.9862V70.9493Z" fill="#404040"/>
</g>
</svg>
